<svg xmlns="http://www.w3.org/2000/svg" viewBox="0 0 24.318 17.37"><defs><style>.a{fill:#fff;}</style></defs><g transform="translate(0 -2)"><g transform="translate(0 2)"><path class="a" d="M11.926,10.117,8.918,7.484l-8.6,7.374a1.761,1.761,0,0,0,1.2.471h20.82a1.748,1.748,0,0,0,1.2-.471l-8.6-7.374Z" transform="translate(0.233 2.042)"/><path class="a" d="M23.535,2.471A1.749,1.749,0,0,0,22.335,2H1.515a1.742,1.742,0,0,0-1.2.474l11.607,9.948Z" transform="translate(0.234 -2)"/><path class="a" d="M0,2.878V17.309l8.4-7.134Z" transform="translate(0 -1.353)"/><path class="a" d="M9.167,10.177l8.4,7.134V2.875Z" transform="translate(6.756 -1.355)"/></g></g></svg>