<?xml version="1.0" encoding="utf-8"?>
<!-- Generator: Adobe Illustrator 22.1.0, SVG Export Plug-In . SVG Version: 6.00 Build 0)  -->
<svg version="1.1" id="Слой_1" xmlns="http://www.w3.org/2000/svg" xmlns:xlink="http://www.w3.org/1999/xlink" x="0px" y="0px"
	 viewBox="0 0 19.4 19.4" style="enable-background:new 0 0 19.4 19.4;" xml:space="preserve">
<style type="text/css">
	.st0{fill:#191919;}
</style>
<g id="emojis" transform="translate(-1592.557 -14811.667)">
	<g id="dp_path002">
		<path class="st0" d="M1602.2,14812c-5.2,0-9.3,4.2-9.3,9.4c0,5.2,4.2,9.3,9.4,9.3c5.2,0,9.3-4.2,9.3-9.4c0,0,0,0,0,0
			C1611.6,14816.2,1607.4,14812,1602.2,14812z M1602.2,14829.7c-2.2,0-4.3-0.9-5.9-2.4c-0.6-0.6-1.1-1.3-1.5-2.1
			c-0.6-1.2-1-2.5-0.9-3.9c0-4.6,3.8-8.3,8.3-8.3c2.1,0,4.1,0.8,5.7,2.2c1.7,1.6,2.6,3.8,2.7,6.1
			C1610.6,14825.9,1606.9,14829.7,1602.2,14829.7z"/>
		<path class="st0" d="M1602.2,14831c-5.3,0-9.7-4.3-9.7-9.7c0-5.3,4.3-9.7,9.7-9.7c5.3,0,9.7,4.3,9.7,9.6
			C1611.9,14826.7,1607.6,14831,1602.2,14831z M1602.2,14812.3c-5,0-9,4-9,9c0,5,4,9,9,9c5,0,9-4,9-9
			C1611.2,14816.4,1607.2,14812.3,1602.2,14812.3z M1602.2,14830c-2.3,0-4.4-0.9-6.1-2.5c-0.6-0.6-1.2-1.4-1.6-2.2
			c-0.7-1.2-1-2.6-1-4.1c0-4.7,3.9-8.6,8.7-8.6c2.2,0,4.3,0.8,5.9,2.3c1.7,1.7,2.7,4,2.8,6.3
			C1610.9,14826.1,1607,14830,1602.2,14830L1602.2,14830C1602.2,14830,1602.2,14830,1602.2,14830z M1602.2,14813.3c-4.4,0-8,3.6-8,8
			c0,1.3,0.3,2.6,0.9,3.7c0.4,0.8,0.9,1.4,1.5,2c1.5,1.5,3.5,2.3,5.6,2.3c0,0,0,0,0,0c4.4,0,8-3.7,8-8.1c0-2.2-1-4.3-2.6-5.9
			C1606.2,14814.1,1604.2,14813.4,1602.2,14813.3z"/>
	</g>
	<g id="dp_path003">
		<path class="st0" d="M1599,14819.2c0.5,0,1,0.4,1,0.9c0,0,0,0,0,0.1h1c0.1-1.1-0.8-2.1-1.9-2.1s-2.1,0.8-2.1,1.9
			c0,0.1,0,0.2,0,0.3h1C1598,14819.7,1598.5,14819.2,1599,14819.2C1599,14819.2,1599,14819.2,1599,14819.2z"/>
		<path class="st0" d="M1601.4,14820.5h-1.7l0-0.3c0-0.4-0.3-0.7-0.6-0.7h0v-0.3l0,0.3c-0.2,0-0.3,0.1-0.4,0.2
			c-0.1,0.1-0.2,0.3-0.2,0.5l0,0.3h-1.7l0-0.3c0-0.1,0-0.2,0-0.3c0.1-1.3,1.2-2.3,2.5-2.2c0.6,0,1.2,0.3,1.6,0.8
			c0.4,0.5,0.6,1.1,0.6,1.7L1601.4,14820.5z M1600.3,14819.9h0.4c0-0.3-0.2-0.6-0.4-0.9c-0.3-0.3-0.7-0.5-1.1-0.6
			c-0.9-0.1-1.7,0.6-1.8,1.5h0.4c0-0.2,0.2-0.4,0.3-0.6c0.2-0.3,0.6-0.4,0.9-0.4l0.1,0
			C1599.7,14818.9,1600.2,14819.3,1600.3,14819.9z"/>
	</g>
	<g id="dp_path004">
		<path class="st0" d="M1605.4,14819.2c0.5,0,1,0.4,1,0.9c0,0,0,0,0,0.1h1c0.1-1.1-0.8-2.1-1.9-2.1s-2.1,0.8-2.1,1.9
			c0,0.1,0,0.2,0,0.3h1C1604.4,14819.7,1604.8,14819.2,1605.4,14819.2C1605.4,14819.2,1605.4,14819.2,1605.4,14819.2z"/>
		<path class="st0" d="M1607.7,14820.5h-1.7v-0.3c0-0.4-0.3-0.7-0.6-0.7h0v-0.3l0,0.3c-0.2,0-0.3,0.1-0.4,0.2
			c-0.1,0.1-0.2,0.3-0.2,0.5l0,0.3h-1.7l0-0.3c0-0.1,0-0.2,0-0.3c0-0.6,0.3-1.2,0.8-1.6c0.5-0.4,1.1-0.6,1.7-0.6
			c1.3,0.1,2.3,1.2,2.2,2.5L1607.7,14820.5z M1606.7,14819.9h0.4c-0.1-0.8-0.7-1.4-1.5-1.5c-0.4,0-0.9,0.1-1.2,0.4
			c-0.3,0.3-0.5,0.7-0.6,1.1h0.4c0-0.2,0.2-0.4,0.3-0.6c0.2-0.3,0.6-0.4,0.9-0.4l0.1,0c0,0,0,0,0,0
			C1606.1,14818.9,1606.6,14819.3,1606.7,14819.9z"/>
	</g>
	<g id="dp_path005">
		<path class="st0" d="M1602.2,14826.5c2,0,3.8-1,4.9-2.6l-0.8-0.6c-1,1.5-2.8,2.4-4.6,2.2c-1.4-0.2-2.7-1-3.5-2.2l-0.8,0.6
			c1,1.4,2.5,2.4,4.2,2.6H1602.2z"/>
		<path class="st0" d="M1602.2,14826.8h-0.7c-1.9-0.2-3.5-1.2-4.5-2.7l-0.2-0.3l1.4-1l0.2,0.3c0.7,1.1,1.9,1.9,3.2,2.1
			c1.7,0.2,3.3-0.6,4.3-2.1l0.2-0.3l1.4,1l-0.2,0.3C1606.2,14825.8,1604.3,14826.8,1602.2,14826.8z M1597.8,14824
			c0.9,1.2,2.3,2,3.8,2.2l0.6,0c1.7,0,3.4-0.8,4.4-2.2l-0.3-0.2c-1.1,1.5-2.9,2.2-4.7,2.1c-1.4-0.2-2.7-0.9-3.5-2.1L1597.8,14824z"
			/>
	</g>
</g>
</svg>
