<svg xmlns="http://www.w3.org/2000/svg" viewBox="0 0 18.56 18.56"><defs><style>.cls-1{fill:#191919;}</style></defs><title>Ресурс 2</title><g id="Слой_2" data-name="Слой 2"><g id="Слой_1-2" data-name="Слой 1"><path class="cls-1" d="M9.28,0a9.28,9.28,0,1,0,9.28,9.28h0A9.3,9.3,0,0,0,9.28,0ZM1,9.28A8.34,8.34,0,0,1,8.82,1V5.79L4.92,3.84V8.78L9.28,11l3.43-1.72V12.1L9.28,13.82,5.86,12.1V10.27L4.92,9.8v2.89l3.9,2v3A8.35,8.35,0,0,1,1,9.28Zm8.8,8.31v-3l3.9-2V7.74L9.29,9.92,5.86,8.2V5.35L9.29,7.06l3.44-1.71V7.19l.94-.46V3.84l-3.9,2V1a8.32,8.32,0,0,1,0,16.61Z"/></g></g></svg>