<?xml version="1.0" encoding="UTF-8"?>
<svg width="19px" height="19px" viewBox="0 0 19 19" version="1.1" xmlns="http://www.w3.org/2000/svg" xmlns:xlink="http://www.w3.org/1999/xlink">
    <!-- Generator: Sketch 51 (57462) - http://www.bohemiancoding.com/sketch -->
    <title>Group235</title>
    <desc>Created with Sketch.</desc>
    <defs></defs>
    <g id="Page-1" stroke="none" stroke-width="1" fill="none" fill-rule="evenodd">
        <g id="Group235" fill="#191919" fill-rule="nonzero">
            <path d="M9.28,5.68434189e-14 C4.15479752,5.68434189e-14 -5.68434189e-14,4.15479752 -5.68434189e-14,9.28 C-5.68434189e-14,14.4052025 4.15479752,18.56 9.28,18.56 C14.4052025,18.56 18.56,14.4052025 18.56,9.28 C18.5533889,4.15753841 14.4024616,0.00661105784 9.28,0 Z M0.963,9.28 C0.967472589,4.86835398 4.41153333,1.22562273 8.816,0.974 L8.816,5.788 L4.916,3.839 L4.916,8.781 L9.278,10.962 L12.712,9.245 L12.712,12.1 L9.278,13.817 L5.856,12.1 L5.856,10.267 L4.916,9.803 L4.916,12.691 L8.816,14.64 L8.816,17.6 C4.41045265,17.3388138 0.969540105,13.693278 0.963,9.28 Z M9.756,17.586 L9.756,14.628 L13.656,12.679 L13.656,7.737 L9.294,9.918 L5.86,8.201 L5.86,5.347 L9.294,7.064 L12.728,5.347 L12.728,7.191 L13.668,6.727 L13.668,3.84 L9.768,5.789 L9.768,0.975 C14.1779947,1.2202153 17.6273842,4.86937394 17.6241934,9.28617975 C17.6210027,13.7029856 14.1663444,17.3471566 9.756,17.586 Z" id="Shape"></path>
        </g>
    </g>
</svg>