<?xml version="1.0" encoding="utf-8"?>
<!-- Generator: Adobe Illustrator 19.2.1, SVG Export Plug-In . SVG Version: 6.00 Build 0)  -->
<svg version="1.1" id="Слой_1" xmlns="http://www.w3.org/2000/svg" xmlns:xlink="http://www.w3.org/1999/xlink" x="0px" y="0px"
	 viewBox="0 0 14.7 14.7" style="enable-background:new 0 0 14.7 14.7;" xml:space="preserve">
<style type="text/css">
	.st0{fill:#9095A4;}
</style>
<title>search</title>
<desc>Created with Sketch.</desc>
<g id="Page-1">
	<g id="search" transform="translate(1.000000, 1.000000)">
		<g id="Group">
			<g id="Oval">
				<path class="st0" d="M5.5,12C1.9,12-1,9.1-1,5.5C-1,1.9,1.9-1,5.5-1S12,1.9,12,5.5C12,9.1,9.1,12,5.5,12z M5.5,1C3,1,1,3,1,5.5
					C1,8,3,10,5.5,10S10,8,10,5.5C10,3,8,1,5.5,1z"/>
			</g>
		</g>
		<g id="Shape">
			<rect x="10" y="8.2" transform="matrix(0.7071 -0.7071 0.7071 0.7071 -4.5567 11.0001)" class="st0" width="2" height="5.7"/>
		</g>
	</g>
</g>
</svg>
