<?xml version="1.0" encoding="utf-8"?>
<!-- Generator: Adobe Illustrator 22.1.0, SVG Export Plug-In . SVG Version: 6.00 Build 0)  -->
<svg version="1.1" id="Слой_1" xmlns="http://www.w3.org/2000/svg" xmlns:xlink="http://www.w3.org/1999/xlink" x="0px" y="0px"
	 viewBox="0 0 21.6 18.5" style="enable-background:new 0 0 21.6 18.5;" xml:space="preserve">
<style type="text/css">
	.st0{fill:#191919;}
</style>
<g id="send">
	<path class="st0" d="M1.4,18.5c-0.2,0-0.4-0.1-0.6-0.2C0,17.9,0,16.9,0,16.5v-5.9l5.6-1.4L0,7.9V1.7C-0.1,1,0.2,0.5,0.5,0.3
		c0.3-0.2,0.8-0.5,1.6-0.2l18.6,7.7c0.3,0.2,1.1,0.7,1,1.5c-0.1,0.8-0.8,1.1-1.1,1.2L2.3,18.3C2,18.4,1.7,18.5,1.4,18.5z M1.8,12
		v4.6c0,0,0,0.1,0,0.1l17.6-7.4L1.8,1.9v4.7l7,1.6c0.3,0.1,1.2,0.3,1.2,1.1c0,0.8-0.9,0.9-1.2,1L1.8,12z"/>
</g>
</svg>
