<svg xmlns="http://www.w3.org/2000/svg" viewBox="0 0 1288.103 1288.103"><defs><style>.a{fill:#40b9a6;opacity:0.15;}</style></defs><path class="a" d="M965.552,420C610.518,420,321.5,709.018,321.5,1064.051S610.518,1708.1,965.552,1708.1,1609.6,1419.085,1609.6,1064.051,1320.585,420,965.552,420ZM388.321,1064.051c0-307.535,241.519-559.52,545.029-576.426v334.1l-270.5-135.252v342.958l302.7,151.352,238.3-119.149v198.045l-238.3,119.15-237.494-119.15v-127.2l-65.21-32.2V1300.74l270.5,135.251v205.291C629.84,1623.572,388.321,1371.586,388.321,1064.051ZM998.56,1640.477V1435.186l270.5-135.252V956.977l-302.7,151.352L728.058,989.18V791.134l238.3,119.15,238.3-119.15V919.14l65.211-32.2V686.475l-270.5,135.252v-334.1c303.509,16.906,545.029,268.891,545.029,576.426C1543.588,1371.586,1301.263,1623.572,998.56,1640.477Z" transform="translate(-321.5 -420)"/></svg>