<svg xmlns="http://www.w3.org/2000/svg" viewBox="0 0 175.465 92.463" width="175.46" height="92.25"><defs><style>.a,.b,.c{fill:#fff;}.a{stroke:#fff;stroke-width:0.432px;}.b{fill-rule:evenodd;}</style></defs><g transform="translate(-318.227 -361.551)"><path class="a" d="M318.663,527.894h4.61v1.241h-2.84v1.34h2.681v1.261h-2.681v1.513h2.947v1.28h-4.716Zm162.939,0h5.055v1.326h-1.643v5.309h-1.769V529.22H481.6Zm-15.021,0h2.209l1.923,3.978c.065.134.142.32.23.558s.183.53.29.875c-.058-.327-.1-.627-.125-.9s-.04-.524-.04-.753v-3.758h1.6v6.635h-2.2l-2-4.124a5.3,5.3,0,0,1-.258-.619c-.076-.222-.148-.465-.214-.727q.094.593.138,1.09c.03.331.044.625.044.877v3.5h-1.6Zm-12.858,0h4.61v1.241h-2.841v1.34h2.681v1.261h-2.681v1.513h2.947v1.28h-4.716Zm-16.011,0h2.57l1.154,3.988a3.985,3.985,0,0,1,.11.534c.029.2.049.411.063.637.022-.245.049-.471.08-.679a4.979,4.979,0,0,1,.111-.53l1.156-3.95h2.529v6.635H443.9v-4.455c0-.212.006-.43.019-.659s.029-.469.052-.728c-.04.2-.084.39-.129.572s-.093.354-.143.517l-1.422,4.753H440.77l-1.391-4.675c-.047-.161-.094-.341-.138-.538s-.086-.407-.125-.628c.022.314.038.6.051.848s.02.44.02.567v4.426h-1.476Zm-14.357,0h2.209l1.923,3.978c.065.134.142.32.23.558s.183.53.29.875c-.058-.327-.1-.627-.125-.9s-.04-.524-.04-.753v-3.758h1.6v6.635h-2.2l-2-4.124a5.565,5.565,0,0,1-.258-.619c-.077-.222-.148-.465-.214-.727.063.4.108.76.137,1.09s.045.626.045.877v3.5h-1.6Zm-10.376,0h1.769v6.635h-1.769Zm-11.153,1.48-.859,2.489h1.689Zm-1.033-1.48h2.134l2.512,6.635h-1.89l-.472-1.406h-2.555l-.494,1.406h-1.752Zm-14.51,0h5.056v1.326H389.7v5.309h-1.769V529.22h-1.643Zm-11.178,1.166v1.7h.622a1.463,1.463,0,0,0,.861-.207.722.722,0,0,0,.287-.625.731.731,0,0,0-.32-.658,1.873,1.873,0,0,0-1.011-.211h-.438Zm-1.733-1.166h2.638a3.551,3.551,0,0,1,1.954.427,1.457,1.457,0,0,1,.638,1.3,1.627,1.627,0,0,1-.336,1.06,1.666,1.666,0,0,1-.971.557,1.628,1.628,0,0,1,.84,1.086v.005l.794,2.2h-1.844l-.583-1.817a1.147,1.147,0,0,0-.383-.607,1.349,1.349,0,0,0-.757-.168h-.257v2.592h-1.733Zm-13.168,0h4.61v1.241h-2.84v1.34h2.681v1.261h-2.681v1.513h2.947v1.28H360.2v-6.635Zm-13.317,0h5.056v1.326H350.3v5.309h-1.769V529.22h-1.643v-1.326Zm-15.056,0h2.209l1.922,3.978q.1.2.23.558c.088.239.183.53.29.875-.057-.327-.1-.627-.124-.9s-.04-.524-.04-.753v-3.758h1.6v6.635h-2.2l-2-4.124a5.368,5.368,0,0,1-.258-.619c-.077-.222-.148-.465-.214-.727q.093.593.137,1.09c.03.331.045.625.045.877v3.5h-1.6Z" transform="translate(-0.212 -80.731)"/><path class="b" d="M362.873,426.892s.36,1.584,1.248.987,1.248-1.49,2.136-1.49,4.589-.7,5.477,0,.977.1,1.421.1a17.165,17.165,0,0,1,1.748.232c1.135-.118.9-1.923.083-2.451-1.184-.927-2.779-1.523-3.963-2.452q-.178-1.342-.355-2.684l.977-1.392v-4.472l-.533-1.193q-.089-1.689-.178-3.379l-.444-.6v-1.292c.3-.43.9-.861,1.192-1.292.089-.828-.308-1.413-.219-2.241-.207-1.06-.232-2.364-.44-3.424v-3.876c.859-.256,1.067-.637,1.128-1.022a8.2,8.2,0,0,0-.418-2.258c-.118-6.2-.176-12.634-.294-18.83.472-.74,1.039-1.123,1.051-1.672.009-.427-.449-.783-1.023-1.265v-1.292s.977-1.988,1.776-1.988a1.268,1.268,0,0,0,1.332-1.193.989.989,0,0,0-.8-1.59c-1.691-.035-3.607.051-5.257.017-1.456-.031-2.65-.184-4.066-.215l-1.865.1c-1.528.464-1.207,1.294-.622,1.757a4.294,4.294,0,0,0,2.131.976,2.026,2.026,0,0,1,2.131,1.342q.133,5.963.266,11.927c.03,2.932.12,5.864.149,8.8s0,5.864.028,8.8q.089,5.169.178,10.337a5.05,5.05,0,0,1-.444,1.59,11.2,11.2,0,0,0-.178,2.882c.983.857.774.737.089,1.889q-.089,3.827-.178,7.653l-.711,1.392S362.873,425.6,362.873,426.892Zm-43,12.355c-1.317-.271-1.564-.908-1.1-1.284.281-.225,1.031-.217,1.368-.375a3.767,3.767,0,0,0,1.295-.9c.508-.629.2-2.084.806-3.27.582-5,.757-11.631.175-13.86-.349-3.436.009-14.85.009-16.3a2.776,2.776,0,0,0,.535-1.97c0-.476.321-1.217-.02-1.805-.495-.565-.345-2.774-.384-4.019a7.25,7.25,0,0,1,.594-3.517,2.989,2.989,0,0,0,0-1.989c-.42-.979-1.028.152-.987-1.814.1-4.77.277-9.57.152-14.338.027-.425.735-.5.873-.9a2.226,2.226,0,0,0,0-1.627c-.133-.275-.876.083-1.094-.126-1.332-1.273-3.007-2.073-3.779-3.771a2.393,2.393,0,0,1,.818-2.432c1.051-.522,3.006.018,4.156-.181.618-.107,1.01-.475,1.636-.5,4.886-.215,9.914-.7,14.783-.221.779.077,1.036,1.452,1.747,1.793.974.468,2.4.368,3.144,1.166a6.494,6.494,0,0,1,2.207,4.107c.186,2.177.56,4.642.542,6.314a8.512,8.512,0,0,1-1.06,3.868,48.465,48.465,0,0,1-2.975,4.821c-.635.94-1.766,1.812-2.032,2.883-.275,1.108,2.587.295,3.172,1.264.563.932-.48,2.025-.166,3.076.281.937,1.9,1.028,2.1,1.989.5,2.479-.6,5.1-.175,7.594.136.8,1.4.827,1.526,1.628.149,1.73.1,3.562.11,5.4.014,1.956.09,3.922.065,5.781-.048.7-.966,1.111-1.048,1.808-.219,1.856.419,3.952.009,5.771-.432,1.917-1.973,3.27-2.574,5.138-.521,1.617-.373,3.978-1.213,4.992a16.11,16.11,0,0,0-4.214,2.23c-1.6,1.19-2.622,2.554-3.114,2.6-.625.556-1.947.184-2.721.473-.714.266-.782.865-1.535.767-.595-.076-.409-.57-.873-.962a.862.862,0,0,0-1.048,0c-1.568,1.262-.4.932-2.179.767-1.809-.167-5.329.391-7.53-.06ZM330,431.99l1.223-2.351q-.175-3.886-.35-7.775l1.048-1.447v-7.832c0-1.187-.165-2.374-.165-3.56-1.226-1.014-.64-1,.349-2.17,0-1.145.276-2.069.276-3.214q-.175-1.446-.35-2.893l.524-1.447c0-1.45.165-2.624.165-4.074,0-1.362.039-1.818.288-1.733a13.889,13.889,0,0,1,1.546,1.518l1.91,1.836c1.176,1.13,2.322,1.233,1.845,3.085-.445,1.733.835,2.213.437,3.933a10.452,10.452,0,0,0-.615,2.931,2.89,2.89,0,0,0,.811,1.59c.49.563.653.528.36,1.221a8.89,8.89,0,0,0-.886,2.344c-.058.828.393,1.209.788,2.672a5.558,5.558,0,0,1-.006,3.19l-1.065,4.271c-.04,1.077-.138,2.154-.214,3.232-.116,1.642-.335,1.684-1.476,2.857-1.037,1.066-2.372,1.978-3.373,2.932-1.106.422-1.967.461-3.073.883Zm2.672-45.687a5.339,5.339,0,0,0,1.557,0c.275-.113.428-.428.829-1.205.518-1.005,1.284-2.261,1.92-2.356a14.2,14.2,0,0,0,1.63-.318s.561-.106.369-1.488-.587-2.71-.239-3.082a1.737,1.737,0,0,0,.051-1.86c-.37-.425-.722-.85-.124-1.435s1.011-1.563-.419-1.4-1.412-.459-1.577-.885-1.725-.328-2.54-.375c-.815.159-1.5.106-1.476.956s-.113,4.948-.1,5.374.12,8.077.12,8.077Zm45.227,37.3c-.064.361-.893.363-.829.726.089.505.122,1.295.632,1.361,1.477.191,3.5-.4,4.967-.126.578.107.61,1.093,1.14,1.347.436-.007,1.106.008,1.659,0,.425-.221.311-1,.726-1.243a2.177,2.177,0,0,1,1.762-.208c.3.11-.109.9.207.934,2.584-.1,4.892.185,7.337,0,.488-.08-.009-.779.391-1.069.455-.33,1.582.246,1.659-.311.4-2.879-.223-6.094.048-8.987.087-.926.975-1.475,1.174-2.384.066-.3.429-.308.458-.606a10.2,10.2,0,0,0-.18-3.32,2.186,2.186,0,0,0-1.762-.324c-.394.29-.036,1.319-.3,1.729-.131.2-.6-.2-.726,0s.037.529.1.79c.035.156.032.287-.1.351-.68.34-1.681-.467-2.281,0s.072,1.344-.426,1.9c-.807.9-2.537,1.427-3.341,2.329-.956,1.073-.871,2.168-1.97,3.095-.86.725-2.322.8-3.364,1.224-1.208.491-1.785,1.4-3.04,1.749-.379.107-.842-.556-.726-.933.94-3.048,2.162-6.112,3.177-9.136.651-1.94.957-3.164,1.66-5.086a30.181,30.181,0,0,1,2.868-6.2c.234-.345,1.015-.12,1.14-.518.311-.989-.271-2.11,0-3.11a3.817,3.817,0,0,1,1.625-1.866c.436-.28,1.132.11,1.324-.371.449-1.123.03-2.313.313-3.489a10.741,10.741,0,0,1,1.081-2.016c.46-.98.426-1.83.933-2.786a18.56,18.56,0,0,0,1.531-2.711c.344-1.16.062-1.729.174-2.934.03-.324.505-.5.518-.829.161-3.9.367-7.816.138-11.714-.019-.318-.732-.3-.726-.622.025-1.191.169-2.244.1-3.317-.013-.21.06-.382-.15-.39-3.246-.136-6.45-.062-9.7-.024-2.661.031-5.328-.182-7.983,0a1.448,1.448,0,0,0-1.037.39,2.021,2.021,0,0,0-.38,1.268c.07,1.732-.035,3.619,0,5.7.006.386.767.155.9.518a7.778,7.778,0,0,1,.311,3.214c-.026.345-.445.809-.437,1.154.167,1.2.322,2.047.541,3.2.126.446.51.795.622,1.244.134.537-.356,1.623.2,1.659a3.385,3.385,0,0,0,1.151,0c.422-.153-.155-.926,0-1.348.11-.3.675-.308.726-.622.274-1.707-.2-3.707.069-5.415a1.983,1.983,0,0,1,.829-1.348c.382-.236,1.072.354,1.348,0,.382-.492.006-1.058.242-1.634a6.011,6.011,0,0,1,1.555-2.177,3.98,3.98,0,0,1,2.038-1.28c1.82-.189,4-.019,6.463-.125.231-.01.293.345.311.576a10.224,10.224,0,0,1,0,3.421,13.3,13.3,0,0,1-2.373,3.386,23.526,23.526,0,0,0-1.866,2.2c-.62.916.307,2.165-.011,3.225a11.094,11.094,0,0,1-1.9,3.134c-.565.737-1.394,1.114-1.923,1.877a13.325,13.325,0,0,0-1.463,2.971,14.07,14.07,0,0,0-.726,2.8c-.122.751.236,1.6-.1,2.281-.249.5-.811.407-1.174.829a5.994,5.994,0,0,0-1.037,2.073,10.323,10.323,0,0,1-.75,2.186c-.5.9-1.494,1.765-1.946,2.687a14.973,14.973,0,0,0-.8,3.318c-.238,1.056-.438,2.05-.656,3.11a17.879,17.879,0,0,0-.518,3.94c.008.4.434.68.622,1.037.158.3.522.61.415.933-.147.441-.971.473-1.037.933a1.376,1.376,0,0,0,.4,1.244c.3.286.923.162,1.14.518a1.5,1.5,0,0,1,0,1.347c-.16.339-.721.256-.794.623-.3,1.492.068,2.554-.2,4.051ZM467.786,438.3c-.195-.618.291-.738.615-1.06a3.338,3.338,0,0,0,1.117-1.86,14.126,14.126,0,0,0,.515-1.485,4.4,4.4,0,0,0-.289-2.214c-.294-.7-.777-1.06-.6-1.725.062-.425,1.023-.478,1.781-.814a1.7,1.7,0,0,0,.865-.845c.166-.427-.386-.354-.667-.9-.3-.578-.344-1.442-.574-1.872a7.135,7.135,0,0,1-1.165-2.606c-.072-2.271.586-4.563.67-6.748.071-1.832.5-2.269.364-4.146a6.447,6.447,0,0,0-1.09-2.569,13.573,13.573,0,0,1-1.209-2.32c-.384-1.328,0-2.9-.231-4.263-.045-.267-.714-.594-.739-.864-.173-1.87.038-3.785-.082-5.635-.062-.348-.344-.414-.377-.766-.1-1.037,0-2.047,0-2.943,0-.791-.112-1.467-.112-2.386,0-.343-.284-.577-.3-.92-.069-2.022.015-4.256-.011-6.281-.029-2.157-.161-4.106.011-6.253.03-.362.762-.353.747-.716-.068-1.645-.21-2.3-.172-3.955,0-.191.4-.635.411-.825a11.087,11.087,0,0,0-.066-3.934c-.253-.854-.893-1.119-1.628-1.67-.648-.486-1.372-1.277-1.972-1.72a7.08,7.08,0,0,1-1.861-1.874c-.35-.511.227-.556.872-.575a14.205,14.205,0,0,1,2.519.171c.267.042.768.5,1.02.6.607.236,1-.07,1.626.124a32.016,32.016,0,0,1,2.989,1.489c.729.42.964,1.03,1.725,1.386.137.064,2.487.737,2.76.805.636.159,1.031-.306,1.668-.147.739.184,2.054.557,2.883.8.467.14.763.692,1.241.787,2.321.463,1.906-.311,3.745,1.528.541.542,1.436.977,1.839,1.628a15.355,15.355,0,0,1,.992,3.045,14.611,14.611,0,0,1,1.061,2.245c.4,2.226-.018,4.54.255,6.785.083.686.788,1.409.863,2.1a34.3,34.3,0,0,1,.008,7.852c-.108.885-.853,1.245-.986,2.126-.221,1.479.22,2.993.115,4.485a4.912,4.912,0,0,1-.821,2.07c-.274.444-.9.6-1.1,1.085-.528,1.262-.4,2.987-.64,4.355-.076,2.61-.023,4.635.09,7.243a30.047,30.047,0,0,1,.033,5.314c-.082.632-.611.979-.706,1.61-.261,1.744-.037,3.535-.206,5.29-.029.3-.471.644-.534.938a20.935,20.935,0,0,1-.929,5.75,7.1,7.1,0,0,1-2.654,3.081,10.678,10.678,0,0,1-3.359,1.118,10.446,10.446,0,0,0-2.3.459c-.416.216-.137.219-.517.491a.727.727,0,0,1-.8,0c-.292-.24-.2-.338-.542-.5a2.188,2.188,0,0,0-1.725,0c-.381.164-.242.461-.65.54a12.708,12.708,0,0,1-2.675.345c-.532-.013-.952.227-1.1-.254Zm7.719-59.055a3.306,3.306,0,0,1,2.41.429,4.246,4.246,0,0,1,1.935,1.977l1,.97a11.425,11.425,0,0,1,2.568,4.923c.092,1.893.5,5.209-.447,6.927a5.66,5.66,0,0,0-.738,2.247c-.223,2.036-.8,1.718-1.389,3.259a6.435,6.435,0,0,0-.139,1.931q-.077,5.316-.155,10.632a11.838,11.838,0,0,1-1.374,5.435,5.156,5.156,0,0,0-.819,2.778,6.7,6.7,0,0,1-.809,3.189q-.488,1.118-.977,2.238c-.386.884-.74,1.2-1,1.083s-.415-.672-.411-1.531q.034-6.49.068-12.978.074-6.9.148-13.8a2.305,2.305,0,0,0-.669-1.939,10.877,10.877,0,0,0-.819-3.58,6.012,6.012,0,0,1-.541-3.211q-.056-4.795-.112-9.59c-.023-1.962.421-1.291,2.263-1.388Zm-75.385,55a14.623,14.623,0,0,1-.014-4.43c.044-.312.674-.021.845-.284a1.644,1.644,0,0,0,.317-1.373c-.1-.262-.28.1-.431-.138a1.092,1.092,0,0,1,.105-1.161c.351-.446,1.055-.33,1.294-.845.327-.7-.234-1.585,0-2.323.075-.235.681.24.739,0,.274-1.129-.067-2.336.106-3.484.045-.3.309-.438.344-.739a13.118,13.118,0,0,0,0-3.8c-.138-.775-.764-1.332-.872-2.112a33.828,33.828,0,0,1-.147-8.737,38.92,38.92,0,0,1,2.507-7.655c.515-1.287.767-.886,1.23-2.193a2.015,2.015,0,0,0,.106-1.267c-.167-.5-.758-.884-.675-1.4.1-.639.888-.623,1.1-1.235.285-.832-.288-1.809,0-2.64.339-.978,1.508-1.54,1.8-2.534.274-.949-.02-2.465.248-3.416a22.625,22.625,0,0,1,2.075-4.82,32.012,32.012,0,0,0,1.887-2.957,18.889,18.889,0,0,0,.542-3.273c-.66-.825-2.174.326-3.168-.032-.5-.182-.5-1.006-1-1.2a4.183,4.183,0,0,0-2.851.473c-1.02.765-1.029,1.662-1.427,2.873-.6,1.81-.142,3.843-.886,5.6-.294.693-1.494.888-2.071,1.373-.3.256-.447.523-.845.523a.769.769,0,0,1-.845-.523,12.112,12.112,0,0,1,0-2.429c-.031-.637-.372-1.284-.211-1.9.084-.321.819-.2.845-.528.316-3.628-.118-7.233-.063-10.7.019-1.217.342-1.037,1.541-1.049,2.018-.021,5.217-.005,7.537-.017,4.07-.02,8.15-.172,12.209-.061.6.044,1.391.268,1.433.872.085,1.221-.733,2.4-1.3,3.485-.3.574-.969.949-1.189,1.557-.375,1.03.032,2.251-.363,3.273-.242.627-1.472.743-1.708,1.373-.335.89.243,1.966-.106,2.851-.173.439-1.11.188-1.267.634-.531,1.507-.219,3.209-.633,4.752-.23.852-.875,1.449-.991,2.323-.317,2.372.206,4.8,0,7.18-.045.518-.592.875-.74,1.373-.348,1.171-.567,2.436-.969,3.59-.173.5-.815.757-.95,1.267-.2.749.3,1.609,0,2.323-.376.9-1.7,1.265-1.9,2.218-.57,2.687.333,5.521-.087,8.236-.188,1.215-1.259,2.17-1.478,3.379-.283,1.558.2,3.4-.184,4.935-.375,1.482-1.449,2.767-1.988,4.2-.126,1.4-1.807,2.691-.891,3.751a8.4,8.4,0,0,0,4.224-.212c.591-.268-.093-1.507.422-1.9,1.577-1.2,3.386-1.639,5.155-2.534a21.135,21.135,0,0,0,3.187-1.689c.458-.35.511-1.181,1.055-1.373.328-.116.4.68.739.739,1.18.2,2.2-.3,3.361,0,.463.121.449.744.569,1.207.108.415.3.862.065,1.221-.139.216-.642-.025-.74.212a2.646,2.646,0,0,0,0,1.583c.1.4.462.647.5,1.056a32.851,32.851,0,0,1,0,6.442c-.05.448-.3.917-.752.963-3.046-.14-5.861.083-8.911.093-.314-.028-.134-.584-.423-.707a5.92,5.92,0,0,0-3.039-.193c-.971.222-1.052,1.021-2.029,1.216-1.76.352-3.794.007-5.569.276-.627.095-1.106.627-1.722.78-.854.213-2.2.441-2.64-.321ZM353.086,439.2c-1.317.462-2.853,0-4.249.031-.43.009-1.13.347-1.544.225-.451-.132-1.162-1.026-.88-1.4,1.1-1.469,3.273-1.652,4.279-3.187.591-.9.037-2.118.292-3.167.078-.322.643-.292.809-.578a.759.759,0,0,0,0-.809c-.4-.468-.655.514-.813-.888a18.518,18.518,0,0,1-.055-3.78c.073-.8.653-.629.763-1.05.2-.783-.221-1.364-.01-2.146.094-.351.745-.263.925-.578a1.06,1.06,0,0,0,0-1.041c-.394-.591-1.465-.582-1.584-1.281a21.531,21.531,0,0,1-.079-3.948c.024-1.361-.069-2.725.044-4.112.021-.257.6-.246.694-.488a3.181,3.181,0,0,0,0-1.5c-.052-.4.071-1.214.04-1.615-.047-.616-.312-.845-.025-1.392.2-.381.85-.152.91-.578.316-2.252-.359-4.561-.116-6.823.041-.383.644-.322.746-.694a2.737,2.737,0,0,0-.052-1.85c-.125-.265-.716-.266-.739-.559-.26-3.3.192-6.429-.07-9.733-.025-.31-.785.125-.8-1.218-.016-1.408-.145-2.72-.126-3.754.015-.794,1.727-.815,1.709-1.609a19.478,19.478,0,0,0-.116-3.816c-.09-.4-.61-.333-.784-.7a1.265,1.265,0,0,1,.141-1.051c.18-.427.669-.7.784-1.147a5.441,5.441,0,0,0,0-2.544c-.062-.27-.529-.535-.659-.78-.24-.454-.132-.855-.453-1.256-.222-.277-.876-.107-1.146-.337-.694-.593-1.095-1.252-1.677-1.792a7.214,7.214,0,0,1-1.707-1.636,1.492,1.492,0,0,1,.483-1.644,1.2,1.2,0,0,1,1.237,0c.3.162.3.807.638.855,1.49.208,2.97-.448,4.44-.125.641.141.675.95,1.272,1.221.4.181,1.12-.169,1.483.076a11.376,11.376,0,0,1,1.407,1.556c.541.551,1.007.8,1.283,1.576a8.415,8.415,0,0,1,.18,3.019c-.013.9.134,1.819.051,2.737-.028.309-.621.163-.7.463a2.1,2.1,0,0,0,.231,1.584c.2.343.736.168.865.543a5.24,5.24,0,0,1,.116,2.846c-.083.334-.729.119-.749.463a81.448,81.448,0,0,0,.116,13.067c.075.737,1.239,1,1.317,1.735.436,4.1.039,8.253-.131,12.373a4.588,4.588,0,0,1-.553,1.76,2.8,2.8,0,0,0-.091,1.517,16.847,16.847,0,0,0,.036,2.158c.06.4.883.789.855,1.2a17.357,17.357,0,0,0,.151,2.764c.033.534-.939.867-1.247,1.3a1.421,1.421,0,0,0-.176,1.262c.17.32.476.158.573.508a1.675,1.675,0,0,1-.1,1.363c-.161.289-.753.251-.81.577-.157.915.362,1.857.231,2.776-.039.275-.653.187-.694.462-.206,1.372.233,2.795,0,4.163-.088.517-.888.749-.925,1.272-.021.292.671.089.809.347.218.41-.33,1.258.116,1.388a9.48,9.48,0,0,0,4.8-.07c.844-.222,1.2-1.406,2.071-1.488,1.048-.1,1.82.593,2.856.778a9.8,9.8,0,0,0,4.2-.07c.79-.213,1.25-1.052,2.061-1.16,3.514-.472,6.776-.182,10.322-.2,3.353-.018,7.642-.187,10.131.084,1.42.047-.12,5.069.392,7.722.111.577.6.9.9,1.435.473.852.656,1.286-.572,1.281-2.31-.011-4.646.167-7.152.061-.492-.021-.469-.97-.925-1.157-.5-.2-1.093.243-1.619.116-.787-.19-1.675-.945-2.479-1.041-2.143-.257-4.3.28-6.441-.015-.485-.067-.552-1.006-1.041-1.042-5-.365-9.786.16-14.788-.113-1.072-.059-1.169-.432-1.849-.63a6.237,6.237,0,0,0-3.59.036c-1.689.791-1.684,2.286-3.444,2.9Zm60.157-19.539c-1.044-.031-1.113-1.708-1.031-2.736.085-1.052,1.459-1,1.949-1.931.357-.68-.178-1.876.23-2.528.438-.7,1.627-.676,2.066-1.378.251-.4-.124-1.17-.112-1.643.028-1.12.279-1.944.227-3.063a12.022,12.022,0,0,1-.159-2.2c.151-.781.617-.592.847-1.353.287-.953-.19-2.037.114-2.984.121-.375,1.1-.187,1.033-.574-.085-.471-.945-.218-1.03-.689a10.674,10.674,0,0,1,.112-4.528c.242-.879,1.239-1.552,1.493-2.428.265-.919-.3-1.96,0-2.87.2-.617,1.22-.748,1.377-1.377.37-1.485.04-3.307.426-4.788a4.987,4.987,0,0,1,1.106-2.145,2.142,2.142,0,0,0,.707-.966c.191-.631-.279-1.162-.171-1.813.1-.576.535-.945.814-1.458.353-.647.5-1.466.839-2.119a21.866,21.866,0,0,0,1.513-2.771c.265-.758-.3-1.994.035-2.722.48-1.031,1.719-1.006,2.191-2.04.382-.836-.286-1.928.115-2.755a1.787,1.787,0,0,1,1.617-.895,1.363,1.363,0,0,1,1.252.78c.328.9.032,1.985.4,2.87.652,1.556,1.782,2.473,2.409,4.039.326.817-.027,1.991.173,2.848.272,1.165.462,2.339.847,3.474.478,1.412,1.162,2.782,1.564,4.217.355,1.27.441,2.649.714,3.942a20.967,20.967,0,0,0,.892,2.716c.139.389.609.29.722.689.2.7-.394,1.469-.23,2.181.2.851,1.112,1.713,1.262,2.573a27.134,27.134,0,0,1,.024,4.143,32.761,32.761,0,0,0,.338,3.734c.1.763.527,1.851.547,2.406.071,2.066.163,4.1.185,6.168.035,3.023.035,6.254-.116,9.271-.018.352-.437.532-.561.863a22.609,22.609,0,0,0-1.161,3.245,10.417,10.417,0,0,1-.459,2.066c-.181.393-.989.715-1.126,1.126-.3.914.069,1.833,0,2.974a6.459,6.459,0,0,1-.872,2.459,17.937,17.937,0,0,0-.908,2.247c-.188.706.15,1.48-.057,2.181-.109.366-.609.543-.689.918-.2.936.172,1.957-.115,2.869-.162.517-.274.442-.767.664-.35.156-1.268.335-1.321-.046-.222-1.6.228-2.707-.026-4.3-.3-1.865-1.077-3-1.547-4.83-.228-.888.18-2.494-.242-3.308-.76-1.467-3.192-2.06-3.086-3.708.1-1.594,1.055-2.632,2.026-3.929a16.188,16.188,0,0,0,1.507-3.351,6.9,6.9,0,0,0,.494-2.356,2.4,2.4,0,0,0-1.109-2.26,36.937,36.937,0,0,0-6.708-3.785c-.317-.154-.689.451-.689.8s.413.627.454.977c.12,1.029-.5,2.1-.057,3.03.47.987,2.326,1.274,2.051,2.332a1.692,1.692,0,0,1-.96,1.3,2.515,2.515,0,0,1-1.2.215c-1.278.059-2.593-.394-3.828-.133a16,16,0,0,0-3.781,1.521,5.7,5.7,0,0,1-2.567.922Zm11.306-16.048c-.011-1.013-.036-2.009-.034-3,0-.879.024-1.759.093-2.648.045-.578.574-1.019.642-1.595.114-.952-.47-2.094-.2-3.009.107-.371,1.049,0,1.262-.311.07-.1.213-.7.451-1.206.143-.3.441-.578.441-.7a21.307,21.307,0,0,1,.116-2.425c.074-.608.168-1.121.26-1.125s.184.5.506.919c.371.482.5.961.82,1.471a1.788,1.788,0,0,0,.713.778c.4.156.884-.064,1.285.1.3.121.373.591.642.778.182.127.6-.115.642.117.19,1.042.026,2.437.191,3.484.04.251.595.134.607.389q.127,2.735.12,5.476-.008,2.417-.131,4.834c-.023.459-1.235.491-1.574.233a5.09,5.09,0,0,0-1.926-1.284c-.357-.086-.34-.651-.678-.764a8.325,8.325,0,0,0-2.485-.313,16.259,16.259,0,0,1-1.762.117c-.094-.012,0-.208,0-.311Zm24.377-31.426c0,1.049.114,2.186.117,3.284.005,1.414-.1,2.68-.093,4.1.005,1.517.118,3.193.118,4.677,0,1.206-.22,3.525-.127,4.527.119,1.288.19,1.511,1.952,1.511a5.075,5.075,0,0,0,2.859-1.758c.583-.6.5-1.649.718-2.1a7.325,7.325,0,0,0,1.01-2.041c.15-.991-.212-1.809.449-2.443a15.234,15.234,0,0,0,.506-3.723c0-.893-.938-2.216-2.015-3.4-.737-.81-1.621-1.538-2-2.093a3.214,3.214,0,0,0-2.026-1.645c-1.495-.334-1.472-.2-1.471,1.1Zm-7.891,55.859c-.279,1.1.569,1.551,1.573,2.2a37.384,37.384,0,0,1,3.252,2.391c1.847,1.513,3.1,4.275,4.3,6.994.619-.658.182-3.723.529-5.56.074-.393.5-.677.538-1.076a19.408,19.408,0,0,0,0-4.3c-.067-.531-.581-.919-.717-1.435a2.8,2.8,0,0,1,0-1.256c.1-.5.492-.926.537-1.435a18.659,18.659,0,0,0,0-4.483c-.084-.558-.939-.873-.9-1.435.036-.465,1.042-.431,1.077-.9a20.277,20.277,0,0,0-.529-3.946c-.373-2.981-.59-5.979-.9-8.967a12.2,12.2,0,0,1-.358-3.228c.561-1.456,1.074-2.951,1.614-4.125.264-.346.611.33.879.673.874,1.116,2.035,2.5,2.286,3.892.308,1.71-.619,3.223-.421,4.949.058.5.834.413,1.013.888a39.074,39.074,0,0,1,1.973,6.994,57.442,57.442,0,0,1,.717,8.25,11.38,11.38,0,0,1-.359,3.586c-.49,1.644-1.511,2.954-2.017,4.542-.53,1.661-.7,2.157,1.057,2.156a4.961,4.961,0,0,1,2.045.3c1.439.719,2.033,2.379,3.4,3.228.3.183.681.437,1.088.665,1.937,1.085,2.15.336,2.554-1.361.532-2.243.667-4.266,1.012-6.478a30.567,30.567,0,0,0,.188-3.407c.07-1.617.191-3.226.108-4.843a3.445,3.445,0,0,0-.529-2.151c-.372-.429-1.468.009-1.614-.538-.2-.75.882-1.375.9-2.152a47.781,47.781,0,0,1-.6-6.04c-.04-2.436-.562-1.21-1.37-2.165a2.984,2.984,0,0,1-.716-1.838c-.225-2.2.094-4.637-.243-6.824a5.464,5.464,0,0,0-1.255-2.69c-.235-.271-.665.132-.826-.188-.269-.537.557-.905.242-1.417a11.32,11.32,0,0,0-3.425-2.869c-.348-.232-.96.3-1.256,0a1.406,1.406,0,0,1,0-1.507,6.212,6.212,0,0,0,4.142-2.439,15.245,15.245,0,0,0,2.727-5.317c.317-.91-.089-1.974.018-2.932.2-1.772,1.126-3.382.816-5.138a18.465,18.465,0,0,0-3.156-6.994,8.658,8.658,0,0,0-3.354-2.869c-1.086-.514-1.995-.084-3.148-.421-1.335-.391-2.4-1.137-3.766-1.416-1.06-.217-2.173.225-3.228-.018-.659-.152-.766-.892-1.435-1-.461-.071-.933.6-1.4.636-3.217.272-5.857-.351-9.058.072-.478.063-.342.6.055.87.592.41,1.492.207,2.152.493a8.569,8.569,0,0,1,2.977,2.152,13.355,13.355,0,0,1,1.685,2.869c.272.5,1.053-.458,1.615-.538.709-.1,1.2-.12,1.65.44.4.5-.43,1.172-.9,1.6a19.805,19.805,0,0,1-2.463,1.92c-.581.4-1.609.755-2.04,1.532-.957,1.724.178,3.685.547,5.622.135.707.289,1.4.45,2.1.521,2.279.346,4.176.663,6.492.1.749.634,1.4.717,2.152.1.893-.062,1.551.072,2.439a11.244,11.244,0,0,0,.466,1.148,25.381,25.381,0,0,1,.9,5.4c.183,5.557-.146,11,.134,16.553.026.505.784.705.888,1.2a4.994,4.994,0,0,1-.609,2.394c-1.061,3.039-2.306,5.312-2.96,7.9Z" transform="translate(0 0)"/><path class="c" d="M650.07,363.862h-.159v.8h.222a.546.546,0,0,0,.36-.1.373.373,0,0,0,.122-.3.342.342,0,0,0-.131-.3.715.715,0,0,0-.415-.094Zm.161-.657a1.972,1.972,0,0,1,1.094.252.827.827,0,0,1,.378.734.9.9,0,0,1-.178.558,1.026,1.026,0,0,1-.5.347l.736,1.464h-1.153l-.594-1.287h-.1v1.287h-1.056v-3.356Zm2.434,1.748a2.438,2.438,0,0,0-.186-.944,2.4,2.4,0,0,0-.531-.8,2.467,2.467,0,0,0-.8-.543,2.442,2.442,0,0,0-.946-.183,2.494,2.494,0,0,0-.95.179,2.3,2.3,0,0,0-.783.53,2.522,2.522,0,0,0-.545.813,2.427,2.427,0,0,0-.19.944,2.386,2.386,0,0,0,.187.939,2.539,2.539,0,0,0,1.339,1.342,2.442,2.442,0,0,0,1.884,0,2.536,2.536,0,0,0,.815-.548,2.312,2.312,0,0,0,.53-.782,2.463,2.463,0,0,0,.179-.947Zm-2.474-3.1a3.177,3.177,0,0,1,1.206.231,3.03,3.03,0,0,1,1.009.674,3.076,3.076,0,0,1,.663,1,3.157,3.157,0,0,1,.233,1.2,3.1,3.1,0,0,1-.229,1.191,2.89,2.89,0,0,1-.667.981,3.339,3.339,0,0,1-1.031.688,3.03,3.03,0,0,1-1.184.241,3,3,0,0,1-1.173-.235,3.139,3.139,0,0,1-1.006-.685,3.077,3.077,0,0,1-.681-1,3.025,3.025,0,0,1-.235-1.177,3.073,3.073,0,0,1,.237-1.194,3.191,3.191,0,0,1,.688-1.023,2.9,2.9,0,0,1,.982-.661,3.124,3.124,0,0,1,1.189-.227Z" transform="translate(-159.609 -0.146)"/></g></svg>