<svg xmlns="http://www.w3.org/2000/svg" viewBox="0 0 170.489 111.413" width="170.489" height="111.413"><defs><style>.a{fill:#fff;fill-rule:evenodd;}</style></defs><g transform="translate(-12.488 -36.905)"><path class="a" d="M121.394,36.9,83.508,96.624H42.089l9.632-14.769H77.407l9.311-14.77H29.247l-9.31,14.77H33.742L14.8,111.394H92.176l29.217-46.556,10.6,17.017H123l-9.633,14.769H141.3l9.312,14.77h17.979L121.394,36.9Z" transform="translate(-0.062)"/><path class="a" d="M109.533,37.235h-61L39.218,52h61Z" transform="translate(-0.722 -0.009)"/><path class="a" d="M174.631,126.484h-1.285v-5.136h-1.284v-.963h3.852v.963h-1.282Zm6.742-3.852-1.605,3.852h-.321l-1.605-3.852-.643,3.852h-1.284l1.284-6.422h.964l1.605,4.174,1.284-4.174h.964l.961,6.422h-1.282l-.322-3.852ZM17.946,125.52v19.266H35.6v-6.743h-9.31v-5.138H41.063v10.6c0,5.778-1.605,7.064-6.1,7.064h-16.7c-4.5,0-5.779-1.284-5.779-7.064V127.448c0-5.778,1.284-7.385,5.779-7.385h16.7c4.494,0,6.1,1.605,6.1,7.064v1.926H35.6V125.52H17.946Zm34.676,12.844,5.458-12.2,5.137,12.2Zm-10.916,12.2h5.779l2.89-6.743H65.466l2.89,6.743h6.422l-13.805-30.5H55.514Zm36.28-30.5h4.5l11.238,18.622,11.237-18.622h4.5v30.5h-5.138V131.622a16.484,16.484,0,0,1,.321-3.212,29.1,29.1,0,0,1-1.6,3.212l-8.991,15.41H92.756l-8.989-15.41a9.612,9.612,0,0,1-1.284-3.212v22.155h-4.5v-30.5h0Zm36.6,0h24.721V125.2H120.368v7.064h10.916V137.4H120.368v7.385h19.264v5.778H114.59v-30.5Zm47.839,12.522H150.55V125.2h13.805v4.175h5.457v-2.249c0-5.136-1.926-6.743-8.027-6.743H152.8c-6.1,0-8.027,1.605-8.027,7.385v2.57c0,5.778,1.926,7.385,8.027,7.385h11.558v7.706h-14.77v-4.5h-6.1v2.249c0,5.778,1.926,7.385,8.027,7.385h10.916c6.1,0,8.027-1.605,8.027-7.385v-3.212c0-5.779-1.926-7.385-8.026-7.385Z" transform="translate(0 -2.248)"/></g></svg>