<svg xmlns="http://www.w3.org/2000/svg" viewBox="0 0 210.739 60.535"><defs><style>.a{fill:#f5f5f5;}.b{fill:#40b9a6;}</style></defs><g transform="translate(-321.5 -420)"><g transform="translate(391.456 431.35)"><path class="a" d="M524.674,461.918V450h3.216v30.419h-3.216v-2.913a10.6,10.6,0,0,1-15.134-.076,11.009,11.009,0,0,1,0-15.4,10.316,10.316,0,0,1,7.6-3.178A9.908,9.908,0,0,1,524.674,461.918Zm-2.194,13.2a7.423,7.423,0,0,0,2.194-5.41,7.509,7.509,0,0,0-2.194-5.448,7.064,7.064,0,0,0-5.3-2.232,7.35,7.35,0,0,0-5.335,2.232,7.509,7.509,0,0,0-2.194,5.448,7.363,7.363,0,0,0,2.194,5.41,7.145,7.145,0,0,0,5.335,2.232A6.928,6.928,0,0,0,522.48,475.122Z" transform="translate(-506.4 -450)"/><path class="a" d="M577.492,450.568A1.918,1.918,0,1,1,576.13,450,2.018,2.018,0,0,1,577.492,450.568Zm-2.913,29.852h3.14V459.042h-3.14Z" transform="translate(-548.548 -450)"/><path class="a" d="M615.214,491.815l-.113,1.173a10.6,10.6,0,0,1-3.594,6.621,10.228,10.228,0,0,1-7,2.648,11.138,11.138,0,0,1-5.41-1.438,10.832,10.832,0,0,1-4.048-3.784l2.724-1.7a7.309,7.309,0,0,0,2.913,2.648A7.963,7.963,0,0,0,604.545,499a7.172,7.172,0,0,0,5.221-2.157,7.707,7.707,0,0,0,2.27-5.3,10.642,10.642,0,0,1-15.1-.076,10.381,10.381,0,0,1-3.14-7.529,10.506,10.506,0,0,1,3.14-7.529,10.553,10.553,0,0,1,15.1-.076v-2.989h3.216v18.463Zm-10.707-.341A7.558,7.558,0,0,0,612,483.983v-.038a7.245,7.245,0,0,0-2.194-5.221,7.063,7.063,0,0,0-5.3-2.232,7.491,7.491,0,0,0,0,14.983Z" transform="translate(-560.733 -464.422)"/><path class="a" d="M664.692,450.568A1.918,1.918,0,1,1,663.33,450,2.018,2.018,0,0,1,664.692,450.568Zm-2.913,29.852h3.14V459.042h-3.14Z" transform="translate(-602.756 -450)"/><path class="a" d="M705.565,473.8l-6.924,21.377h-2.989l-4.389-13.583-4.389,13.583h-2.989L677,473.8h3.329l5.07,15.777,4.389-13.583h2.989l4.389,13.583,5.108-15.777Z" transform="translate(-612.454 -464.795)"/><path class="a" d="M777.452,494.9h-3.216V491.99a10.642,10.642,0,0,1-15.1-.076A10.747,10.747,0,0,1,756,484.2a10.623,10.623,0,0,1,3.14-7.718,10.376,10.376,0,0,1,7.6-3.178,10.235,10.235,0,0,1,7.491,3.14v-2.913h3.216Zm-10.707-3.027a7.1,7.1,0,0,0,5.3-2.27,7.423,7.423,0,0,0,2.194-5.41v-.038a7.363,7.363,0,0,0-2.194-5.41,7.1,7.1,0,0,0-5.3-2.27,7.181,7.181,0,0,0-5.335,2.27,7.509,7.509,0,0,0-2.194,5.448,7.363,7.363,0,0,0,2.194,5.41A7.181,7.181,0,0,0,766.745,491.877Z" transform="translate(-661.565 -464.485)"/><path class="a" d="M839.974,461.918V450h3.216v30.419h-3.216v-2.913a10.6,10.6,0,0,1-15.134-.076,11.009,11.009,0,0,1,0-15.4,10.316,10.316,0,0,1,7.6-3.178A9.963,9.963,0,0,1,839.974,461.918Zm-2.232,13.2a7.423,7.423,0,0,0,2.194-5.41,7.51,7.51,0,0,0-2.194-5.448,7.064,7.064,0,0,0-5.3-2.232,7.35,7.35,0,0,0-5.335,2.232,7.509,7.509,0,0,0-2.194,5.448,7.363,7.363,0,0,0,2.194,5.41,7.145,7.145,0,0,0,5.335,2.232A6.873,6.873,0,0,0,837.742,475.122Z" transform="translate(-702.407 -450)"/></g><path class="b" d="M351.768,420a30.268,30.268,0,1,0,30.268,30.268A30.308,30.308,0,0,0,351.768,420ZM324.64,450.268a27.164,27.164,0,0,1,25.614-27.09v15.7l-12.712-6.356v16.118l14.226,7.113,11.2-5.6v9.307l-11.2,5.6-11.161-5.6v-5.978l-3.065-1.513v9.421l12.712,6.356V477.4A27.224,27.224,0,0,1,324.64,450.268Zm28.679,27.09V467.71l12.712-6.356V445.236l-14.226,7.113-11.2-5.6v-9.307l11.2,5.6,11.2-5.6v6.016l3.065-1.513v-9.421l-12.712,6.356v-15.7a27.131,27.131,0,0,1-.038,54.179Z"/></g></svg>