<?xml version="1.0" encoding="utf-8"?>
<!-- Generator: Adobe Illustrator 22.1.0, SVG Export Plug-In . SVG Version: 6.00 Build 0)  -->
<svg version="1.1" id="Слой_1" xmlns="http://www.w3.org/2000/svg" xmlns:xlink="http://www.w3.org/1999/xlink" x="0px" y="0px"
	 viewBox="0 0 51.4 31.5" style="enable-background:new 0 0 51.4 31.5;" xml:space="preserve">
<style type="text/css">
	.st1{fill:#f5f5fd;}
	.st2{fill:#D5D5D5;}
</style>
<g transform="translate(0 0.326)" class="st0">
	<path class="st1" d="M0.1,0.5c3.8,1.7,7.7,3,11.6,3.8c3.5,0.7,7,1.1,10.5,1.1c8.7,0,15.8-2.1,20.9-3.7c2.7-0.8,4.9-1.5,6.3-1.5
		c0.5,0,0.9,0.1,1.1,0.2c0.8,0.5,0.6,2,0.3,2.8c-0.5,1.9-1.9,4.3-3.9,6.9c-2.2,2.8-4.9,5.6-7.9,8c-3.5,2.8-7.2,5-11,6.6
		c-4.4,1.8-8.8,2.8-13.1,2.8l-0.5,0l0,0.5l0.2-1.1c0,4.1-8.4,1.3-11.2,4.1C0.8,33.9,0.1,0.5,0.1,0.5"/>
	<path class="st2" d="M49.2,0.7c-1.3,0-3.4,0.6-6.1,1.5c-5.2,1.6-12.3,3.7-21,3.7c-3.6,0-7.1-0.4-10.6-1.1C7.5,3.9,0.7,1.3,0.1,1
		l14.1,26l-0.5,0l1,0c4.3-0.1,8.6-1,12.9-2.8c3.8-1.6,7.4-3.8,10.9-6.5c3-2.4,5.7-5.1,7.8-7.9c1.9-2.5,3.3-4.9,3.8-6.7
		c0.3-1.2,0.3-2-0.1-2.3C49.9,0.7,49.6,0.7,49.2,0.7 M49.2-0.3c0.6,0,1,0.1,1.4,0.3c4.8,3.1-13,27.7-35.8,28L0.1,1L0,0
		c8.1,3.6,15.5,4.8,22,4.8C35.5,4.8,45.1-0.3,49.2-0.3z"/>
</g>
<path class="st1" d="M0.1,1.4c3.7,1.6,7.5,3.3,11.3,4c3.4,0.7,6.8,1,10.2,1c8.5,0,15.3-2,20.3-3.4c2.7-0.8,4.8-1.4,6.1-1.4
	c0.5,0,0.8,0.1,1.1,0.2c0.8,0.5,0.5,1.9,0.3,2.6c-0.5,1.8-1.9,4-3.8,6.4c-2.1,2.6-4.8,5.2-7.7,7.4c-3.4,2.6-7,4.6-10.7,6.1
	C23,26.1,18.8,27,14.5,27l-0.3,0.3l-0.2,0.1l0.2-1.1c0,3.8-8.2,1.2-10.9,3.9C0.8,33,0.1,1.9,0.1,1.9"/>
</svg>
