<svg xmlns="http://www.w3.org/2000/svg" viewBox="0 0 226.918 75.207" width="226.92" height="75.21"><defs><style>.a{fill:#fff;fill-rule:evenodd;}</style></defs><g transform="translate(-0.502 -0.5)"><g transform="translate(0.502 0.5)"><path class="a" d="M-754.445-88.233l-9.076-9.075H-780.38V-108.98h-14.266v53.165h14.266V-83.047h11.668v27.232h14.266Zm-45.385-9.075h-22.044l-9.078,9.075v23.34l9.078,9.079h22.044V-70.077h-16.859v-12.97h16.859Zm-36.309,0h-11.668V-108.98h-14.266v44.086L-853-55.814h16.857V-70.077h-11.668v-12.97h11.668ZM-867.26-108.98h-14.262v6.486h14.262Zm0,11.672h-14.262v41.493h14.262Zm-19.449,0h-14.264v27.231h-5.186V-97.308h-14.264v27.231h-5.185V-97.308h-14.266v41.493h44.089l9.075-9.079Zm-58.351,0h-11.669V-108.98h-14.264v44.086l9.077,9.079h16.856V-70.077h-11.669v-12.97h11.669Zm195.8,6.481v38.9l-19.449,12.968h-12.966v-6.486l-9.077,6.486h-11.669v-6.486l-6.482,6.486h-20.748l-6.486-6.486-1.3,6.486h-18.151l-7.423-6.486-.416,6.486H-884l-.728-6.486-5.569,6.486h-31.424l-6.484-2.594v2.594H-945.06l-19.451-11.673L-976.181-62.3v-51.869h24.639l11.669,11.671h53.164v-11.671h44.087v11.671h11.67v6.482l6.486-6.482H-811.5l11.672-11.671h24.637v11.671h14.264Z" transform="translate(976.181 114.165)"/></g></g></svg>