<svg xmlns="http://www.w3.org/2000/svg" xmlns:xlink="http://www.w3.org/1999/xlink" viewBox="0 0 1455.4 1084.9"><defs><style>.a{opacity:0.31;}.b{opacity:0.6;}.c{fill:url(#a);}.d{fill:url(#b);}.e{fill:url(#c);}.f{fill:url(#d);}.g{fill:url(#e);}.h{fill:url(#f);}.i{fill:url(#g);}.j{fill:url(#h);}.k{fill:url(#i);}.l{fill:url(#j);}.m{fill:url(#k);}.n{fill:url(#l);}.o{fill:url(#m);}.p{fill:url(#n);}.q{fill:url(#o);}.r{fill:url(#p);}.s{fill:url(#q);}.t{fill:url(#r);}.u{fill:url(#s);}.v{fill:url(#t);}.w{fill:url(#u);}.x{fill:url(#v);}.y{fill:url(#w);}.z{fill:url(#x);}.aa{fill:url(#y);}.ab{fill:url(#z);}.ac{fill:url(#aa);}.ad{fill:url(#ab);}.ae{fill:url(#ac);}.af{fill:url(#ad);}.ag{fill:url(#ae);}.ah{fill:url(#af);}.ai{fill:url(#ag);}.aj{fill:url(#ah);}.ak{fill:url(#ai);}.al{fill:url(#aj);}.am{fill:url(#ak);}.an{fill:url(#al);}.ao{fill:url(#am);}.ap{fill:url(#an);}.aq{fill:url(#ao);}.ar{fill:url(#ap);}.as{fill:url(#aq);}.at{fill:url(#ar);}.au{fill:url(#as);}.av{fill:url(#at);}.aw{fill:url(#au);}.ax{fill:url(#av);}.ay{fill:url(#aw);}.az{fill:url(#ax);}.ba{fill:url(#ay);}.bb{fill:url(#az);}.bc{fill:url(#ba);}.bd{fill:url(#bb);}.be{fill:url(#bc);}</style><radialGradient id="a" cx="1489.064" cy="396.158" r="1269.393" gradientTransform="translate(76.458 25.392) scale(0.936 0.936)" gradientUnits="userSpaceOnUse"><stop offset="0.065" stop-color="#40b9a6"/><stop offset="0.35" stop-color="#00aaa2"/><stop offset="0.418" stop-color="#00a299"/><stop offset="0.618" stop-color="#008f84"/><stop offset="0.814" stop-color="#008377"/><stop offset="1" stop-color="#007f73"/></radialGradient><radialGradient id="b" cx="1194.759" cy="503.696" r="1348.757" gradientTransform="translate(229.692 104.412) scale(0.793 0.793)" xlink:href="#a"/><radialGradient id="c" cx="1467.366" cy="690.917" r="1323.083" gradientTransform="translate(116.964 66.635) scale(0.904 0.904)" xlink:href="#a"/><radialGradient id="d" cx="1241.916" cy="419.527" r="1277.922" gradientTransform="translate(120.253 49.615) scale(0.882 0.882)" xlink:href="#a"/><radialGradient id="e" cx="1171.773" cy="652.246" r="1516.434" gradientTransform="translate(252.551 147.343) scale(0.774 0.774)" xlink:href="#a"/><radialGradient id="f" cx="1443.982" cy="576.316" r="1439.53" gradientTransform="translate(149.022 70.173) scale(0.878 0.878)" xlink:href="#a"/><radialGradient id="g" cx="1265.308" cy="338.931" r="1123.206" gradientTransform="translate(59.921 21.013) scale(0.938 0.938)" xlink:href="#a"/><radialGradient id="h" cx="1154.308" cy="664.845" r="1194.308" gradientTransform="translate(17.733 12.224) scale(0.982 0.982)" xlink:href="#a"/><radialGradient id="i" cx="1154.279" cy="664.836" r="1540.844" gradientTransform="translate(269.007 159.005) scale(0.761 0.761)" xlink:href="#a"/><radialGradient id="j" cx="1419.019" cy="468.858" r="292.008" gradientTransform="translate(7.346 1473.169) scale(4.086 4.086)" xlink:href="#a"/><radialGradient id="k" cx="1419.371" cy="468.861" r="1391.503" gradientTransform="translate(175.375 66.885) scale(0.857 0.857)" xlink:href="#a"/><radialGradient id="l" cx="1178.018" cy="372.895" r="1462.225" gradientTransform="translate(289.541 92.604) scale(0.752 0.752)" xlink:href="#a"/><radialGradient id="m" cx="1393.775" cy="640.604" r="1465.066" gradientTransform="translate(194.357 101.441) scale(0.842 0.842)" xlink:href="#a"/><radialGradient id="n" cx="1357.785" cy="493.961" r="2332.292" gradientTransform="translate(123.267 -237.937) scale(0.46 0.46)" xlink:href="#a"/><radialGradient id="o" cx="1358.041" cy="493.961" r="1018.456" gradientTransform="translate(-50.341 -26.682) scale(1.054 1.054)" xlink:href="#a"/><radialGradient id="p" cx="1203.12" cy="352.987" r="1502.005" gradientTransform="translate(303.256 89.225) scale(0.747 0.747)" xlink:href="#a"/><radialGradient id="q" cx="1367.802" cy="768.788" r="1395.738" gradientTransform="translate(206.475 130.26) scale(0.831 0.831)" xlink:href="#a"/><radialGradient id="r" cx="1414.387" cy="405.169" r="948.444" gradientTransform="translate(-105.955 -45.998) scale(1.114 1.114)" xlink:href="#a"/><radialGradient id="s" cx="1227.46" cy="589.544" r="1666.385" gradientTransform="translate(312.411 150.05) scale(0.745 0.745)" xlink:href="#a"/><radialGradient id="t" cx="1340.971" cy="545.9" r="1383.628" gradientTransform="translate(213.064 96.623) scale(0.823 0.823)" xlink:href="#a"/><radialGradient id="u" cx="1254.039" cy="430.272" r="1605.064" gradientTransform="translate(313.255 108.058) scale(0.749 0.749)" xlink:href="#a"/><radialGradient id="v" cx="1250.905" cy="562.714" r="1523.178" gradientTransform="translate(200.177 100.825) scale(0.821 0.821)" xlink:href="#a"/><radialGradient id="w" cx="1250.323" cy="562.71" r="1870.313" gradientTransform="translate(412.356 -22.076) scale(0.668 0.668)" xlink:href="#a"/><radialGradient id="x" cx="1442.317" cy="593.896" r="862.719" gradientTransform="translate(-191.762 -129.812) scale(1.219 1.219)" xlink:href="#a"/><radialGradient id="y" cx="1280.127" cy="455.729" r="1622.656" gradientTransform="translate(308.631 111.529) scale(0.755 0.755)" xlink:href="#a"/><radialGradient id="z" cx="1289.05" cy="536.51" r="1458.95" gradientTransform="translate(203.874 94.961) scale(0.823 0.823)" xlink:href="#a"/><radialGradient id="aa" cx="1405.612" cy="482.206" r="1019.677" gradientTransform="translate(-120.223 -63.824) scale(1.132 1.132)" xlink:href="#a"/><radialGradient id="ab" cx="1405.559" cy="482.21" r="1305.077" gradientTransform="translate(5.966 -59.11) scale(0.885 0.885)" xlink:href="#a"/><radialGradient id="ac" cx="1307.829" cy="509.917" r="1631.704" gradientTransform="translate(296.249 119.122) scale(0.766 0.766)" xlink:href="#a"/><radialGradient id="ad" cx="1215.08" cy="624.003" r="221.946" gradientTransform="translate(866.498 -2287.993) scale(4.667 4.667)" xlink:href="#a"/><radialGradient id="ae" cx="1263.087" cy="623.816" r="1249.784" gradientTransform="translate(191.63 107.002) scale(0.828 0.828)" xlink:href="#a"/><radialGradient id="af" cx="1586.62" cy="509.036" r="2046.357" gradientTransform="translate(130.872 185.878) scale(0.553 0.553)" xlink:href="#a"/><radialGradient id="ag" cx="1587.825" cy="509.039" r="897.603" gradientTransform="translate(-259.322 -132.986) scale(1.261 1.261)" xlink:href="#a"/><radialGradient id="ah" cx="1587.745" cy="509.028" r="1104.686" gradientTransform="translate(-4.789 12.762) scale(1.025 1.025)" xlink:href="#a"/><radialGradient id="ai" cx="1054.861" cy="482.219" r="1412.849" gradientTransform="translate(215.572 105.283) scale(0.782 0.782)" xlink:href="#a"/><radialGradient id="aj" cx="1352.136" cy="598.713" r="312.396" gradientTransform="translate(156.179 -1478.024) scale(3.469 3.469)" xlink:href="#a"/><radialGradient id="ak" cx="1353.608" cy="598.708" r="1114.655" gradientTransform="translate(28.266 16.686) scale(0.972 0.972)" xlink:href="#a"/><radialGradient id="al" cx="1368.218" cy="535.002" r="272.37" gradientTransform="translate(-2732.072 579.98) scale(4.611 4.611)" xlink:href="#a"/><radialGradient id="am" cx="1361.503" cy="535" r="1566.795" gradientTransform="translate(249.796 106.115) scale(0.802 0.802)" xlink:href="#a"/><radialGradient id="an" cx="1358.077" cy="535.041" r="531.579" gradientTransform="translate(112.614 -729.259) scale(2.363 2.363)" xlink:href="#a"/><radialGradient id="ao" cx="1360.964" cy="534.904" r="1061.762" gradientTransform="translate(13.579 96.344) scale(1.183 1.183)" xlink:href="#a"/><radialGradient id="ap" cx="1211.157" cy="456.255" r="1296.477" gradientTransform="translate(150.451 66.836) scale(0.854 0.854)" xlink:href="#a"/><radialGradient id="aq" cx="1326.749" cy="562.473" r="629.973" gradientTransform="translate(70.322 -531.28) scale(1.945 1.945)" xlink:href="#a"/><radialGradient id="ar" cx="1327.603" cy="562.441" r="1369.815" gradientTransform="translate(114.795 59.485) scale(0.894 0.894)" xlink:href="#a"/><radialGradient id="as" cx="1386.614" cy="430.706" r="1425.929" gradientTransform="translate(197.713 69.52) scale(0.839 0.839)" xlink:href="#a"/><radialGradient id="at" cx="1125.42" cy="546.769" r="485.418" gradientTransform="translate(255.99 -648.057) scale(2.185 2.185)" xlink:href="#a"/><radialGradient id="au" cx="1126.666" cy="546.764" r="1214.18" gradientTransform="translate(115.365 69.083) scale(0.874 0.874)" xlink:href="#a"/><radialGradient id="av" cx="1361.455" cy="588.662" r="1545.996" gradientTransform="translate(223.094 106.67) scale(0.819 0.819)" xlink:href="#a"/><radialGradient id="aw" cx="1411.859" cy="406.05" r="1292.317" gradientTransform="translate(115.673 40.443) scale(0.9 0.9)" xlink:href="#a"/><radialGradient id="ax" cx="1274.549" cy="521.67" r="645.538" gradientTransform="translate(23.844 -426.695) scale(1.818 1.818)" xlink:href="#a"/><radialGradient id="ay" cx="1274.75" cy="521.662" r="1521.957" gradientTransform="translate(280.767 119.422) scale(0.771 0.771)" xlink:href="#a"/><radialGradient id="az" cx="1439.512" cy="614.625" r="1192.621" gradientTransform="translate(-26.203 -15.45) scale(1.025 1.025)" xlink:href="#a"/><radialGradient id="ba" cx="1300.305" cy="381.814" r="1102.473" gradientTransform="translate(64.453 24.504) scale(0.936 0.936)" xlink:href="#a"/><radialGradient id="bb" cx="1248.773" cy="751.488" r="1567.59" gradientTransform="translate(304.168 185.328) scale(0.753 0.753)" xlink:href="#a"/><radialGradient id="bc" cx="1462.874" cy="372.04" r="1058.092" gradientTransform="translate(-30.115 -10.544) scale(1.028 1.028)" xlink:href="#a"/></defs><g class="a" transform="translate(1455.4 1084.9) rotate(180)"><g class="b"><path class="c" d="M1455.3,976.5l-76.3-52,76.3-153v-3.7l-77.7,155.8L876.4,582l332.7-288.8,246.1,53.1v-1.7l-244.6-52.8L1455.2,79.5V77.3L1208.6,291.4,876.2,219.7,907.3,0h-1.7l-31,219.3-241.2-52-.4,1.6L874.4,221,827.9,550.4l-.1.5,45.9,31.3L297,1082.8l-.8.7,2.2,1.4h3l-2.4-1.6L875.2,583.2,1376.8,925l-79.7,159.8h1.9l79.3-158.9,77.1,52.5v-1.9ZM875,581l-45.4-30.9L876,221.3l331.1,71.4Z"/></g><g class="b"><path class="d" d="M1455.3,926.5v-1.7l-321.5,45.3-6.1-162.7,327.6-96.5v-1.7l-327.7,96.5-25.8-694.8,353.5,23.8V133l-353.6-23.8L1097.6,0h-1.7l4.1,109.1L88.3,41l-1.6-.1L418.3,567,140.4,1084.9h1.9l277-516.3L656.8,945.4l.3.5L1126,807.8l6,162.5L318.5,1084.8h11.9L1132.1,972l4.2,112.9h1.7l-4.2-113.1ZM657.8,943.9l-237.6-377L634,168.5l-1.5-.8L419.2,565.3,89.8,42.8l1010.3,68L1126,806.2Z"/></g><g class="b"><path class="e" d="M935.5,563.3,1455.3,951v-2.1L936.7,562.2l415-418.1,103.6,174v-3.2l-102.4-172,61.5-62,40.9-32.5V46.3l-30.9,24.6,30.9-31.2V37.3l-42,42.3-66.6,52.9L1267.8,0h-1.9l79.5,133.5L869.1,511.8,257.5,55.7,331.6,0h-2.8L255.5,55l-.9.7L867.7,512.9l-38.2,30.4,22.2,102.2L415.5,1084.9h2.3L852.1,647.4,947,1084.9h1.7L853.5,646ZM1403.3,89.6l-51.4,51.7-4.4-7.4ZM1346.2,135l4.5,7.6L935.3,561.1l-64.8-48.3ZM831.4,543.9l37.8-30,65,48.5-81,81.6Z"/></g><g class="b"><path class="f" d="M1455.3,944.4l-22.5-13,22.5-4.8v-1.7l-24.6,5.3-21-12.2,45.6-111.3v-4.4l-47,114.8L828,581.1l22.4-327.6,605,83.9v-1.7L850.5,251.8,867.6,0h-1.7L848.7,251.7,614.3,219.2l-.6-.1L225.1,1084.8h1.8L614.7,220.9l233.9,32.4L826.2,581.5v.5l581.4,336.6-7.4,18L714.7,1084.7h7.9l676.9-146.2-59.9,146.2h1.8L1401.5,938l29-6.3,24.9,14.4v-1.7Zm-53.1-8.1,6.9-16.8,19.2,11.1Z"/></g><g class="b"><path class="g" d="M1455.3,704.9v-1.8L1148,818.9l-54-481.8,225.4-208.3,135.9-1v-1.7l-134.1,1L1455.3,3.2V.9L1318.8,127.1l-248.1,1.8L1056.1,0h-1.7l14.5,128.9L55.4,136.1H53.8l629,859.4.4.5,248.2-93.6,53.7,182.4h1.7L932.9,901.9l213.8-80.6,29.6,263.6h1.7l-29.6-264.2ZM1316.9,128.8,1093.7,335l-23-204.5ZM683.7,994.1,57,137.8l1012.1-7.3,23.1,205.9L835.1,574.1l-.4.4L930.8,901Zm248.7-93.8L836.6,575l255.9-236.5,54,481.1Z"/></g><g class="b"><path class="h" d="M1455.3,921.5,1438.6,911l16.7-51.2v-5.4L1437.2,910,939.6,593.2l383.2-448,132.5,188.9v-2.9L1323.9,143.9,1447,0h-2.2L1322.9,142.5,1223,0h-2l100.8,143.8L938.2,592.3,222.9,136.9,380.5,0H378L220.9,136.3l-.8.8,717,456.5L516.9,1084.8h2.2L938.5,594.5l498.2,317.2-56.3,173.1h1.8l55.9-172.2,17.2,10.9Z"/></g><g class="b"><path class="i" d="M1455.3,927.3v-1.7L1201.8,1000l-42.2-224.5,295.7,143.1v-1.8L1159.2,773.6,1071,304.8l384.3,24.5v-1.7l-384.6-24.5L1013.6,0h-1.7l57,302.8-241-15.4L826.4,0h-1.7l1.5,287.3L598.7,272.8h-.6l-299.3,812h1.8L599.3,274.5l227,14.5L828,614.5v.5l329.8,159.5,42.5,225.9-287.6,84.4h5.9l282-82.8,15.6,82.8h1.7l-15.7-83.2ZM829.6,613.9l-1.7-324.8,241.4,15.4,88,468Z"/></g><g class="b"><path class="j" d="M412.8,0h-2.4L189.8,217.7l1.1,1.2Z"/><path class="k" d="M1455.3,699.6v-1.8L964,926.5,843.5,606l439.9-471.6,171.8,210.1v-2.6L1285.3,134.2l169.9-13.6v-1.7l-170.1,13.6L1408.8,0h-2.3l-123,131.9L1175.7,0h-2.1l108.6,132.8L31.1,233l-1.6.1L713.9,1044l.4.5L963,928.7l58.7,156.1h1.8L964.6,928ZM714.8,1042.5,32.9,234.5l1248.2-100L842,605.2l-.4.4L962.5,927.2Z"/></g><g class="b"><path class="l" d="M1455.3,946.3l-33.9,138.5h1.7l32.2-131.6Z"/><path class="m" d="M1455.3,898.6v-1.9l-19.5-10.5,19.5,7.7v-1.8l-32.2-12.7L945.3,622.8,1402.5,0h-2.1L943.8,622,824.6,558,781.8,0h-1.7l42.7,557L190.7,217.6,190,219,823,559l6.6,86.7v.5l74.7,29.6L604,1084.8h2.1L905.9,676.4l516.4,204.5ZM905.4,674.4,831.3,645l-6.5-85.1,118.1,63.4Zm1.6.6,37.3-50.9,465.4,250Z"/></g><g class="b"><path class="n" d="M1455.3,929.6v-1.8l-217.7,81.8L1054.3,322.9l401-4.5v-1.7l-401.4,4.5-38.3-143.4,435.6-67.6,4.1,5.6V113l-3.3-4.6-436.8,67.8L968.1,0h-1.7l47.1,176.5L13.7,331.6l-1.6.2L452.9,784l-87.4,300.8h1.7l87-299.4,291.9,299.4h2.3L454.8,783.5,587.2,328.1l465.4-5.2L1236,1010.2l-198.7,74.6h4.7l194.4-73,19.5,73h1.7l-19.6-73.6ZM586.5,326.4h-.6L453.4,782.2,15.6,333l998.3-155,38.2,143.2Z"/></g><g class="b"><path class="o" d="M1455.3,877v-1.8l-178.7-79.5,178.7-99.8V694L1274.8,794.9,869.1,614.3l382.8-476.5,203.3,213.5v-2.4L1253,136.5,1362.6,0h-2.1L1251.9,135.2,1123.1,0h-2.3l130,136.5-383.2,477L169.2,302.8,437.1,0h-2.2L167.2,302.5l-.8.8,700,311.6-16.2,20.2L995.3,950.9,755.7,1084.8h3.4L996,952.4l60.9,132.4h1.8L997.5,951.6l277.2-155ZM996.9,950.1,852.2,635.3l15.9-19.7,404.8,180.2Z"/></g><g class="b"><path class="p" d="M1455.3,934.8l-325.9,150h4l321.9-148.2Z"/><path class="q" d="M1455.3,871.5,921.9,704.6l232-370.8,301.4-26v-1.7l-300.3,26L1362.7,0h-2L1152.8,332.2,789.2,363.5,734.9,0h-1.7l54.5,363.7L577.8,381.8l-.6.1-151.1,703h1.7L578.6,383.5,788,365.4l46.9,313.2.1.5,84.5,26.4L682.2,1084.8h2L921.2,706l534.2,167.2v-1.7Zm-535-167.4-83.9-26.3L789.6,365.2,1151.9,334Z"/></g><g class="b"><path class="r" d="M1455.3,692.6v-2L1215.6,849,1054.2,384.6,1212.8,154l212.5-48.9,29.9,35.2v-2.6l-29-34.1-.3-.4-211.7,48.7L1318.7,0h-2L1211.8,152.5,991.2,203.3,920.5,0h-1.8l70.8,203.6L5,430.3l-1.6.4,731.7,654.2h2.5L7,431.5,990.1,205.2l62.2,179.1L860.9,662.4l1.4.9L1053,386.2l161.1,463.7L858.5,1084.8h3l353.2-233.3,81.1,233.3h1.8l-81.4-234.3ZM991.7,204.8l218.7-50.3L1053.5,382.6Z"/></g><g class="b"><path class="s" d="M964.2,683l491.1,176.5v-1.7L965,681.5l274.1-520.7,216.2,195.9v-2.2L1239.9,159.3,1323.8,0h-1.9l-83.3,158.2L1064.1,0h-2.4l176.1,159.7L963.4,680.9,151.9,389.2,451.8,0h-2.1L149.9,389.1l-.7.9L962.6,682.4,919,765.2,862.3,662.5l-1.4.8L918.1,767,750.8,1084.8h1.8L919.1,768.7l174.4,316.1h1.9L920,767Z"/></g><g class="b"><path class="t" d="M1455.3,945.5v-1.9l-143.1,79.2L1214,797l241.3,56.3v-1.7l-242.1-56.5L1025.7,364l429.6-69.5v-1.7L1025,362.5,867.4,0h-1.8l157.7,362.8L774.5,403,683.8,0h-1.7l90.7,403.3L574.2,435.4l-.6.1-92.5,649.3h1.7L575.2,437l198-32.1,68.6,304.9.1.5,370,86.3,98.8,227.1-110.4,61.1h3.4l107.6-59.6,25.9,59.6h1.8l-26.3-60.4Zm-612-236.6L774.9,404.6,1024,364.3l187.1,430.4Z"/></g><g class="b"><path class="u" d="M1455.3,690.4v-2.1L1068.3,988,874.7,690.6l305.6-523.2,22.7-7,252.2,196.5v-2.1l-250.3-195,194.4-59.9,55.8,56.7v-2.4l-55-55.8-.4-.4-196.5,60.6-12.3-9.6,87-149H1276l-86.4,147.9L999.9,0h-2.7l191.7,149.4-9.7,16.6L1.5,528.9l-1.5.5,715.2,555.5h2.7L3.5,530,1178,168.1,873,690.2l-.3.4,194.2,298.5-123.6,95.8H946l121.8-94.4,61.4,94.4h2l-62.1-95.4Zm-265-540,11.2,8.7-19.9,6.1Z"/></g><g class="b"><path class="v" d="M1455.3,841.6l-32.3-8.9,32.3,5.1V836l-46.2-7.2-432-119.6L1285.8,0H1284L975.5,708.7,831.4,668.8,628.3,0h-1.7l203,668.3-689.8-191L459.4,0h-2L137.8,477.3l-.6,1,693,191.9,22.2,73,101.3,15.9L811.9,1084.8h1.8L955.3,759.3l453.4,71,46.6,12.9Zm-501-84.1L853.6,741.7l-21.6-71,142.8,39.6Zm1.7.3,20.5-47.1,418.2,115.8Z"/></g><g class="b"><path class="w" d="M1455.3,957.8v-2l-106.2,69.4-335.8-639,442-105.3v-1.8L1012.5,384.7l-64.1-122L1373.5,96.4l81.8,71.6v-2.3l-81.4-71.2L947.6,261.2,810.4,0h-1.9L946.1,261.8,6.7,629.3l.6,1.5L946.9,263.3,1010.8,385,573.6,489.2l-42.4,595.6h1.7l42.3-594.2,436.4-104,336.1,639.5-89.9,58.7h3.1l87.6-57.3,30.1,57.3h1.9l-30.6-58.2Z"/></g><g class="b"><path class="x" d="M1455.3,829.5v-1.7L1330,802.9,1455.3,690v-2.2L1328,802.5,888.3,715l271.3-554,295.7,197.2v-2L1160.4,159.5,1238.4,0h-1.9l-77.6,158.5L921.3,0h-3l239.9,160L886.7,714.7,136.3,565.4,461.9,0H460L134.3,565.6l-.6,1L885.9,716.2l-1,2.1L1103,1005.1l-88.4,79.7h2.5l86.9-78.3,59.6,78.3h2.1l-60.4-79.4,223.2-201.1Zm-351.1,174.6L886.8,718.2l.8-1.6,438.8,87.3Z"/><path class="y" d="M687.9,1084.8,7.4,629.3l-.9,1.4,678.4,454.1Z"/></g><g class="b"><path class="z" d="M1455.3,821.2,976,782l143-409.8,336.2-107.3v-1.7L1119.6,370.3,1249,0h-1.8L1117.7,370.9,754,487,566.8,0H565L752.5,487.5,579.4,542.7l-.6.2-1.7,541.9h1.7l1.7-540.7,172.5-55L862.5,774l.2.5,110.9,9.1L868.4,1084.9h1.8L975.4,783.7,1455.3,823ZM974.2,781.9l-110.3-9L754.6,488.6,1117,372.9Z"/></g><g class="b"><path class="aa" d="M1455.3,975.7v-2l-66.8,50.8-99.8-159.9,166.6-173.8v-2.4L1287.8,863.2,931.5,292.6,1347.7,93l107.6,81.2v-2.1l-107-80.8-.4-.3L930.6,291.2,748.8,0h-2L929.1,291.9,20.4,727.9l-1.4.7,620.7,356.2h3.4L22.6,728.7,930,293.3l356.6,571.1-211.2,220.4h2.3l209.8-218.9,99.7,159.6-78,59.3h2.8l76-57.9,36.2,57.9h2l-36.8-58.9Z"/></g><g class="b"><path class="ab" d="M1008.8,764l446.5,55v-1.7l-446-54.9,153-571.6,293,165.3v-1.9L1162.7,189.1,1213.3,0h-1.7l-50.4,188.3-29.8-16.8L1200.2,0h-1.8l-68.5,170.7L827.5,0h-3.4l305.2,172.2-228.7,570-.2.5,6.2,7.1-767-94.4L459.7,0h-1.8L137.2,656.7l771.1,94.9,78.2,88.9-65.4,244.3h1.7l65-242.8,213.7,242.8h2.2L988.4,840.1ZM902.4,742.3,1130.8,173l30,16.9L1007.6,762.1,909.2,750Zm84.7,96.3-76.3-86.7,96.3,11.9Z"/></g><g class="b"><path class="ac" d="M1455.3,808.3l-577.6-4.4L749.1,530.8,1455.3,246v-1.8L748.4,529.3,499.2,0h-1.9L746.8,529.9,586.2,594.7l-.5.2,33.8,489.9h1.7L587.4,596l160.1-64.6L876.4,805.1l.3.5,578.6,4.3Z"/><path class="ad" d="M1455.3,995l-101.5,89.8h2.5l99-87.6Z"/></g><g class="b"><path class="ae" d="M1455.3,1063.3v-2.8l-142-193.7,142-172.4v-2.6l-143,173.6L1015.8,461l75-235.6L1321.8,93l133.5,86.1v-2L1321.8,91,1091.4,223l71-223h-1.7l-71.4,224.3L915.3,324,677.8,0h-2.1L913.8,324.8,41.1,824.8l-1.4.8L575,1084.8h3.8L43.3,825.5,914.8,326.2l99,135.1L916.1,768.2l-.2.5,263.4,257.9-48,58.3h2.2l47.1-57.1,58.3,57.1h2.4l-59.6-58.4,130.5-158.4Zm-539-738,172.3-98.7-74.1,232.7Zm264.2,700L917.9,768.2l97.2-305.3,296.1,403.8Z"/></g><g class="b"><path class="af" d="M1455.3,10.1,1453.1,0h-1.7l3.9,18.2Z"/><path class="ag" d="M1455.3,807.5l-426.7-20.9L1139,205.7l316.3,148.9v-1.8L1139.3,204,1178.1,0h-1.7l-38.7,203.3L705.8,0H702l435.5,205L1027,786.5l-165.5-8.1L440.1,28,451.5,0h-1.8L439,26.1,424.4,0h-1.9l15.8,28.1-292,715.8-.4,1.1,714.5,35L892,836.3l1.4-.8-31.1-55.4,164.2,8-56.4,296.7h1.7l56.4-296.6,427,20.9v-1.6Zm-1307-64.1,291-713.5L859.5,778.3Z"/></g><g class="b"><path class="ah" d="M1455.3,180.5,1294.5,93l-.8,1.4,161.6,88Z"/><path class="ai" d="M1455.3,1003.9,1289.6,810l165.7-11.2v-1.7l-167.1,11.3L987.5,456.5l467.8-230.7v-1.9L986.4,455.2,597.4,0h-2.2L984.8,455.9,598.3,646.6l-.6.3,60.7,437.9h1.7l-60.6-437L986,457.2l300.2,351.3L892.7,835.1l.1,1.6,394.7-26.6,167.8,196.3Z"/><path class="aj" d="M1455.3,1022.9l-60.4,61.9h2.3l58.1-59.5Z"/></g><g class="b"><path class="ak" d="M1455.3,800.2v-1.7l-71.7,1.8,71.7-101.5V696l-73.8,104.4L959.6,811.2l-24.4-20.6,128.9-540.9,45.9-30.9L1455.3,351v-1.8L1111.7,217.6,1294.6,94.4l-.9-1.4L1109.8,216.9l-34.7-13.3L1123.6,0h-1.7l-48.4,203L543.5,0h-4.6l534.3,204.6-10.5,44-863.9,582-34.9.9L441,0h-1.7L161.5,833.3l34.7-.9L67.5,919.1l410.8,165.7h4.4L71,918.8l128.3-86.4L959,812.9l258.9,218.9-37.5,53h2l36.7-51.9,61.4,51.9h2.6l-63-53.3L1382.3,802ZM1074.7,205.3l33.4,12.8-43.4,29.3ZM201.8,830.6,1062,251,933.5,790.7l-.1.5,23.7,20.1Zm1017,199.9L961.5,812.8l418.8-10.7Z"/></g><g class="b"><path class="al" d="M1455.3,132.4,1417.2,0h-1.8l39.9,138.4Z"/><path class="am" d="M1455.3,787.1l-410.7,58.5L1093.7,414l361.6-212.6v-1.9L1093.9,411.9,1140.7,0H1139l-46.9,412.9L747.7,615.3,341.4,0h-2L746.3,616.2,612.1,695.1l.8,1.4,134.3-78.9L911.1,865.8l.3.4,131.3-18.7-27,237.3h1.7l27-237.5,410.9-58.5v-1.7Zm-412.4,58.7L912.2,864.4,748.6,616.7,1091.8,415Z"/></g><g class="b"><path class="an" d="M613.3,695.6l-1.6.4,82.7,388.8h1.7Z"/><path class="ao" d="M1455.3,957.5l-93.5-94.2,93.5-155.7v-3.2l-94.7,157.7L893.4,391.6,1268.3,96.4l187,84.8v-1.9L1268.5,94.7l-.4-.2L892.2,390.4,532.3,27.9,555.1,0h-2.2L530.5,27.4l-.5.6L890.9,391.5,103.3,1011.7l-1.2,1,222.7,72.1h5.4l-224.6-72.7L892.1,392.7l467.6,470.9-132.8,221.2h1.9l132.1-220,94.4,95Z"/><path class="ap" d="M1455.3,30.2,1442.4,0h-1.7l14.6,34.5Z"/><path class="aq" d="M1455.3,1060.9l-20.2,23.9h2.1l18.1-21.3Z"/></g><g class="b"><path class="ar" d="M1071.5,831.3,1455.2,793v-1.7l-383.7,38.3,23.2-590.9,360.4,107.7v-1.7L1094.7,237l9.5-237h-1.7l-9.3,236.6-44.1-13.2L1085.1,0h-1.7l-35.9,222.9L415.5,34.1l-.8-.2L184.4,918.7l-.3,1.2L988,839.7l79.3,57.7-7.4,187.5h1.7l7.3-186.3L1325,1084.9h2.8L1068.9,896.6ZM186.3,918,415.8,35.9l631.5,188.6L952.5,813.2l-.1.5L986,838.1ZM954.2,813.1l94.7-588,44.3,13.2-23.3,591.6L988.4,838Zm113.1,82.2-76.9-55.9,79.4-7.9Z"/></g><g class="b"><path class="as" d="M1455.3,101.6,1403.1,0h-1.9l54.1,105.2Z"/><path class="at" d="M1455.3,778.9,931.1,893.8,752.6,661.4l693.9-480.3,8.8,23.8v-4.8l-7.4-20,7.4-5.1v-2l-8,5.5L1381.2,0h-1.8l66.5,179.5L751.6,660.1,244.3,0h-2.1l508,661.1L630.5,743.9l97.8,340.9H730L632.5,744.6l118.7-82.2,179,232.8.3.5,524.8-115.1Z"/></g><g class="b"><path class="au" d="M1455.3,922.6v-2.2l-68.4-59.5,68.4-136v-3.7l-69.7,138.6L999.8,524.5l19-220.4L1242.4,99.9l212.8,78.3v-1.8L1242.5,98.1l-.5-.1L1019,301.7,1045,0h-1.7l-26.1,303.3L884.7,424.4,494.2,84.9,554.3,0h-2L492.5,84.6l-.4.6L883.5,425.5,161.7,1084.8h2.5L884.9,426.6l113.4,98.6L971.6,834.6l325.1,202.2-24.1,48h1.9l23.7-47.1,75.7,47.1h3.1l-78.1-48.6,87.4-173.8ZM885.9,425.5,1017,305.7,998.3,523.1Zm411.4,609.9L973.2,833.7l26.5-307.2,385.1,334.8Z"/></g><g class="b"><path class="av" d="M1455.3,245,1343.3,0h-1.9l113.9,248.9Z"/><path class="aw" d="M1455.3,788.1v-1.7l-359.9,63.3-20.2-592.9,380.2,83.8v-1.7L1075,255.1,1066.3,0h-1.7l8.7,254.8L386,103.3l-.8-.2L213.8,1005.3l-.2,1.2,880.2-154.8,8,233.2h1.7l-8-233.5ZM215.6,1004.4,386.5,105.1l686.9,151.4L1093.7,850Z"/></g><g class="b"><path class="ax" d="M1455.3,888.7l-110.1-82L1455.3,774v-1.7l-111.7,33.2L975,530.8l476.6-385.6,3.6,6V148l-2.3-3.8,2.3-1.9v-2.1l-3.2,2.6L1364.8,0h-1.9l87.8,143.8-477.1,386L457.9,145.4,546.8,0h-1.9L456.1,145.2l-.4.6L972.3,530.9,759.2,703.3,132.5,0h-2.2L758,704.4,651.8,790.3l-.5.4,107.5,294.2h1.8L653.3,791.2,759,705.6,952.7,923l.3.4,390.2-116.1,112,83.5v-2.1ZM953.6,921.5,760.3,704.6,973.7,531.9l367.8,274.2Z"/></g><g class="b"><path class="ay" d="M1455.3,747v-4.3l-119.6,289.5L993.9,852.7l6.4-519,53.6-56.6,401.4,57.5v-1.7l-400-57.3L1216.5,105l238.7,68.5v-1.7l-238.8-68.5-.5-.1L1053.1,275.3l-52.1-7.5L1004.4,0h-1.7l-3.3,267.6L360,175.9l-.8-.1-108.7,909h1.7L360.6,177.7l638.8,91.5-.8,63.8-711,751.8h2.3L998.6,335.4l-6.4,517.8v.5l342.8,180-21.1,51.1h1.8l20.8-50.4,95.9,50.4h3.6l-98.9-51.9ZM1001.1,269.5l50.8,7.3-51.5,54.5Z"/></g><g class="b"><path class="az" d="M1455.3,272.2,1305.6,0h-1.9l151.6,275.6Z"/><path class="ba" d="M1455.3,784.6v-1.7L1337,812.8l118.3-44.9v-1.8L1323,816.3l-202,51.1L1026.3,0h-1.7l94.6,867.9L942,912.8,52.1,49.4,532.8,0H516.6L50.1,47.9l-1.8.2L940.1,913.3,262,1084.9h6.8L941.5,914.7l35.8,34.7,144.8-55,20.8,190.5h1.7l-20.8-191.1L1323.5,818ZM977.7,947.4l-34.3-33.3,176.1-44.5,2.5,23.1ZM1123.6,892l-2.5-22.9,188.3-47.7Z"/></g><g class="b"><path class="bb" d="M1455.3,862.7v-2L977.1,556.6l426.4-400.2,34.7,7.2,17.1,23.9v-2.8l-14.7-20.5,14.7,3.1v-1.7l-16.1-3.4-16.8-23.5,32.9-30.9v-2.3l-33.9,31.8L1322.9,0h-2l99.3,138.5L1403,154.6l-213-44.5L878.1,493.6l-449.6-286L536.7,0h-1.9L426.6,207.5l-.3.7L877,494.9,397.1,1084.8h2.1l479.2-589,96,61L677.7,835.3l-.4.4,111.1,249.1h1.8l-111-248.7L975.8,557.7Zm-34.2-722.9,15.6,21.8-31.8-6.6ZM879.5,494.5,1190.7,112l210.8,44L975.6,555.6Z"/></g><g class="b"><path class="bc" d="M1455.3,1061.5l-79.9-34.9,79.9-243.8v-5.3l-.6,1.9-366,122.1L1016.4,870,980.8,293.8l474.4,32.3v-1.7L980.7,292.1,962.7,0H961l18,292L340.9,248.6l-.8-.1L296,1084.8h1.7l44-834.5,637.5,43.4,35.6,576.9v.5l71.5,31.2-547,182.5h5.2l544-181.5,284.7,124.3-18.8,57.3h1.7l18.6-56.6,80.4,35.1v-1.9Zm-81.5-35.6L1090.9,902.4,1454,781.3Z"/></g><g class="b"><path class="bd" d="M1455.3,762.4v-1.8L1151.9,902.3l-78.5-425.7L1367,156.9l88.2,135.4v-3l-87.1-133.7,87.1-94.8V58.4l-88,95.8L1266.8,0h-2l101.3,155.5L1073,474.6,985.4,0h-1.7l87.8,476.2L784.9,788.3,19.2,146.1,854.1,0h-9.6L17.2,144.8l-1.8.3L783.8,789.5l-80.3,87.4-.4.4,111.1,207.5h1.9l-111-207.3,79.9-87,217.8,182.7.4.3,147.3-68.8,33.2,180.1h1.7L1152.2,904ZM1003.6,971.6,786.2,789.3,1072,478.2l78.4,424.9Z"/></g><g class="b"><path class="be" d="M1455.3,836.8l-.2.7L998.8,592.9l-26.5-195,194.2-277.4,237.4,31.7,51.3,61.4V211l-48.9-58.5,48.9,6.5v-1.7l-50.5-6.7L1278.8,0h-2.2l125.7,150.3-236.1-31.5-.5-.1L972,395.5,918.3,0h-1.7l54,397.5L878.8,528.6,402.5,273.3,521.7,0h-1.8L400.6,273.3l-.3.7L877.8,530,489.4,1084.9h2L879.2,530.8l118,63.2,39.9,293.9,1.6-.2L999.1,595l455.6,244.2-61,245.7h1.7l59.9-241.2v-6.9Zm-575-307.4,90.6-129.5L997,592Z"/></g></g></svg>