<svg xmlns="http://www.w3.org/2000/svg" viewBox="0 0 1288.103 1288.103">
    <defs>
        <style>
            .a{fill:#40b9a6;opacity:.15}
        </style>
    </defs>
    <path class="a" d="M644.052 0C289.018 0 0 289.018 0 644.051S289.018 1288.1 644.052 1288.1 1288.1 999.085 1288.1 644.051 999.085 0 644.052 0zM66.821 644.051c0-307.535 241.519-559.52 545.029-576.426v334.1l-270.5-135.252v342.958l302.7 151.352 238.3-119.149v198.045l-238.3 119.15-237.494-119.15v-127.2l-65.21-32.2V880.74l270.5 135.251v205.291C308.34 1203.572 66.821 951.586 66.821 644.051zm610.239 576.426v-205.291l270.5-135.252V536.977l-302.7 151.352L406.558 569.18V371.134l238.3 119.15 238.3-119.15V499.14l65.211-32.2V266.475l-270.5 135.252v-334.1c303.509 16.906 545.029 268.891 545.029 576.426-.81 307.533-243.135 559.519-545.838 576.424z"/>
</svg>
