<svg xmlns="http://www.w3.org/2000/svg" viewBox="0 0 170.489 111.413" width="170.489" height="111.413">
    <defs>
        <style>
            .a{fill:#fff;fill-rule:evenodd}
        </style>
    </defs>
    <path class="a" d="M108.844-.005L70.958 59.719H29.539l9.632-14.769h25.686l9.311-14.77H16.697l-9.31 14.77h13.805L2.25 74.489h77.376l29.217-46.556 10.6 17.017h-8.993l-9.633 14.769h27.933l9.312 14.77h17.979L108.844-.005z"/>
    <path class="a" d="M96.323.321h-61l-9.315 14.765h61z"/>
    <path class="a" d="M162.143 87.331h-1.285v-5.136h-1.284v-.963h3.852v.963h-1.282zm6.742-3.852l-1.605 3.852h-.321l-1.605-3.852-.643 3.852h-1.284l1.284-6.422h.964l1.605 4.174 1.284-4.174h.964l.961 6.422h-1.282l-.322-3.852zM5.458 86.367v19.266h17.654V98.89h-9.31v-5.138h14.773v10.6c0 5.778-1.605 7.064-6.1 7.064h-16.7c-4.5 0-5.779-1.284-5.779-7.064V88.295c0-5.778 1.284-7.385 5.779-7.385h16.7c4.494 0 6.1 1.605 6.1 7.064V89.9h-5.463v-3.533H5.458zm34.676 12.844l5.458-12.2 5.137 12.2zm-10.916 12.2h5.779l2.89-6.743h15.091l2.89 6.743h6.422l-13.805-30.5h-5.459zm36.28-30.5h4.5l11.238 18.622 11.237-18.622h4.5v30.5h-5.138V92.469a16.484 16.484 0 0 1 .321-3.212 29.1 29.1 0 0 1-1.6 3.212l-8.991 15.41h-1.297l-8.989-15.41a9.612 9.612 0 0 1-1.284-3.212v22.155h-4.5v-30.5zm36.6 0h24.721v5.136H107.88v7.064h10.916v5.136H107.88v7.385h19.264v5.778h-25.042v-30.5zm47.839 12.522h-11.875v-7.386h13.805v4.175h5.457v-2.249c0-5.136-1.926-6.743-8.027-6.743h-8.985c-6.1 0-8.027 1.605-8.027 7.385v2.57c0 5.778 1.926 7.385 8.027 7.385h11.558v7.706H137.1v-4.5H131v2.249c0 5.778 1.926 7.385 8.027 7.385h10.916c6.1 0 8.027-1.605 8.027-7.385v-3.212c0-5.779-1.926-7.385-8.026-7.385z"/>
</svg>
