<svg xmlns="http://www.w3.org/2000/svg" xmlns:xlink="http://www.w3.org/1999/xlink" viewBox="0 0 1812.262 1766.595" width="1455" height="1085">
    <defs>
        <style>
            .a{opacity:.31}.b{opacity:.6}.c{fill:url(#a)}.d{fill:url(#b)}.e{fill:url(#c)}.f{fill:url(#d)}.g{fill:url(#e)}.h{fill:url(#f)}.i{fill:url(#g)}.j{fill:url(#h)}.k{fill:url(#i)}.l{fill:url(#j)}.m{fill:url(#k)}.n{fill:url(#l)}.o{fill:url(#m)}.p{fill:url(#n)}.q{fill:url(#o)}.r{fill:url(#p)}.s{fill:url(#q)}.t{fill:url(#r)}.u{fill:url(#s)}.v{fill:url(#t)}.w{fill:url(#u)}.x{fill:url(#v)}.y{fill:url(#w)}.z{fill:url(#x)}.aa{fill:url(#y)}.ab{fill:url(#z)}.ac{fill:url(#aa)}.ad{fill:url(#ab)}.ae{fill:url(#ac)}.af{fill:url(#ad)}.ag{fill:url(#ae)}.ah{fill:url(#af)}.ai{fill:url(#ag)}.aj{fill:url(#ah)}.ak{fill:url(#ai)}.al{fill:url(#aj)}.am{fill:url(#ak)}.an{fill:url(#al)}.ao{fill:url(#am)}.ap{fill:url(#an)}.aq{fill:url(#ao)}.ar{fill:url(#ap)}.as{fill:url(#aq)}.at{fill:url(#ar)}.au{fill:url(#as)}.av{fill:url(#at)}.aw{fill:url(#au)}.ax{fill:url(#av)}.ay{fill:url(#aw)}.az{fill:url(#ax)}.ba{fill:url(#ay)}.bb{fill:url(#az)}.bc{fill:url(#ba)}.bd{fill:url(#bb)}.be{fill:url(#bc)}
        </style>
        <radialGradient id="a" cx="1489.064" cy="396.158" r="1269.393" gradientTransform="matrix(.936 0 0 .936 76.458 25.392)" gradientUnits="userSpaceOnUse">
            <stop offset=".065" stop-color="#40b9a6"/>
            <stop offset=".35" stop-color="#00aaa2"/>
            <stop offset=".418" stop-color="#00a299"/>
            <stop offset=".618" stop-color="#008f84"/>
            <stop offset=".814" stop-color="#008377"/>
            <stop offset="1" stop-color="#007f73"/>
        </radialGradient>
        <radialGradient id="b" cx="1194.759" cy="503.696" r="1348.757" gradientTransform="matrix(.793 0 0 .793 229.692 104.412)" xlink:href="#a"/>
        <radialGradient id="c" cx="1467.366" cy="690.917" r="1323.083" gradientTransform="matrix(.904 0 0 .904 116.964 66.635)" xlink:href="#a"/>
        <radialGradient id="d" cx="1241.916" cy="419.527" r="1277.922" gradientTransform="matrix(.882 0 0 .882 120.253 49.615)" xlink:href="#a"/>
        <radialGradient id="e" cx="1171.773" cy="652.246" r="1516.434" gradientTransform="matrix(.774 0 0 .774 252.551 147.343)" xlink:href="#a"/>
        <radialGradient id="f" cx="1443.982" cy="576.316" r="1439.53" gradientTransform="matrix(.878 0 0 .878 149.022 70.173)" xlink:href="#a"/>
        <radialGradient id="g" cx="1265.308" cy="338.931" r="1123.206" gradientTransform="matrix(.938 0 0 .938 59.921 21.013)" xlink:href="#a"/>
        <radialGradient id="h" cx="1154.308" cy="664.845" r="1194.308" gradientTransform="matrix(.982 0 0 .982 17.733 12.224)" xlink:href="#a"/>
        <radialGradient id="i" cx="1154.279" cy="664.836" r="1540.844" gradientTransform="matrix(.761 0 0 .761 269.007 159.005)" xlink:href="#a"/>
        <radialGradient id="j" cx="1419.019" cy="468.858" r="292.008" gradientTransform="translate(7.346 1473.169) scale(4.086)" xlink:href="#a"/>
        <radialGradient id="k" cx="1419.371" cy="468.861" r="1391.503" gradientTransform="matrix(.857 0 0 .857 175.375 66.885)" xlink:href="#a"/>
        <radialGradient id="l" cx="1178.018" cy="372.895" r="1462.225" gradientTransform="matrix(.752 0 0 .752 289.541 92.604)" xlink:href="#a"/>
        <radialGradient id="m" cx="1393.775" cy="640.604" r="1465.066" gradientTransform="matrix(.842 0 0 .842 194.357 101.441)" xlink:href="#a"/>
        <radialGradient id="n" cx="1357.785" cy="493.961" r="2332.292" gradientTransform="matrix(.46 0 0 .46 123.267 -237.937)" xlink:href="#a"/>
        <radialGradient id="o" cx="1358.041" cy="493.961" r="1018.456" gradientTransform="translate(-50.341 -26.682) scale(1.054)" xlink:href="#a"/>
        <radialGradient id="p" cx="1203.12" cy="352.987" r="1502.005" gradientTransform="matrix(.747 0 0 .747 303.256 89.225)" xlink:href="#a"/>
        <radialGradient id="q" cx="1367.802" cy="768.788" r="1395.738" gradientTransform="matrix(.831 0 0 .831 206.475 130.26)" xlink:href="#a"/>
        <radialGradient id="r" cx="1414.387" cy="405.169" r="948.444" gradientTransform="translate(-105.955 -45.998) scale(1.114)" xlink:href="#a"/>
        <radialGradient id="s" cx="1227.46" cy="589.544" r="1666.385" gradientTransform="matrix(.745 0 0 .745 312.411 150.05)" xlink:href="#a"/>
        <radialGradient id="t" cx="1340.971" cy="545.9" r="1383.628" gradientTransform="matrix(.823 0 0 .823 213.064 96.623)" xlink:href="#a"/>
        <radialGradient id="u" cx="1254.039" cy="430.272" r="1605.064" gradientTransform="matrix(.749 0 0 .749 313.255 108.058)" xlink:href="#a"/>
        <radialGradient id="v" cx="1250.905" cy="562.714" r="1523.178" gradientTransform="matrix(.821 0 0 .821 200.177 100.825)" xlink:href="#a"/>
        <radialGradient id="w" cx="1250.323" cy="562.71" r="1870.313" gradientTransform="matrix(.668 0 0 .668 412.356 -22.076)" xlink:href="#a"/>
        <radialGradient id="x" cx="1442.317" cy="593.896" r="862.719" gradientTransform="translate(-191.762 -129.812) scale(1.219)" xlink:href="#a"/>
        <radialGradient id="y" cx="1280.127" cy="455.729" r="1622.656" gradientTransform="matrix(.755 0 0 .755 308.631 111.529)" xlink:href="#a"/>
        <radialGradient id="z" cx="1289.05" cy="536.51" r="1458.95" gradientTransform="matrix(.823 0 0 .823 203.874 94.961)" xlink:href="#a"/>
        <radialGradient id="aa" cx="1405.612" cy="482.206" r="1019.677" gradientTransform="translate(-120.223 -63.824) scale(1.132)" xlink:href="#a"/>
        <radialGradient id="ab" cx="1405.559" cy="482.21" r="1305.077" gradientTransform="matrix(.885 0 0 .885 5.966 -59.11)" xlink:href="#a"/>
        <radialGradient id="ac" cx="1307.829" cy="509.917" r="1631.704" gradientTransform="matrix(.766 0 0 .766 296.249 119.122)" xlink:href="#a"/>
        <radialGradient id="ad" cx="1215.077" cy="624.003" r="221.946" gradientTransform="translate(866.509 -2287.993) scale(4.667)" xlink:href="#a"/>
        <radialGradient id="ae" cx="1263.087" cy="623.816" r="1249.784" gradientTransform="matrix(.828 0 0 .828 191.63 107.002)" xlink:href="#a"/>
        <radialGradient id="af" cx="1586.62" cy="509.036" r="2046.357" gradientTransform="matrix(.553 0 0 .553 130.872 185.878)" xlink:href="#a"/>
        <radialGradient id="ag" cx="1587.825" cy="509.039" r="897.603" gradientTransform="translate(-259.322 -132.986) scale(1.261)" xlink:href="#a"/>
        <radialGradient id="ah" cx="1587.745" cy="509.028" r="1104.686" gradientTransform="translate(-4.789 12.762) scale(1.025)" xlink:href="#a"/>
        <radialGradient id="ai" cx="1054.861" cy="482.219" r="1412.849" gradientTransform="matrix(.782 0 0 .782 215.572 105.283)" xlink:href="#a"/>
        <radialGradient id="aj" cx="1352.136" cy="598.713" r="312.396" gradientTransform="translate(156.179 -1478.024) scale(3.469)" xlink:href="#a"/>
        <radialGradient id="ak" cx="1353.608" cy="598.708" r="1114.655" gradientTransform="matrix(.972 0 0 .972 28.266 16.686)" xlink:href="#a"/>
        <radialGradient id="al" cx="1368.218" cy="535.002" r="272.37" gradientTransform="translate(-2732.072 579.98) scale(4.611)" xlink:href="#a"/>
        <radialGradient id="am" cx="1361.503" cy="535" r="1566.795" gradientTransform="matrix(.802 0 0 .802 249.796 106.115)" xlink:href="#a"/>
        <radialGradient id="an" cx="1358.077" cy="535.041" r="531.579" gradientTransform="translate(112.614 -729.259) scale(2.363)" xlink:href="#a"/>
        <radialGradient id="ao" cx="1360.964" cy="534.904" r="1061.762" gradientTransform="translate(13.579 96.344) scale(1.183)" xlink:href="#a"/>
        <radialGradient id="ap" cx="1211.157" cy="456.255" r="1296.477" gradientTransform="matrix(.854 0 0 .854 150.451 66.836)" xlink:href="#a"/>
        <radialGradient id="aq" cx="1326.749" cy="562.473" r="629.973" gradientTransform="translate(70.322 -531.28) scale(1.945)" xlink:href="#a"/>
        <radialGradient id="ar" cx="1327.603" cy="562.441" r="1369.815" gradientTransform="matrix(.894 0 0 .894 114.795 59.485)" xlink:href="#a"/>
        <radialGradient id="as" cx="1386.614" cy="430.706" r="1425.929" gradientTransform="matrix(.839 0 0 .839 197.713 69.52)" xlink:href="#a"/>
        <radialGradient id="at" cx="1125.42" cy="546.769" r="485.418" gradientTransform="translate(255.99 -648.057) scale(2.185)" xlink:href="#a"/>
        <radialGradient id="au" cx="1126.666" cy="546.764" r="1214.18" gradientTransform="matrix(.874 0 0 .874 115.365 69.083)" xlink:href="#a"/>
        <radialGradient id="av" cx="1361.455" cy="588.662" r="1545.996" gradientTransform="matrix(.819 0 0 .819 223.094 106.67)" xlink:href="#a"/>
        <radialGradient id="aw" cx="1411.859" cy="406.05" r="1292.317" gradientTransform="matrix(.9 0 0 .9 115.673 40.443)" xlink:href="#a"/>
        <radialGradient id="ax" cx="1274.549" cy="521.67" r="645.538" gradientTransform="translate(23.844 -426.695) scale(1.818)" xlink:href="#a"/>
        <radialGradient id="ay" cx="1274.75" cy="521.662" r="1521.957" gradientTransform="matrix(.771 0 0 .771 280.767 119.422)" xlink:href="#a"/>
        <radialGradient id="az" cx="1439.512" cy="614.625" r="1192.621" gradientTransform="translate(-26.203 -15.45) scale(1.025)" xlink:href="#a"/>
        <radialGradient id="ba" cx="1300.305" cy="381.814" r="1102.473" gradientTransform="matrix(.936 0 0 .936 64.453 24.504)" xlink:href="#a"/>
        <radialGradient id="bb" cx="1248.773" cy="751.488" r="1567.59" gradientTransform="matrix(.753 0 0 .753 304.168 185.328)" xlink:href="#a"/>
        <radialGradient id="bc" cx="1462.874" cy="372.04" r="1058.092" gradientTransform="translate(-30.115 -10.544) scale(1.028)" xlink:href="#a"/>
    </defs>
    <g class="a">
        <g class="b">
            <path class="c" d="M1184.502 1683.491l-25.024-88.879 156.796-68.16 2.378-2.834-159.668 69.405-164.365-583.846 440.5-7.378 154.392 198.867 1.092-1.303-153.435-197.673 323.838-5.405 1.414-1.685-326.527 5.498-208.545-268.588 165.044-148.309-1.302-1.093-164.71 148.068L1075.033 535.3l-1.335.968 151.434 195.08-247.355 222.446-.398.318 15.042 53.482-763.557 12.786-1.063.022.785 2.486 2.299 1.929-.81-2.769 762.852-12.724 164.543 584.256-163.77 71.184 1.455 1.221 162.886-70.751 25.316 89.776 1.221-1.456zm-190.313-675.98l-14.916-52.853 246.893-222.05 207.742 267.522z"/>
        </g>
        <g class="b">
            <path class="d" d="M1216.642 1645.189l1.092-1.302-275.401-171.955 99.909-128.556 312.985 136.654 1.093-1.302-313.062-136.719 426.845-548.831 255.498 245.457 1.093-1.302-255.575-245.522 67.051-86.287-1.302-1.093-66.987 86.21L738.647 88.167l-1.161-1.105-84.15 616.164L107.552 921.33l1.456 1.221 544.065-217.456-60.266 441.307-.092.576 447.967 195.613-99.857 128.338-696.776-435.195 9.116 7.649 686.644 428.913-69.353 89.186 1.302 1.093 69.482-89.34zm-622.105-499.294l60.319-441.525 419.866-167.764-.634-1.577L655.118 702.5 738.639 90.51l730.226 701.5-427.154 549.355z"/>
        </g>
        <g class="b">
            <path class="e" d="M1051.912 1032.84l148.981 631.117 1.35-1.609-148.704-629.579 586.658-53.526-32.483 199.885 2.057-2.452 32.116-197.58 86.965-7.964 52.222 1.393 1.35-1.608-39.484-1.018 43.726-4.038 1.543-1.839-59.364 5.407-85.022-2.286 24.728-152.217-1.455-1.221-24.912 153.368-608.033-16.365-175.338-742.522 92.567 4.962-2.145-1.8-91.504-4.983-1.14-.043 175.78 744.329-48.804-1.267-48.686 92.56-616.59 56.216 1.762 1.478 613.913-55.982-208.522 396.145 1.302 1.093 209.192-397.41zm662.844-62.179l-72.606 6.566 1.386-8.497zm-72.923-1.924l-1.438 8.714-587.222 53.576-18.593-78.653zm-657.196-17.672l48.24 1.316 18.618 78.935-114.501 10.443z"/>
        </g>
        <g class="b">
            <path class="f" d="M1205.136 1658.901l-8.88-24.421 20.321 10.786 1.093-1.303-22.251-11.752-8.245-22.845 106.474-55.95 2.828-3.37-109.796 57.731-228.56-630.4 227.738-236.558 409.527 453.157 1.092-1.302-409.45-453.093 174.953-181.898-1.302-1.093-174.966 181.757-158.67-175.566-.395-.462L172.5 975.697l1.378 1.157 852.377-412.513 158.351 175.168-228.122 237.017-.321.383 229.015 631.567-17.238 9.032-620.32-327.18 6.051 5.079 612.511 323.107-139.862 73.493 1.38 1.157 140.336-73.747 26.264 13.814 9.819 27.037 1.092-1.303zm-35.47-40.337l16.084-8.434 7.573 20.845z"/>
        </g>
        <g class="b">
            <path class="g" d="M1359.083 1475.434l1.158-1.38-309.84-108.82 268.328-403.79 306.559-14.684 104.748 86.59 1.093-1.303-103.37-85.432 182.369-8.715 1.478-1.762-185.685 8.935-191.213-158.097 71.672-108.128-1.303-1.093-71.747 108.064-781.015-645.95-1.225-1.028-70.57 1062.652-.015.64 250.297 87.838-76.108 174.244 1.303 1.093 76.276-174.756 215.589 75.685-146.764 220.956 1.302 1.092 147.15-221.415zm264.29-530.28l-303.524 14.488 113.831-171.44zM582.109 1200.999l70.34-1058.8 780.005 644.974L1317.8 959.75l-349.74 16.828-.564.05-136.253 311.885zm250.81 88.006l135.71-310.773 348.05-16.68-267.878 403.254z"/>
        </g>
        <g class="b">
            <path class="h" d="M1219.856 1641.359l-6.044-18.778 45.704-28.487 3.47-4.137-49.604 30.958-177.548-562.534 581.517-96.872-19.922 229.875 1.864-2.221 19.736-227.943 186.797-31.106-1.685-1.414-184.978 30.805 15.07-173.376-1.533-1.285-15.215 174.95-582.145 96.997L780.114 248.15l208.726-3.568-1.915-1.607-207.958 3.43-1.127.098 255.822 810.578-637.63 106.182 1.686 1.414 636.437-106.006 177.752 563.226-154.395 96.413 1.379 1.157 153.51-95.981 6.17 19.406z"/>
        </g>
        <g class="b">
            <path class="i" d="M1216.128 1645.802l1.092-1.302-242.015-105.953 111.978-199.103 134.537 299.693 1.157-1.379-134.779-300.027 233.774-415.815 278.643 265.791 1.092-1.302-278.872-265.984 151.088-268.891-1.303-1.093-150.971 268.597-174.718-166.709L1330.419 531.2l-1.302-1.093-183.524 221.049-164.955-157.342-.46-.386-751.22 429.642 1.379 1.157 749.668-428.725 164.572 157.02-207.925 250.44-.322.383 150.117 334.176-112.649 200.368-274.565-120.212 4.52 3.793L973 1539.307l-41.273 73.456 1.303 1.093 41.453-73.827zm-277.865-642.27l207.475-249.905 175.024 166.966-233.412 415.074z"/>
        </g>
        <g class="b">
            <path class="j" d="M1013.583 265.343l-1.838-1.543-308.925 24.969.072 1.626z"/>
            <path class="k" d="M1362.49 1471.374l1.157-1.38-523.363-140.607 113.705-322.973 640.122-78.504-3.443 271.377 1.67-1.992 3.357-268.317 138.893 98.791 1.092-1.302-139.046-98.92 179.93-21.988-1.762-1.478-179.008 21.978 2.204-170.334-1.608-1.35-2.17 171.538L571.414 198.479l-1.29-.952 3.045 1061.11-.015.64 264.95 71.153-55.372 157.311 1.378 1.157 55.67-157.976zm-787.668-213.308l-2.993-1057.28 1020.456 725.722-638.93 78.33-.564.049-114.106 324.072z"/>
        </g>
        <g class="b">
            <path class="l" d="M1203.915 1660.357l-114.995 84.306 1.302 1.093 109.257-80.114z"/>
            <path class="m" d="M1234.576 1623.816l1.22-1.455-8.188-20.578 9.989 18.433 1.157-1.379-16.504-30.426-201.076-503.691 750.563-183.21-1.608-1.35-749.59 182.983-50.174-125.648 325.889-454.964-1.303-1.092L969.63 955.572 703.574 289.271l-1.436.622 266.358 667.34-50.673 70.658-.322.384 38.197 70.69-492.943 120.284 1.609 1.35 492.174-120.145 264.135 488.591zM957.44 1098.6l-37.866-70.152 49.722-69.368 49.717 124.48zm.84 1.488l61.291-15.015 195.82 490.664z"/>
        </g>
        <g class="b">
            <path class="n" d="M1214.65 1647.564l1.156-1.38-219.348-77.272 300.987-643.865 310.076 254.31 1.093-1.302-310.383-254.568 62.836-134.47 377.142 228.214-.46 6.926 1.8-2.145.43-5.645-378.19-228.832 77.179-165.252-1.303-1.093-77.371 165.482-865.588-523.845-1.354-.876 47.004 629.746-260.303 174.247 1.303 1.093 259.096-173.432 31.158 416.984 1.762 1.478-31.24-419.531 394.15-263.752 359.86 295.17-301.295 644.39-200.165-70.575 3.6 3.02 195.843 69.037-31.986 68.456 1.302 1.093 32.295-68.98zM936.84 627.032l-.46-.386L541.896 890.64l-46.634-625.52 864.374 522.958-62.784 134.252z"/>
        </g>
        <g class="b">
            <path class="o" d="M1248.46 1607.27l1.157-1.38-85.79-175.766 201.042 38.415 1.22-1.455-203.127-38.73-194.697-399.126 599.53-118.961 18.502 294.229 1.542-1.839-18.366-292.68 171.7-34.115-1.61-1.35-170.097 33.763-11.761-186.36-1.762-1.479 11.845 188.128L967.63 1027.65 632.339 340.718l399.859-59.756-1.685-1.414-399.514 59.655-1.127.098 335.939 688.65-25.394 5.062-91.84 335.185-269.613-51.438 2.604 2.185 266.581 50.852-38.453 140.57 1.38 1.157 38.737-141.375 311.98 59.443zm-398.143-238.656l91.503-334.162 24.843-4.871 194.265 398.242z"/>
        </g>
        <g class="b">
            <path class="p" d="M1211.307 1651.547l-346.072-94.578 3.064 2.571 341.85 93.386z"/>
            <path class="q" d="M1251.995 1603.057L950.668 1132.34l416.068-134.923 247.598 173.82 1.093-1.303-246.755-173.112 372.577-120.896-1.532-1.286-372.795 120.845-298.653-209.74 192.057-313.361-1.302-1.093-192.033 313.642-172.427-121.056-.524-.309-567.629 441.404 1.303 1.093 566.37-440.371 172.044 120.734-165.393 270.072-.245.447 47.761 74.54-425.591 138.027 1.532 1.285 425.04-137.837 301.747 471.46 1.093-1.302zm-302.231-472.128l-47.366-74.077 165.085-269.547 297.593 208.98z"/>
        </g>
        <g class="b">
            <path class="r" d="M1366.99 1466.011l1.285-1.532-285.438-32.735 174.87-459.497 269.722-74.703 194.217 99.132.279 46.185 1.671-1.992-.296-44.763.027-.5-193.475-98.771 177.69-49.191-1.531-1.286-178.383 49.394-201.643-102.884 76.519-201.182-1.379-1.157-76.636 201.476L424.6 332.843l-1.483-.722 140.003 971.474 1.915 1.607L425.36 335.048l898.562 458.568-67.476 177.18-325.38 90.008.494 1.589 324.201-89.691-174.65 458.768-423.397-48.632 2.298 1.929 420.53 48.314-87.837 230.848 1.38 1.157 88.248-231.807zm-41.587-671.673l199.867 102.046-266.813 73.881z"/>
        </g>
        <g class="b">
            <path class="s" d="M996.956 1142.984l262.753 450.88 1.092-1.302-262.268-450.213 544.672-222.69 39.697 289.038 1.414-1.685-39.534-287.989 166.668-68.1-1.456-1.222-165.5 67.644-31.986-233.355-1.839-1.542 32.248 235.532-545.224 222.881L563.55 395.784l479.91-105.373-1.609-1.35-479.769 105.36-1.114.24 435.15 746.835-86.623 35.403 22.58-115.119-1.587-.287-22.84 116.206-332.437 135.91 1.379 1.158 330.732-135.123-69.587 354.25 1.455 1.22 69.914-356.193z"/>
        </g>
        <g class="b">
            <path class="t" d="M1204.429 1659.744l1.221-1.456-160.53-31.312 69.916-236.094 148.658 198.233 1.093-1.303-149.142-198.9 133.472-450.765 373.767 222.902 1.092-1.302-374.431-223.199 112.282-378.994-1.379-1.157-112.398 379.288-216.432-129.13 189.563-367.017-1.302-1.093-189.756 367.247-172.77-103.068-.524-.309-488.221 437.935 1.302 1.093 487.18-436.85 172.31 102.682-143.434 277.662-.245.447 227.964 303.941-70.292 237.476-123.846-24.158 2.605 2.185 120.736 23.508-18.47 62.305 1.38 1.157 18.677-63.175zm-316.736-574.632l143.203-277.074 216.726 129.247-133.329 449.97z"/>
        </g>
        <g class="b">
            <path class="u" d="M1368.404 1464.326l1.35-1.609-489.103-19.175 42.859-352.265 570.41-204.359 21.888 9.229 66.889 312.639 1.35-1.609-66.398-310.268 187.423 79.072 6.299 79.302 1.542-1.839-6.264-78.098-.05-.564-189.48-79.885-3.252-15.26 162.421-58.219-1.455-1.221-161.255 57.761-50.25-235.235-2.068-1.735 50.818 237.67-18.101 6.48L358.539 406.126l-1.47-.581 190.806 885.26 2.068 1.735-190.58-884.286 1132.345 477.723-569.243 203.901-.487.114-43.106 353.494-156.263-6.062 2.069 1.736 153.983 5.977-13.644 111.781 1.532 1.286 13.75-112.998zm144.103-584.003l2.988 13.864-19.165-8.119z"/>
        </g>
        <g class="b">
            <path class="v" d="M1271.214 1580.152l-19.022-27.58 21.465 24.669 1.157-1.379-30.763-35.212-254.054-369.304 692.343-344.85-1.379-1.157-691.868 344.596-84.74-123.19 274.313-642.882-1.303-1.092-274.067 642.433-405.646-589.71 551.63-160.197-1.531-1.286-551.63 160.198-1.103.38 407.518 592.456-29.917 70.191 67.38 77.295-317.982 158.353 1.38 1.157 317.699-158.328 301.686 345.829 27.406 39.835zm-329.73-386.461l-66.984-76.832 29.091-68.274 83.937 122.126zm1.11 1.322l45.98-22.903 245.924 357.522z"/>
        </g>
        <g class="b">
            <path class="w" d="M1196.523 1669.166l1.285-1.532-125.963-15.1 153.503-705.351 406.277 203.448 1.157-1.38L1225.7 945.52l29.316-134.66 432.541 145.855 16.64 107.43 1.478-1.763-16.59-106.865-433.717-146.32 62.794-288.282-1.455-1.221-62.874 288.998-955.847-322.314-.504 1.535 956 322.442-29.278 134.302-401.893-201.205-415.324 429.002 1.302 1.093 414.348-427.994 401.152 200.844-153.595 705.926-106.6-12.82 2.375 1.993 103.938 12.414-13.774 63.242 1.455 1.221 13.97-64.253z"/>
        </g>
        <g class="b">
            <path class="x" d="M1278.992 1570.883l1.093-1.303-79.98-99.615 168.556-5.946 1.414-1.685-171.245 6.039-280.586-349.663 563.932-250 99.762 341.136 1.286-1.532-99.47-340.24 162.275-72.046-1.455-1.221-161.327 71.538-80.13-274.145-2.298-1.928 80.928 276.772-564.536 250.408L438.34 520.733l612.856-223.83-1.456-1.22L436.68 519.6l-1.103.38 480.057 598.106-2.116.965-17.277 359.894-118.948 4.231 1.915 1.607 116.9-4.123-4.675 98.292 1.609 1.35 4.768-99.649 300.246-10.581zm-381.189-91.932l17.235-358.754 1.641-.711 280.025 348.93z"/>
            <path class="y" d="M527.026 1273.179l-228.504-786.35-1.589.493 227.795 783.928z"/>
        </g>
        <g class="b">
            <path class="z" d="M1284.327 1564.525L942.36 1226.407l372.96-222.006 326.514 133.909 1.093-1.303L1317 1003.331l337.15-200.49-1.378-1.156-337.613 200.885L961.92 857.726l169.634-493.394-1.379-1.157-169.726 493.97-168.084-68.982-.588-.232-349.629 414.027 1.303 1.092 348.857-413.107 167.496 68.748-99.248 288.632-.168.511 79.104 78.256-274.26 163.188 1.38 1.157 274.195-163.11 342.363 338.578zm-343.282-339.351l-78.71-77.794 99.016-288.043 351.985 144.315z"/>
        </g>
        <g class="b">
            <path class="aa" d="M1185.017 1682.878l1.285-1.532-83.825-4.023 26.33-186.64 239.34-26.05 1.542-1.84-240.671 26.238 93.833-666.13 447.128 114.626 30.232 131.367 1.35-1.609-30.03-130.675-.113-.487L1223.06 821.25l47.913-339.93-1.532-1.286-47.98 340.788-976.36-250.105-1.522-.364 246.523 671.843 2.604 2.186-246.434-671.638 974.979 249.73-93.925 666.705-303.459 33.08 1.762 1.478 301.422-32.83-26.214 186.347-97.869-4.711 2.145 1.8 95.437 4.497-9.487 67.623 1.533 1.286 9.67-68.775z"/>
        </g>
        <g class="b">
            <path class="ab" d="M979.056 1233.702l306.685 329.137 1.093-1.302-306.367-328.74 484.623-339.524 118.198 314.964 1.221-1.455-118.02-314.554 160.313-112.334-1.303-1.093-159.645 111.85-12.03-32.024 162.943-87.153-1.38-1.157-162.197 86.733-121.928-325.143-2.605-2.186 123.109 328.092-541.583 289.64-.475.254.186 9.424L383.017 591.8l666.494-296.31-1.38-1.157-667.788 296.92 529.696 568.351 2.76 118.367-207.131 145.107 1.302 1.092 205.862-144.214 7.634 323.36 1.686 1.413-7.64-325.843zm-67.559-85.016l540.904-289.296 12.118 32.23-485.161 339.855-67.601-72.52zm2.984 128.215l-2.72-115.461 66.121 71.016z"/>
        </g>
        <g class="b">
            <path class="ac" d="M1292.62 1554.643l-439.64-374.645 77.032-291.87 724.047 235.768 1.157-1.38L930.44 886.53l149.33-565.65-1.456-1.222-149.485 566.303-164.68-53.592-.511-.168-289.01 397.01 1.303 1.094 288.302-396.17 164.168 53.425-77.188 292.521-.092.576 440.47 375.211z"/>
            <path class="ad" d="M1172.61 1697.663l-135.475 3.548 1.915 1.607 132.147-3.47z"/>
        </g>
        <g class="b">
            <path class="ae" d="M1128.708 1749.984l1.8-2.145 15.73-239.659 219.595-40.79 1.671-1.992-221.132 41.067 32.81-500.375 208.895-132.27 262.061 47.059 46.923 151.768 1.286-1.532-46.923-151.768-261.345-46.98 197.731-125.19-1.302-1.093-198.873 125.928-197.378-35.47 26.328-400.86-1.609-1.35-26.382 401.859-989.92-177.939-1.587-.287 243.453 542.643 2.91 2.442L199.91 660.202l988.551 177.704-11.002 167.128-272.114 172.3-.475.254 36.001 366.873-74.244 13.806 1.685 1.414 72.784-13.465 7.957 81.215 1.839 1.543-8.118-83.047 201.787-37.458zm61.48-911.803l195.432 35.143-206.34 130.628zm-247.563 706.055l-35.902-365.746 270.702-171.394-32.732 499.658z"/>
        </g>
        <g class="b">
            <path class="af" d="M1805.692 943.186l4.807-9.151-1.302-1.093-8.711 16.449z"/>
            <path class="ag" d="M1293.133 1554.03l-313.436-290.288 457.966-374.032 146.589 317.378 1.157-1.379-146.423-317.108 160.851-131.333-1.302-1.093-160.325 130.861-200.176-433.357-2.91-2.442 201.84 436.973-458.429 374.427-121.574-112.586 159.537-845.71 26.731-14.122-1.379-1.157-24.973 13.116 5.592-29.379-1.455-1.221-5.96 31.682L331.264 663.9l-1.014.586 524.841 486.083-11.982 63.44 1.587.288 11.787-62.43 120.642 111.674-233.92 191.032 1.302 1.093 233.856-190.956 313.666 290.481 1.029-1.226zM333.116 664.803l681.548-359.522-159.17 843.407z"/>
        </g>
        <g class="b">
            <path class="ah" d="M1696.161 1073.72l-66.936-170.39-1.512.559 67.227 171.286z"/>
            <path class="ai" d="M1166.89 1704.48l-2.297-255.045 134.133 97.93 1.092-1.302-135.27-98.754-4.152-462.857 506.647 123.97 1.221-1.456L1160.39 982.75l-5.394-598.748-1.685-1.414 5.404 599.67-418.656-102.353-.653-.156-234.977 374.468 1.302 1.093 234.476-373.714 418.591 102.43 4.156 462.075-318.537-232.56-.952 1.29 319.456 233.332 2.363 258.234z"/>
            <path class="aj" d="M1154.677 1719.036l-86.058 8.593 1.762 1.479 82.753-8.234z"/>
        </g>
        <g class="b">
            <path class="ak" d="M1297.826 1548.438l1.093-1.303-56.083-44.709 120.168-31.665 1.8-2.145-123.64 32.537-330.137-262.919-5.45-31.464 446.427-331.498 55.023 5.833 179.539 323.225 1.157-1.378-178.622-321.674 219.301 23.19.21-1.652-220.517-23.295-18.032-32.493 168.025-124.792-1.303-1.093-167.562 124.397-275.518-496.185-3.524-2.957 277.784 500.174-36.327 26.957L315.75 764.063l-27.313-21.744 746.749-458.85-1.303-1.092-748.442 459.778 27.16 21.615-154.32-16.31 208.182 390.99 3.37 2.829-208.677-391.8 153.82 16.284 594.499 473.388 57.622 334.105-62.794 16.496 1.532 1.285 61.474-16.167 13.675 79.225 1.992 1.67-14-81.325 271.772-71.547zm90.838-700.365l17.358 31.274-52.08-5.452zM318.048 765.99L1349.56 874.918l-445.35 330.836-.398.318 5.236 30.632zm650.574 806.847l-57.168-332.157 327.697 261.003z"/>
        </g>
        <g class="b">
            <path class="al" d="M1727.08 1036.873l55.918-125.914-1.379-1.157-58.396 131.667z"/>
            <path class="am" d="M1306.246 1538.402L954.03 1319.223l315.04-299.064 413.658 69.571 1.221-1.455-413.376-69.596 300.615-285.451-1.302-1.093-301.335 286.153-393.926-66.329 84.264-732.511-1.533-1.286-84.382 733.587-153.519-25.821-.287 1.586L872.763 953.4l-33.985 295.485-.028.5 112.602 70.072-173.217 164.427 1.303 1.093 173.345-164.58 352.37 219.308 1.093-1.303zm-353.648-220.118L840.52 1248.52l33.894-294.91 392.556 66.094z"/>
        </g>
        <g class="b">
            <path class="an" d="M720.052 927.082l-1.483-.722-186.564 350.997 1.303 1.092z"/>
            <path class="ao" d="M1196.715 1668.936l-11.074-132.262 171.707-59.172 2.057-2.451-173.912 59.933-55.465-660.735 476.941 14.845 88.742 185.162 1.222-1.455-88.718-184.88-.177-.41-478.157-14.952-42.69-509.03 35.4-6.718-1.685-1.414-34.772 6.591-.768.139 42.812 510.439-1001.994-31.159-1.562-.005 124.253 198.38 4.137 3.471-125.323-200.061 1000.637 31.064 55.513 661.298-243.915 84.087 1.455 1.221 242.608-83.617 11.25 133.453z"/>
            <path class="ap" d="M1792.772 958.583l9.53-31.426-1.302-1.093-10.992 35.813z"/>
            <path class="aq" d="M1130.251 1748.145l-30.837 5.325 1.61 1.35 27.556-4.683z"/>
        </g>
        <g class="b">
            <path class="ar" d="M983.827 1325.56l318.55 217.298 1.093-1.303-318.55-217.298 397.595-437.743 206.855 314.164 1.092-1.302-206.854-314.164 159.618-175.446-1.302-1.093-159.208 175.269-25.298-38.46 171.177-147.993-1.302-1.093-170.779 147.675-362.782-550.87-.484-.668L248.09 822.295l-1.002.726 667.375 455.3 23.659 95.174-126.192 138.877 1.303 1.093 125.343-138.022 76.433 307.332 2.145 1.8-77.292-310.664zM249.995 822.98l742.81-528.208 362.528 550.396-451.03 390.035-.399.318 10.056 40.29zM905.67 1236.22l450.504-389.562 25.45 38.587-398.121 438.215-67.64-46.182zm33.802 135.668l-22.977-92.252 65.902 44.985z"/>
        </g>
        <g class="b">
            <path class="as" d="M1746.877 1013.279l25.32-111.384-1.456-1.221-26.178 115.363z"/>
            <path class="at" d="M1311.517 1532.12L836.1 1283.19l12.645-292.766 840.29 78.099-8.558 23.888 3.086-3.677 7.187-20.077 8.947.85 1.285-1.533-9.663-.929 64.102-179.227-1.38-1.157-64.438 180.25-840.788-78.126 35.69-831.752-1.609-1.35L847.1 988.651 702.18 975.138l-144.207 324.01 1.302 1.092 143.987-323.28 143.767 13.33-12.519 293.394-.092.576 476.005 249.163z"/>
        </g>
        <g class="b">
            <path class="au" d="M1219.149 1642.201l1.414-1.685-14.152-89.546 139.817-60.216 2.378-2.834-142.484 61.372-80.013-504.843 156.225-156.623 302.545-12.699 112.684 196.767 1.157-1.38-112.607-196.701-.319-.398-301.764 12.701 213.846-214.403-1.302-1.093-214.951 215.565-179.343 7.598-80.914-511.08 100.612-26.406-1.532-1.285-100.189 26.368-.692.203 81.09 512.272-976.722 41.089 1.915 1.607 975.172-40.954 23.49 148.424-219.332 219.852 119.07 363.865-49.316 21.279 1.456 1.22 48.43-20.846 27.714 84.74 2.375 1.993-28.588-87.432 178.668-76.959zm-116.656-746.804l177.434-7.502-154.067 154.518zm-76.886 731.654l-118.625-362.839 217.765-218.295 79.798 504.01z"/>
        </g>
        <g class="b">
            <path class="av" d="M1654.702 1123.13l71.686-259.673-1.456-1.222-72.737 263.882z"/>
            <path class="aw" d="M1305.604 1539.168l1.092-1.302-316.388-182.848 365.635-467.173 237.385 308.583 1.092-1.302-237.537-308.711 157.31-201.01-1.302-1.093-157.118 200.78-429.12-557.844-.484-.667-711.223 580.951-.925.791 773.776 447.198-143.77 183.784 1.303 1.093 143.962-184.014zM216.904 908l708.975-579.051 428.878 557.51-365.944 467.696z"/>
        </g>
        <g class="b">
            <path class="ax" d="M1240.94 1616.233l-31.634-133.587 105.36 45.721 1.094-1.302-106.908-46.367-105.79-447.364 612.955 10.966-1.099 6.91 2.057-2.45.681-4.39 2.983.023 1.35-1.609-4.123-.065 24.991-165.442-1.455-1.222-25.174 166.594-613.596-10.98L954.67 405.714l161.563-54.239-1.455-1.221-161.358 54.15-.692.203 148.201 627.067-274.06-4.912L798.86 85.17l-1.685-1.414 28.066 943.08-136.57-2.461-.64-.015-106.758 294.47 1.38 1.157 106.59-293.958 135.993 2.369 8.64 291.046-.027.499 373.538 161.878 32.125 135.957 1.35-1.609zm-405.409-297.36l-8.656-290.407 274.484 4.875 105.499 446.467z"/>
        </g>
        <g class="b">
            <path class="ay" d="M1332.022 1507.684l2.764-3.294-277.706 144.892-146.453-357.21 338.509-393.463 77.442-8.904 270.53 302.062 1.092-1.302-269.586-301.01 233.146-27.07 138.824 205.908 1.093-1.302-138.9-205.972-.32-.398-235.335 27.19-35.09-39.234 174.743-202.961-1.302-1.093-174.538 202.872L860.07 366.151l-.549-.591-667.563 626.463 1.302 1.093 666.112-625.2 430.534 480.705-41.622 48.36-1027.906 118.89 1.762 1.478 1024.601-118.53-337.738 392.544-.321.383 146.898 358.236-49.01 25.582 1.379 1.157 48.33-25.239 41.067 100.252 2.758 2.314-42.401-103.33zm-41.006-657.74l34.223 38.245-74.484 8.646z"/>
        </g>
        <g class="b">
            <path class="az" d="M1637.218 1143.966l60.29-304.742-1.456-1.222-61.02 308.569z"/>
            <path class="ba" d="M1307.853 1536.487l1.093-1.302-109.842-53.137 119.484 41.646 1.157-1.379-133.616-46.585-187.587-90.698 485.01-725.34-1.303-1.092-485.407 725.658-164.605-79.507-126.72-1233.42 399.991 271.146-12.41-10.413L704.95 68.897l-1.507-1.004 127.018 1236.02-629.757-304.421 5.21 4.37 624.72 302.023 5.12 49.594 146.276 50.943-106.517 159.302 1.302 1.092 106.903-159.76 201.703 70.298zm-470.508-182.283l-4.87-47.557 163.504 79.106-12.934 19.303zm147.376 51.344l12.805-19.15 174.907 84.497z"/>
        </g>
        <g class="b">
            <path class="bb" d="M1257.652 1596.315l1.285-1.532-170.85-540.335 583.884-32.486 21.954 27.82-2.263 29.3 1.8-2.145 1.916-25.153 9.268 11.824 1.093-1.302-10.148-12.954 2.236-28.8 45.065-2.524 1.478-1.762-46.41 2.57 12.8-168.492-1.532-1.286-12.958 169.926-23.525 1.277-134.563-171.002-485.438 93.292-160.577-508.086 216.33-89.48-1.456-1.222-216.265 89.404-.68.344 160.97 509.33-746.806 143.415 1.609 1.35 745.69-143.177 34.33 108.437-406.301 22.628-.564.05-75.01 262.235 1.378 1.157 74.83-261.865 406.162-22.616zm438.472-575.757l-2.062 26.728-20.118-25.497zm-642.886-76.417l484.259-92.977 133.2 169.206-583.117 32.348z"/>
        </g>
        <g class="b">
            <path class="bc" d="M1129.865 1748.605l-38.773-78.094 217.918-135.403 3.407-4.06-1.68 1.07-358.857-141.726-35.138-70.604 343.103-464.278 342.65 329.682 1.093-1.303-342.726-329.746 173.969-235.331-1.302-1.093-173.905 235.255-460.916-443.41-.549-.59-571.346 612.296 1.302 1.093L798.228 411.38l460.456 443.024-343.553 464.814-.321.383 34.717 69.86-536.335-211.802 3.983 3.343 533.394 210.64 138.195 278.22-51.234 31.81 1.303 1.093 50.63-31.402 39.028 78.568 1.221-1.456zm-39.549-79.658l-137.33-276.451 355.993 140.628z"/>
        </g>
        <g class="b">
            <path class="bd" d="M1322.123 1519.481l1.157-1.379-323.5-86.473 213.5-376.564 430.41-56.182-19.469 160.416 1.928-2.298 19.219-158.407 127.658-16.634 1.543-1.838-128.99 16.821 22.206-182.66-1.532-1.285-22.353 184.234-429.641 56.044 237.961-419.873-1.302-1.093-238.837 421.227-420.162 54.86L618.157 124.26l733.482 424.744-7.354-6.17L617.46 121.978l-1.571-.927 174.416 987.557-117.693 15.336-.564.05-48.27 230.368 1.455 1.221 48.219-230.15 117.13-15.288 49.406 279.956.114.487 157.062 41.979-90.333 159.305 1.302 1.092 90.783-159.84zm-480.493-130.09l-49.358-279.393 418.907-54.607-213.063 375.887z"/>
        </g>
        <g class="b">
            <path class="be" d="M1274.3 1576.475l-.603.407-192.32-480.678 105.043-166.413 327.075-87.67L1674.978 1019l-.17 80.01 1.672-1.991.143-76.246 33.282 36.412 1.092-1.303-34.378-37.593.359-196.293-1.686-1.414-.319 195.935-160.615-175.893-.319-.398-326.306 87.533 213.086-337.488-1.303-1.093-214.141 339.213-154.593 41.42-200.763-501.73 266.986-132.74-1.378-1.157-267.063 132.676-.68.343 201.232 503.039-654.214 175.419 1.532 1.285 653.24-175.192 49.77 124.263-158.35 250.788 1.354.875 157.808-249.675 192.041 479.922-204.661 149.007 1.302 1.092 200.927-146.266 4.435-5.286zM1031.417 971.39l152.645-40.966-103.486 163.934z"/>
        </g>
    </g>
</svg>
