<svg xmlns="http://www.w3.org/2000/svg" viewBox="0 0 210.739 60.535">
    <defs>
        <style>
            .a{fill:#f5f5f5}.b{fill:#40b9a6}
        </style>
    </defs>
    <path class="a" d="M88.23 23.268V11.35h3.216v30.419H88.23v-2.913a10.6 10.6 0 0 1-15.134-.076 11.009 11.009 0 0 1 0-15.4 10.316 10.316 0 0 1 7.6-3.178 9.908 9.908 0 0 1 7.534 3.066zm-2.194 13.2a7.423 7.423 0 0 0 2.194-5.41 7.509 7.509 0 0 0-2.194-5.448 7.064 7.064 0 0 0-5.3-2.232 7.35 7.35 0 0 0-5.335 2.232 7.509 7.509 0 0 0-2.194 5.448 7.363 7.363 0 0 0 2.194 5.41 7.145 7.145 0 0 0 5.335 2.232 6.928 6.928 0 0 0 5.3-2.228z"/>
    <path class="a" d="M98.9 11.918a1.918 1.918 0 1 1-1.362-.568 2.018 2.018 0 0 1 1.362.568zM95.987 41.77h3.14V20.392h-3.14z"/>
    <path class="a" d="M124.437 38.743l-.113 1.173a10.6 10.6 0 0 1-3.594 6.621 10.228 10.228 0 0 1-7 2.648 11.138 11.138 0 0 1-5.41-1.438 10.832 10.832 0 0 1-4.048-3.784l2.724-1.7a7.309 7.309 0 0 0 2.913 2.648 7.963 7.963 0 0 0 3.859 1.017 7.172 7.172 0 0 0 5.221-2.157 7.707 7.707 0 0 0 2.27-5.3 10.642 10.642 0 0 1-15.1-.076 10.381 10.381 0 0 1-3.14-7.529 10.506 10.506 0 0 1 3.14-7.529 10.553 10.553 0 0 1 15.1-.076v-2.989h3.216v18.463zm-10.707-.341a7.558 7.558 0 0 0 7.493-7.491v-.038a7.245 7.245 0 0 0-2.194-5.221 7.063 7.063 0 0 0-5.3-2.232 7.491 7.491 0 0 0 0 14.983z"/>
    <path class="a" d="M131.892 11.918a1.918 1.918 0 1 1-1.362-.568 2.018 2.018 0 0 1 1.362.568zm-2.913 29.852h3.14V20.392h-3.14z"/>
    <path class="a" d="M163.067 20.355l-6.924 21.377h-2.989l-4.389-13.583-4.389 13.583h-2.989l-6.885-21.377h3.329l5.07 15.777 4.389-13.583h2.989l4.389 13.583 5.108-15.777z"/>
    <path class="a" d="M185.843 41.765h-3.216v-2.91a10.642 10.642 0 0 1-15.1-.076 10.747 10.747 0 0 1-3.136-7.714 10.623 10.623 0 0 1 3.14-7.718 10.376 10.376 0 0 1 7.6-3.178 10.235 10.235 0 0 1 7.491 3.14v-2.913h3.216zm-10.707-3.027a7.1 7.1 0 0 0 5.3-2.27 7.423 7.423 0 0 0 2.194-5.41v-.038a7.363 7.363 0 0 0-2.194-5.41 7.1 7.1 0 0 0-5.3-2.27 7.181 7.181 0 0 0-5.335 2.27 7.509 7.509 0 0 0-2.194 5.448 7.363 7.363 0 0 0 2.194 5.41 7.181 7.181 0 0 0 5.335 2.274z"/>
    <path class="a" d="M207.523 23.268V11.35h3.216v30.419h-3.216v-2.913a10.6 10.6 0 0 1-15.134-.076 11.009 11.009 0 0 1 0-15.4 10.316 10.316 0 0 1 7.6-3.178 9.963 9.963 0 0 1 7.534 3.066zm-2.232 13.2a7.423 7.423 0 0 0 2.194-5.41 7.51 7.51 0 0 0-2.194-5.448 7.064 7.064 0 0 0-5.3-2.232 7.35 7.35 0 0 0-5.335 2.232 7.509 7.509 0 0 0-2.194 5.448 7.363 7.363 0 0 0 2.194 5.41 7.145 7.145 0 0 0 5.335 2.232 6.873 6.873 0 0 0 5.3-2.228z"/>
    <path class="b" d="M30.268 0a30.268 30.268 0 1 0 30.268 30.268A30.308 30.308 0 0 0 30.268 0zM3.14 30.268a27.164 27.164 0 0 1 25.614-27.09v15.7l-12.712-6.356V28.64l14.226 7.113 11.2-5.6v9.307l-11.2 5.6-11.161-5.6v-5.978l-3.065-1.513v9.421l12.712 6.356V57.4A27.224 27.224 0 0 1 3.14 30.268zm28.679 27.09V47.71l12.712-6.356V25.236l-14.226 7.113-11.2-5.6v-9.307l11.2 5.6 11.2-5.6v6.016l3.065-1.513v-9.421L31.858 18.88V3.18a27.131 27.131 0 0 1-.038 54.179z"/>
</svg>
