<svg id="Слой_1" xmlns="http://www.w3.org/2000/svg" viewBox="0 0 51.4 31.5">
    <style>
        .st1{fill:#f5f5fd}.st2{fill:#d5d5d5}
    </style>
    <g class="st0">
        <path class="st1" d="M.1.5c3.8 1.7 7.7 3 11.6 3.8 3.5.7 7 1.1 10.5 1.1 8.7 0 15.8-2.1 20.9-3.7C45.8.9 48 .2 49.4.2c.5 0 .9.1 1.1.2.8.5.6 2 .3 2.8-.5 1.9-1.9 4.3-3.9 6.9-2.2 2.8-4.9 5.6-7.9 8-3.5 2.8-7.2 5-11 6.6-4.4 1.8-8.8 2.8-13.1 2.8h-.5v.5l.2-1.1c0 4.1-8.4 1.3-11.2 4.1C.8 33.9.1.5.1.5" transform="translate(0 .326)"/>
        <path class="st2" d="M49.2.7c-1.3 0-3.4.6-6.1 1.5-5.2 1.6-12.3 3.7-21 3.7-3.6 0-7.1-.4-10.6-1.1C7.5 3.9.7 1.3.1 1l14.1 26h-.5 1c4.3-.1 8.6-1 12.9-2.8 3.8-1.6 7.4-3.8 10.9-6.5 3-2.4 5.7-5.1 7.8-7.9 1.9-2.5 3.3-4.9 3.8-6.7.3-1.2.3-2-.1-2.3-.1-.1-.4-.1-.8-.1m0-1c.6 0 1 .1 1.4.3 4.8 3.1-13 27.7-35.8 28L.1 1 0 0c8.1 3.6 15.5 4.8 22 4.8 13.5 0 23.1-5.1 27.2-5.1z" transform="translate(0 .326)"/>
    </g>
    <path class="st1" d="M.1 1.4c3.7 1.6 7.5 3.3 11.3 4 3.4.7 6.8 1 10.2 1 8.5 0 15.3-2 20.3-3.4 2.7-.8 4.8-1.4 6.1-1.4.5 0 .8.1 1.1.2.8.5.5 1.9.3 2.6-.5 1.8-1.9 4-3.8 6.4-2.1 2.6-4.8 5.2-7.7 7.4-3.4 2.6-7 4.6-10.7 6.1C23 26.1 18.8 27 14.5 27l-.3.3-.2.1.2-1.1c0 3.8-8.2 1.2-10.9 3.9C.8 33 .1 1.9.1 1.9"/>
</svg>
