<svg xmlns="http://www.w3.org/2000/svg" viewBox="0 0 783.398 321.277"><defs><style>.a{fill:#f0f0fb;opacity:0.68;}.b,.c{stroke:none;}.c{fill:#d5d5d5;}</style></defs><g class="a" transform="translate(0 0.326)"><path class="b" d="M 731.9999389648438 320.4517517089844 L 14.99996566772461 320.4517517089844 C 11.1317663192749 320.4517517089844 7.493666172027588 318.8651733398438 4.755866050720215 315.9841613769531 C 2.011366128921509 313.0961608886719 0.4999661147594452 309.2545776367188 0.4999661147594452 305.1671752929688 L 0.4999661147594452 15.78456592559814 C 0.4999661147594452 11.69716644287109 2.011366128921509 7.855566024780273 4.755866050720215 4.967566013336182 C 7.493666172027588 2.086565971374512 11.1317663192749 0.4999660849571228 14.99996566772461 0.4999660849571228 L 731.8939819335938 0.4999660849571228 C 735.7171630859375 2.193197011947632 739.6246948242188 3.455227851867676 743.5098876953125 4.251266002655029 C 746.96826171875 4.959866046905518 750.5087890625 5.31916618347168 754.0330810546875 5.31916618347168 C 762.745849609375 5.31916618347168 769.7880859375 3.197365999221802 774.9300537109375 1.648166060447693 C 777.6627807617188 0.8247660994529724 779.8211669921875 0.1744660884141922 781.2152709960938 0.1744660884141922 C 781.7103881835938 0.1744660884141922 782.077392578125 0.255166083574295 782.3372802734375 0.4212660789489746 C 783.1660766601563 0.9489660859107971 782.8928833007813 2.424566030502319 782.6563720703125 3.257266044616699 C 782.1204833984375 5.143465995788574 780.7481689453125 7.578266143798828 778.7921752929688 10.11316585540771 C 776.6305541992188 12.91446590423584 773.8967895507813 15.66646575927734 770.8861694335938 18.07156562805176 C 767.4097900390625 20.84866523742676 763.7107543945313 23.0662670135498 759.8916625976563 24.66256523132324 C 755.5204467773438 26.48956680297852 751.1011962890625 27.44526672363281 746.756591796875 27.50286674499512 L 746.2627563476563 27.50946617126465 L 746.26318359375 28.00326538085938 L 746.4999389648438 305.1675720214844 C 746.4999389648438 309.2546691894531 744.9885864257813 313.0961608886719 742.244140625 315.9841613769531 C 739.50634765625 318.8651733398438 735.8682861328125 320.4517517089844 731.9999389648438 320.4517517089844 Z"/><path class="c" d="M 781.2154541015625 0.674468994140625 C 779.895263671875 0.674774169921875 777.7686767578125 1.315460205078125 775.076171875 2.126678466796875 C 769.904052734375 3.684967041015625 762.8206787109375 5.81915283203125 754.0330810546875 5.81915283203125 C 750.4751586914063 5.81915283203125 746.90087890625 5.456451416015625 743.4094848632813 4.741058349609375 C 739.5220947265625 3.944610595703125 735.613525390625 2.686187744140625 731.7884521484375 0.999969482421875 L 14.99993896484375 0.999969482421875 C 11.2701416015625 0.999969482421875 7.7607421875 2.5313720703125 5.1182861328125 5.31207275390625 C 2.46258544921875 8.106658935546875 0.99993896484375 11.82586669921875 0.99993896484375 15.78445434570313 L 0.99993896484375 305.1671752929688 C 0.99993896484375 309.1258544921875 2.46258544921875 312.8450622558594 5.1182861328125 315.6396789550781 C 7.7607421875 318.4202575683594 11.2701416015625 319.95166015625 14.99993896484375 319.95166015625 L 731.9999389648438 319.95166015625 C 735.7298583984375 319.95166015625 739.2392578125 318.4202575683594 741.8816528320313 315.6396789550781 C 744.537353515625 312.8450622558594 745.9999389648438 309.1258544921875 745.9999389648438 305.1680603027344 L 745.76318359375 28.00375366210938 L 745.7623901367188 27.01605224609375 L 746.7498779296875 27.00296020507813 C 751.0302734375 26.94607543945313 755.3868408203125 26.00347900390625 759.6988525390625 24.201171875 C 763.4750366210938 22.62277221679688 767.1340942382813 20.4290771484375 770.5740966796875 17.68087768554688 C 773.553955078125 15.30026245117188 776.2587890625 12.5777587890625 778.396240234375 9.80767822265625 C 780.3143920898438 7.321868896484375 781.656494140625 4.947052001953125 782.1753540039063 3.120574951171875 C 782.5082397460938 1.9488525390625 782.4686889648438 1.09765625 782.0680541992188 0.8426513671875 C 781.895751953125 0.732574462890625 781.6008911132813 0.67437744140625 781.2154541015625 0.674468994140625 M 781.2152099609375 -0.325531005859375 C 781.7876586914063 -0.325653076171875 782.2522583007813 -0.22637939453125 782.6064453125 -3.0517578125e-05 C 787.4205932617188 3.064453125 769.632080078125 27.69915771484375 746.76318359375 28.00286865234375 L 746.9999389648438 305.1671752929688 C 746.9999389648438 313.884765625 740.2842407226563 320.95166015625 731.9999389648438 320.95166015625 L 14.99993896484375 320.95166015625 C 6.71575927734375 320.95166015625 -6.103515625e-05 313.884765625 -6.103515625e-05 305.1671752929688 L -6.103515625e-05 15.78445434570313 C -6.103515625e-05 7.06695556640625 6.71575927734375 -3.0517578125e-05 14.99993896484375 -3.0517578125e-05 L 731.9999389648438 -3.0517578125e-05 C 740.1013793945313 3.604949951171875 747.5147705078125 4.81915283203125 754.0330810546875 4.81915283203125 C 767.4569091796875 4.81915283203125 777.097412109375 -0.324615478515625 781.2152099609375 -0.325531005859375 Z"/></g></svg>