<svg xmlns="http://www.w3.org/2000/svg" viewBox="0 0 159.878 124.19" width="159.878" height="124.19">
    <defs>
        <style>
            .a{fill:#fff}.b{fill:#191919}
        </style>
    </defs>
    <path class="a" d="M153.022 34.585c-4.14-4.573-10-8.658-17.466-12.145-14.916-6.974-34.688-10.8-55.641-10.8s-40.725 3.849-55.641 10.8c-7.43 3.487-13.3 7.58-17.466 12.145-4.5 5.006-6.809 10.413-6.809 16.018 0 5.628 2.306 11.02 6.832 16.041 4.164 4.6 10.028 8.682 17.466 12.145 14.916 6.974 34.688 10.8 55.641 10.8 20.976 0 40.725-3.849 55.641-10.8 7.454-3.487 13.326-7.58 17.466-12.145 4.526-5.006 6.832-10.39 6.832-16.018-.031-5.644-2.314-11.035-6.856-16.041z"/>
    <path class="b" d="M151.597 35.86c-3.967-4.376-9.618-8.32-16.836-11.689-14.672-6.855-34.133-10.633-54.822-10.633s-40.151 3.778-54.822 10.634c-7.194 3.369-12.869 7.312-16.836 11.689-4.211 4.668-6.352 9.626-6.352 14.75S4.07 60.717 8.257 65.354c3.991 4.4 9.65 8.343 16.836 11.712C39.765 83.922 59.23 87.7 79.915 87.7s40.174-3.778 54.822-10.634c7.218-3.369 12.869-7.312 16.836-11.712 4.211-4.644 6.328-9.595 6.328-14.743.024-5.124-2.094-10.107-6.3-14.75z"/>
    <path class="a" d="M67.959 0l-1.133 1.37a60.2 60.2 0 0 1-4.668 5.053 31.907 31.907 0 0 1-3.463 2.55l-5.7-2.645-12.074 5.919-4.423-9.933s-12.484 10.366-20.3 10.028a34.765 34.765 0 0 1-3.778-.771l1.3 18.765 6.714-.913c.291 1.952.6 4.959.653 6.809a57.217 57.217 0 0 1-1.684 13.011l-.268.913.549.744c.024.024 2.385 3.463 2.739 10.846a39.432 39.432 0 0 1-13.782 4.117l-2.259.291.677 2.165c.165.575 4.305 14.05 10 23.479l1.008 1.684 1.661-1.055c1.11-.7 10.051-7.1 13.664-10.028 1.8.677 5.51 2.023 8.375 2.794a50.28 50.28 0 0 1 1.322 15.443l-.095 1.543 1.464.433a46.188 46.188 0 0 0 8.658 1.3l2.235.142.677.047.551-.386c.362-.268 8.343-5.943 10.516-7.556h.22c1.008 0 3.605.291 9.674 2.306l1.952.653.5-2 5.289-20.662a58.949 58.949 0 0 0 7.076 4.88l.842.48.889-.409a42.393 42.393 0 0 0 8.973-5.848 121.432 121.432 0 0 1-1.59 17.316l-.338 2.07 11.665.527.362-.189c2.763-1.519 6.328-3.227 7.171-3.322.024 0 3.991-.527 9.91 1.684a18 18 0 0 0 4.994.655c.457 0 14.963-.5 14.963-.5l-6.132-19v-.024c-.024-.094-3.172-11.523-3.172-11.523s-9.335-8.587-10.563-13.83c-.362-6.2 7.454-10.366 7.454-10.366l-1.031-5.077a9.255 9.255 0 0 1 2.574-.653c.724-.071 1.826-.094 3.251-.094 2.5 0 5.148.118 5.171.118l2.046.094-.047-2.047-.291-13.231v-.244l-.071-.244c-.118-.386-2.739-9.674-4.691-13.5l-.937-1.826-1.755 1.008a59.21 59.21 0 0 1-12.507 4.88l-1.488.409.094 1.566a10.424 10.424 0 0 1-.268 3.274c-.527 1.637-18.859-4.353-18.859-4.353l-14.577.937-12.295-8.422-1.008.724-4.526 3.3-6.588-4.644z"/>
    <path class="b" d="M138.705 64.275s-9.332-8.178-10.752-14.577c0 0-.771-6.612 7.218-11.594l-1.055-5.219a10.708 10.708 0 0 1 4.573-1.519c2.668-.268 8.705 0 8.705 0l-.291-13.231s-2.668-9.43-4.549-13.16a61.362 61.362 0 0 1-12.964 5.077s.142 3.66-.7 4.982c0 0-.795 1.157-5.651.047-4.809-1.086-12.657-3.345-14.845-4.014-.024 0-.047-.024-.071-.024 0 0-12 .653-12.8.748l.409 3.274-5.439-.142s1.519-4.014 1.519-4.093c0 0-10-6.69-10.319-6.856l-5.651 4.093-7.722-5.463a65.889 65.889 0 0 1-4.88 5.266 31.033 31.033 0 0 1-4.644 3.274l-5.415-2.645s-.724.291-2.023.866a115.09 115.09 0 0 0-11.382 5.651l-3.991-9.437s-13.4 11.232-21.244 8.635l1.252 13.688s5.943-1.031 5.943-.937a87 87 0 0 1 1.133 9.217 59.3 59.3 0 0 1-1.755 13.546s2.983 4.061 3.148 13.034c0 0-5.077 3.605-15.49 4.959 0 0 4.164 13.711 9.815 23.047 0 0 12.436-8.2 14.939-10.61a104.345 104.345 0 0 0 10.272 3.392 61.692 61.692 0 0 1 1.11 17.151 44.328 44.328 0 0 0 8.249 1.228l2.235.142s9.241-6.564 10.752-7.745c0 0 1.275-1.11 11.382 2.212l6.037-23.6a66.171 66.171 0 0 0 9.138 6.643 43.5 43.5 0 0 0 11.618-8.375s.653 8.131-1.543 21.913c0 0 7.383.527 8.879.409 0 0 6.352-3.463 7.966-3.558 0 0 3.755-.22 10.61 1.755a16.732 16.732 0 0 0 5.675.527l11.067-.362s-4.833-14.719-5.337-16.671c-.079.039-2.558-8.548-3.133-10.949"/>
    <path class="a" d="M24.078 122.411a9.084 9.084 0 0 1-5.7 1.779 8.548 8.548 0 0 1-5.51-1.8 5.092 5.092 0 0 1 .024-7.91 8.7 8.7 0 0 1 5.51-1.826c2.841 0 5.006.889 6.352 2.574l-2.739.96a4.819 4.819 0 0 0-3.6-1.417c-2.818 0-4.786 1.566-4.786 3.629a3.18 3.18 0 0 0 1.59 2.763 5.992 5.992 0 0 0 3.2.889 5.218 5.218 0 0 0 4.715-2.283h-5.298v-2.094h8.2v.622a5.152 5.152 0 0 1-1.96 4.117zm29.517 1.472l-1.252-2.33h-6.974l-1.252 2.33h-2.668l5.769-10.87h3.278l5.769 10.87zm-4.762-8.9l-2.385 4.447h4.786zm37.167 8.9v-7.721h-.047l-5.171 6.234-5.171-6.234h-.071v7.721h-2.644v-10.87h3.1l4.786 5.77 4.786-5.77h3.1v10.87zm21.118 0v-10.87h11.791v2.094h-9.138v2.212h6.352v2.094h-6.352v2.385h9.571v2.094h-12.224zm35.168-9.02c-2.259 0-3.44.433-3.44 1.133 0 .386.315.622.937.771a32.8 32.8 0 0 0 4.117.339c3.416.315 5.053 1.133 5.053 3.274 0 2.361-2.212 3.755-6.352 3.755a11.853 11.853 0 0 1-7.076-2.047l1.44-1.779a10.687 10.687 0 0 0 5.746 1.684c2.188 0 3.416-.622 3.416-1.519 0-.96-1.417-.96-3.731-1.055-4.235-.189-6.328-1.008-6.328-3.2 0-2.141 2.141-3.487 6.061-3.487a11.379 11.379 0 0 1 6.4 1.59l-1.488 1.732a9.8 9.8 0 0 0-4.754-1.2zM71.737 30.477a21.892 21.892 0 0 0 8.178-2.692c-3.967 6.73-8.178 2.692-8.178 2.692m17.513-8.54a24.424 24.424 0 0 1-3.849 2.527.352.352 0 0 1-.142-.024 22.674 22.674 0 0 1-1.85-3.054 2.282 2.282 0 0 1-.142-.362 20.85 20.85 0 0 1-1.157-3.558 16.888 16.888 0 0 0 .527 4.549 8.5 8.5 0 0 0 1.488 2.818.153.153 0 0 1-.024.244 20.408 20.408 0 0 1-2.794 1.464.306.306 0 0 1-.244-.024 19.314 19.314 0 0 1-4.526-7.84c0-.024 0-.024-.024-.047a22.934 22.934 0 0 0 .842 4.809 9.992 9.992 0 0 0 2.259 3.534c.047.047.142.118.071.189a15.712 15.712 0 0 1-3.9 1.252c-.047 0-.142 0-.165-.024-.315-.433-2.117-2.889-2.621-3.8a40.387 40.387 0 0 1-2.303-5.944s.771 7.91 3.51 10.248c0 0-2.33 1.228-4.014.795 0 0-1.055 0-2.936-3.873a52.9 52.9 0 0 0-6.643-9.792c-.024-.024-.024-.071.024-.071a9.668 9.668 0 0 0 2.692-1.488s2.983-4.164 4.738-6.061c.024-.024.047-.071.118-.024l6.061 4.786s.094.118.189.024 3.172-2.763 3.172-2.763.047-.071.142 0l3.322 1.9s.094.047.142-.024l2.409-2.739a.119.119 0 0 1 .142-.024c.071.071 4.187 3.487 4.187 3.487a.183.183 0 0 1 0 .165c-.315.5-1.417 2.763.6 6.234-.024-.11 1.11 2.149.7 2.511"/>
    <path class="a" d="M117.004 32.547s-.22 5.242-.268 5.848a18.905 18.905 0 0 1-.362 3.967s-3.991 10.776-5.919 12.051l-.96-7.147-2.479 5.053s.362-3.849 1.322-5.242c0 0 3.463-6.9 3.534-7.627 0 0 .772-1.519.189-1.873 0 0-6.95-6.9-14.916-7.942l16.86-.748s7 4.982 7.6 5.486a11.149 11.149 0 0 1-4.6-1.826M93.216 56.499c-5.392-.551-6.809-5.8-6.809-5.8a5.074 5.074 0 0 0 .937 3.44 3.911 3.911 0 0 1-2-3.345c-.268 2.479 1.614 5.1 1.614 5.1a6.547 6.547 0 0 1-2.668-5.392c.047-4.282.165-5.848 3.03-9.359s4.5-3.629 6.47-4.014a13.939 13.939 0 0 1 4.549.142c5.439.724 6.541 3.873 6.541 3.873a14.11 14.11 0 0 0-4.211-1.779c7.871 8.265-.842 17.812-7.454 17.135M48.421 41.183s.937-2.283.622-3.369a1.155 1.155 0 0 0-.071-.165 11.022 11.022 0 0 1-14 .819 7.4 7.4 0 0 0 2.889.748l.047-8.493s-1.251.409-3.684 2.889c0 0 2.283-5.463 11.429-8.493a59.486 59.486 0 0 0 7.218 4.258c.008-.008-.551 8.871-4.447 11.807m94.2-25.117a28.8 28.8 0 0 0-2.479-5.7l-7.407 3.755c-2.668 7.966-7.241 6.2-10.563 6.014-3.3-.189-14.365-4.424-14.365-4.424a2.579 2.579 0 0 1-.268-.094l-7.9.905s1.346 5.557.937 7.722-2 2.716-6.926 3.581-4.644.866-7.556 2.668c-2.889 1.8-7.816 7.6-7.816 7.6-.189.071-4.062.819-4.062.819-4.093.724-5.77-.165-5.77-.165-1.92-.677-5.077-3.581-5.077-3.581-.189-.118-.142-.268-.142-.268a40.5 40.5 0 0 0 1.566-4.061c.22-.913.189-1.275-1.826-4.62a32.117 32.117 0 0 0-3.44-4.982c-1.921-2.527-8.517-6.376-8.517-6.376a.415.415 0 0 0-.189-.071l-3.1 2.739c-3.6.677-10.177 3.967-10.177 3.967a43.51 43.51 0 0 0-3.983-10.768c-10.461 8.06-15.585 6.832-15.585 6.832l.653 7.674a25.106 25.106 0 0 0 12.318-4.164c-1.755 2.621-5.99 4.856-5.99 4.856 1.873 3.943 2.763 6.4 3.1 9.43s-2.046 13.279-2.046 13.279c.575 1.031 2.456 10.461 2.456 10.461a25.648 25.648 0 0 1-.48 9.981l-.024-3.731-2.05-.188a9.548 9.548 0 0 1-2.33 2.5c-1.37.984-6.974 2.33-6.974 2.33.094.22 1.417 5.148 2 6.643s3.392 7.312 3.392 7.312c2.889-1.637 10.681-7.863 10.681-7.863a10.849 10.849 0 0 1 3.03-1.873c.527-.22 1.708-.189 2.889-.409 1.157-.22 5.966-3.369 5.966-3.369-.409-.315-3.172-6.95-3.778-8.564-.575-1.614-1.543-8.3-1.543-8.3-.315-.22-4.982.48-4.982.48 4.376-4.14 10.972-3.251 10.972-3.251 5.148-.118 6.541 9.91 6.541 9.91-.244.189-4.471 9.406-4.471 9.406a10.448 10.448 0 0 0-1.031 7.407c.315.48 1.779 8.225 1.779 8.225.409.889 1.008 11 1.008 11l5.8-.024c10.461-6.667 9.744-6.179 11.138-6.541 1.417-.362 7.359 1.488 7.359 1.488l5.124-12.192-12.531-5.1-.118 3.967c-2.283-1.37-1.8-8.855-1.59-10.634s1.417-11.232 1.417-11.232a5.251 5.251 0 0 0-.7-4.117c0-.1-5.667-8.17-5.667-8.17a17.718 17.718 0 0 1-15.734 4.6 21.114 21.114 0 0 0 17.293-9.792l4.164 1.8c.024.22-1.228 4.786-1.228 4.786 3.778 1.661 5.6 6.4 5.581 6.328-.024-.047-3.054-2.936-3.054-2.936l-.315 2.141a4.268 4.268 0 0 1 1.275 1.37c1.322 1.322.771 4.447.771 4.447.118.118-1.873 14.388-1.873 14.388l13.035 5.581a20.575 20.575 0 0 0-.189-8.784c-.551-2.165-3.629-12.318-3.629-12.318-1.488-5.289.984-11.98.984-11.98l2.235.362a46.316 46.316 0 0 0-.315 10.539c1.614 13.711 14.412 20.4 14.412 20.4a59.811 59.811 0 0 0 16.38-13.711c.433 4.061-1.275 26.313-1.275 26.313 1.755.291 3.967.409 3.967.409.433-.024 7.43-2.842 7.43-2.842a.469.469 0 0 1 .386-.047l12.027 1.9c.527.047 7.887 0 7.887 0a119.944 119.944 0 0 1-3.078-19.2l-11.11-13.134v.024c.409 4.093.96 5.439 1.157 5.848-4.376-6.667-2.094-12.342-1.157-15.2.937-2.889 4.786-9.65 4.786-9.65-.48-7.289-1.9-10.413-1.9-10.413 1.614.842 2.094 3.92 2.094 3.92 4.833-3.684 12.7-2.818 12.7-2.818a76.5 76.5 0 0 0-.386-10.453"/>
</svg>
