<?xml version="1.0" encoding="UTF-8"?><!DOCTYPE svg PUBLIC "-//W3C//DTD SVG 1.1//EN" "http://www.w3.org/Graphics/SVG/1.1/DTD/svg11.dtd"><svg xmlns="http://www.w3.org/2000/svg"><defs>
        <style>
            .a{fill:#191919;fill-rule:evenodd}
        </style>
    
        <style>
            .a{fill:#191919;fill-rule:evenodd}
        </style>
    
        <style>
            .a{fill:#fff}
        </style>
    
        <style>
            .cls-1{fill:#191919}
        </style>
    </defs><symbol id="icon-arrow-left" viewBox="0 0 9.25 15">
    
    <path class="a" d="M9.25 1.75L7.5 0 0 7.5 7.5 15l1.75-1.75L3.5 7.5z"/>
</symbol><symbol id="icon-arrow-right" viewBox="0 0 9.25 15">
    
    <path class="a" d="M0 1.75L1.75 0l7.5 7.5-7.5 7.5L0 13.25 5.75 7.5z"/>
</symbol><symbol id="icon-close-envelope" viewBox="0 0 24.318 17.37">
    
    <path class="a" d="M12.159 12.159L9.151 9.526.551 16.9a1.761 1.761 0 0 0 1.2.471h20.82a1.748 1.748 0 0 0 1.2-.471l-8.6-7.374z"/>
    <path class="a" d="M23.769.471a1.749 1.749 0 0 0-1.2-.471H1.749a1.742 1.742 0 0 0-1.2.474l11.607 9.948z"/>
    <path class="a" d="M0 1.525v14.431l8.4-7.134z"/>
    <path class="a" d="M15.923 8.822l8.4 7.134V1.52z"/>
</symbol><symbol id="icon-facebook" viewBox="0 0 10 19">
    <title>
        facebook
    </title>
    <path d="M9.766.157v2.946H8.014c-.64 0-1.071.134-1.295.402-.223.268-.335.67-.335 1.205v2.11h3.27l-.435 3.303H6.384v8.471H2.97v-8.47H.123V6.82H2.97V4.387c0-1.384.387-2.457 1.161-3.22C4.904.404 5.934.023 7.222.023c1.093 0 1.941.045 2.544.134z" fill-rule="evenodd"/>
</symbol><symbol id="icon-google" viewBox="0 0 640 512">
    <path fill="currentColor" d="M386.061 228.496c1.834 9.692 3.143 19.384 3.143 31.956C389.204 370.205 315.599 448 204.8 448c-106.084 0-192-85.915-192-192s85.916-192 192-192c51.864 0 95.083 18.859 128.611 50.292l-52.126 50.03c-14.145-13.621-39.028-29.599-76.485-29.599-65.484 0-118.92 54.221-118.92 121.277 0 67.056 53.436 121.277 118.92 121.277 75.961 0 104.513-54.745 108.965-82.773H204.8v-66.009h181.261zm185.406 6.437V179.2h-56.001v55.733h-55.733v56.001h55.733v55.733h56.001v-55.733H627.2v-56.001h-55.733z"/>
</symbol><symbol id="icon-Group235" viewBox="0 0 18.56 18.56">
    
    <title>
        &#x420;&#x435;&#x441;&#x443;&#x440;&#x441; 2
    </title>
    <g id="&#x421;&#x43B;&#x43E;&#x439;_2" data-name="&#x421;&#x43B;&#x43E;&#x439; 2">
        <path class="cls-1" d="M9.28 0a9.28 9.28 0 1 0 9.28 9.28A9.3 9.3 0 0 0 9.28 0zM1 9.28A8.34 8.34 0 0 1 8.82 1v4.79l-3.9-1.95v4.94L9.28 11l3.43-1.72v2.82l-3.43 1.72-3.42-1.72v-1.83l-.94-.47v2.89l3.9 2v3A8.35 8.35 0 0 1 1 9.28zm8.8 8.31v-3l3.9-2V7.74L9.29 9.92 5.86 8.2V5.35l3.43 1.71 3.44-1.71v1.84l.94-.46V3.84l-3.9 2V1a8.32 8.32 0 0 1 0 16.61z" id="&#x421;&#x43B;&#x43E;&#x439;_1-2" data-name="&#x421;&#x43B;&#x43E;&#x439; 1"/>
    </g>
</symbol><symbol id="icon-icon" viewBox="0 0 19 19">
    <title>
        Group235
    </title>
    <path d="M9.28 0a9.28 9.28 0 1 0 9.28 9.28A9.292 9.292 0 0 0 9.28 0zM.963 9.28A8.328 8.328 0 0 1 8.816.974v4.814l-3.9-1.949v4.942l4.362 2.181 3.434-1.717V12.1l-3.434 1.717L5.856 12.1v-1.833l-.94-.464v2.888l3.9 1.949v2.96A8.347 8.347 0 0 1 .963 9.28zm8.793 8.306v-2.958l3.9-1.949V7.737L9.294 9.918 5.86 8.201V5.347l3.434 1.717 3.434-1.717v1.844l.94-.464V3.84l-3.9 1.949V.975a8.318 8.318 0 0 1-.012 16.611z" fill-rule="nonzero"/>
</symbol><symbol id="icon-twitch" viewBox="0 0 448 512">
    <path fill="currentColor" d="M40.1 32L10 108.9v314.3h107V480h60.2l56.8-56.8h87l117-117V32H40.1zm357.8 254.1L331 353H224l-56.8 56.8V353H76.9V72.1h321v214zM331 149v116.9h-40.1V149H331zm-107 0v116.9h-40.1V149H224z"/>
</symbol><symbol id="icon-twitter" viewBox="0 0 512 512">
    <path fill="currentColor" d="M459.37 151.716c.325 4.548.325 9.097.325 13.645 0 138.72-105.583 298.558-298.558 298.558-59.452 0-114.68-17.219-161.137-47.106 8.447.974 16.568 1.299 25.34 1.299 49.055 0 94.213-16.568 130.274-44.832-46.132-.975-84.792-31.188-98.112-72.772 6.498.974 12.995 1.624 19.818 1.624 9.421 0 18.843-1.3 27.614-3.573-48.081-9.747-84.143-51.98-84.143-102.985v-1.299c13.969 7.797 30.214 12.67 47.431 13.319-28.264-18.843-46.781-51.005-46.781-87.391 0-19.492 5.197-37.36 14.294-52.954 51.655 63.675 129.3 105.258 216.365 109.807-1.624-7.797-2.599-15.918-2.599-24.04 0-57.828 46.782-104.934 104.934-104.934 30.213 0 57.502 12.67 76.67 33.137 23.715-4.548 46.456-13.32 66.599-25.34-7.798 24.366-24.366 44.833-46.132 57.827 21.117-2.273 41.584-8.122 60.426-16.243-14.292 20.791-32.161 39.308-52.628 54.253z"/>
</symbol><symbol id="icon-youtube" viewBox="0 0 576 512">
    <path fill="currentColor" d="M549.655 124.083c-6.281-23.65-24.787-42.276-48.284-48.597C458.781 64 288 64 288 64S117.22 64 74.629 75.486c-23.497 6.322-42.003 24.947-48.284 48.597-11.412 42.867-11.412 132.305-11.412 132.305s0 89.438 11.412 132.305c6.281 23.65 24.787 41.5 48.284 47.821C117.22 448 288 448 288 448s170.78 0 213.371-11.486c23.497-6.321 42.003-24.171 48.284-47.821 11.412-42.867 11.412-132.305 11.412-132.305s0-89.438-11.412-132.305zm-317.51 213.508V175.185l142.739 81.205-142.739 81.201z"/>
</symbol></svg>