<svg xmlns="http://www.w3.org/2000/svg" viewBox="0 0 226.918 75.207" width="226.92" height="75.21">
    <defs>
        <style>
            .a{fill:#fff;fill-rule:evenodd}
        </style>
    </defs>
    <path class="a" d="M221.736 25.932l-9.076-9.075h-16.859V5.185h-14.266V58.35h14.266V31.118h11.668V58.35h14.266zm-45.385-9.075h-22.044l-9.078 9.075v23.34l9.078 9.079h22.044V44.088h-16.859v-12.97h16.859zm-36.309 0h-11.668V5.185h-14.266v44.086l9.073 9.08h16.857V44.088H128.37v-12.97h11.668zM108.921 5.185H94.659v6.486h14.262zm0 11.672H94.659V58.35h14.262zm-19.449 0H75.208v27.231h-5.186V16.857H55.758v27.231h-5.185V16.857H36.307V58.35h44.089l9.075-9.079zm-58.351 0H19.452V5.185H5.188v44.086l9.077 9.079h16.856V44.088H19.452v-12.97h11.669zm195.8 6.481v38.9l-19.449 12.968h-12.966V68.72l-9.077 6.486H173.76V68.72l-6.482 6.486H146.53l-6.486-6.486-1.3 6.486h-18.151l-7.423-6.486-.416 6.486H92.181l-.728-6.486-5.569 6.486H54.46l-6.484-2.594v2.594H31.121L11.67 63.533 0 51.865V-.004h24.639l11.669 11.671h53.164V-.004h44.087v11.671h11.67v6.482l6.486-6.482h12.966L176.353-.004h24.637v11.671h14.264z"/>
</svg>
