<svg xmlns="http://www.w3.org/2000/svg" xmlns:xlink="http://www.w3.org/1999/xlink" viewBox="0 0 1455.4 1084.9">
    <defs>
        <style>
            .a{opacity:.31}.b{opacity:.6}.c{fill:url(#a)}.d{fill:url(#b)}.e{fill:url(#c)}.f{fill:url(#d)}.g{fill:url(#e)}.h{fill:url(#f)}.i{fill:url(#g)}.j{fill:url(#h)}.k{fill:url(#i)}.l{fill:url(#j)}.m{fill:url(#k)}.n{fill:url(#l)}.o{fill:url(#m)}.p{fill:url(#n)}.q{fill:url(#o)}.r{fill:url(#p)}.s{fill:url(#q)}.t{fill:url(#r)}.u{fill:url(#s)}.v{fill:url(#t)}.w{fill:url(#u)}.x{fill:url(#v)}.y{fill:url(#w)}.z{fill:url(#x)}.aa{fill:url(#y)}.ab{fill:url(#z)}.ac{fill:url(#aa)}.ad{fill:url(#ab)}.ae{fill:url(#ac)}.af{fill:url(#ad)}.ag{fill:url(#ae)}.ah{fill:url(#af)}.ai{fill:url(#ag)}.aj{fill:url(#ah)}.ak{fill:url(#ai)}.al{fill:url(#aj)}.am{fill:url(#ak)}.an{fill:url(#al)}.ao{fill:url(#am)}.ap{fill:url(#an)}.aq{fill:url(#ao)}.ar{fill:url(#ap)}.as{fill:url(#aq)}.at{fill:url(#ar)}.au{fill:url(#as)}.av{fill:url(#at)}.aw{fill:url(#au)}.ax{fill:url(#av)}.ay{fill:url(#aw)}.az{fill:url(#ax)}.ba{fill:url(#ay)}.bb{fill:url(#az)}.bc{fill:url(#ba)}.bd{fill:url(#bb)}.be{fill:url(#bc)}
        </style>
        <radialGradient id="a" cx="1489.064" cy="396.158" r="1269.393" gradientTransform="matrix(.936 0 0 .936 76.458 25.392)" gradientUnits="userSpaceOnUse">
            <stop offset=".065" stop-color="#40b9a6"/>
            <stop offset=".35" stop-color="#00aaa2"/>
            <stop offset=".418" stop-color="#00a299"/>
            <stop offset=".618" stop-color="#008f84"/>
            <stop offset=".814" stop-color="#008377"/>
            <stop offset="1" stop-color="#007f73"/>
        </radialGradient>
        <radialGradient id="b" cx="1194.759" cy="503.696" r="1348.757" gradientTransform="matrix(.793 0 0 .793 229.692 104.412)" xlink:href="#a"/>
        <radialGradient id="c" cx="1467.366" cy="690.917" r="1323.083" gradientTransform="matrix(.904 0 0 .904 116.964 66.635)" xlink:href="#a"/>
        <radialGradient id="d" cx="1241.916" cy="419.527" r="1277.922" gradientTransform="matrix(.882 0 0 .882 120.253 49.615)" xlink:href="#a"/>
        <radialGradient id="e" cx="1171.773" cy="652.246" r="1516.434" gradientTransform="matrix(.774 0 0 .774 252.551 147.343)" xlink:href="#a"/>
        <radialGradient id="f" cx="1443.982" cy="576.316" r="1439.53" gradientTransform="matrix(.878 0 0 .878 149.022 70.173)" xlink:href="#a"/>
        <radialGradient id="g" cx="1265.308" cy="338.931" r="1123.206" gradientTransform="matrix(.938 0 0 .938 59.921 21.013)" xlink:href="#a"/>
        <radialGradient id="h" cx="1154.308" cy="664.845" r="1194.308" gradientTransform="matrix(.982 0 0 .982 17.733 12.224)" xlink:href="#a"/>
        <radialGradient id="i" cx="1154.279" cy="664.836" r="1540.844" gradientTransform="matrix(.761 0 0 .761 269.007 159.005)" xlink:href="#a"/>
        <radialGradient id="j" cx="1419.019" cy="468.858" r="292.008" gradientTransform="translate(7.346 1473.169) scale(4.086)" xlink:href="#a"/>
        <radialGradient id="k" cx="1419.371" cy="468.861" r="1391.503" gradientTransform="matrix(.857 0 0 .857 175.375 66.885)" xlink:href="#a"/>
        <radialGradient id="l" cx="1178.018" cy="372.895" r="1462.225" gradientTransform="matrix(.752 0 0 .752 289.541 92.604)" xlink:href="#a"/>
        <radialGradient id="m" cx="1393.775" cy="640.604" r="1465.066" gradientTransform="matrix(.842 0 0 .842 194.357 101.441)" xlink:href="#a"/>
        <radialGradient id="n" cx="1357.785" cy="493.961" r="2332.292" gradientTransform="matrix(.46 0 0 .46 123.267 -237.937)" xlink:href="#a"/>
        <radialGradient id="o" cx="1358.041" cy="493.961" r="1018.456" gradientTransform="translate(-50.341 -26.682) scale(1.054)" xlink:href="#a"/>
        <radialGradient id="p" cx="1203.12" cy="352.987" r="1502.005" gradientTransform="matrix(.747 0 0 .747 303.256 89.225)" xlink:href="#a"/>
        <radialGradient id="q" cx="1367.802" cy="768.788" r="1395.738" gradientTransform="matrix(.831 0 0 .831 206.475 130.26)" xlink:href="#a"/>
        <radialGradient id="r" cx="1414.387" cy="405.169" r="948.444" gradientTransform="translate(-105.955 -45.998) scale(1.114)" xlink:href="#a"/>
        <radialGradient id="s" cx="1227.46" cy="589.544" r="1666.385" gradientTransform="matrix(.745 0 0 .745 312.411 150.05)" xlink:href="#a"/>
        <radialGradient id="t" cx="1340.971" cy="545.9" r="1383.628" gradientTransform="matrix(.823 0 0 .823 213.064 96.623)" xlink:href="#a"/>
        <radialGradient id="u" cx="1254.039" cy="430.272" r="1605.064" gradientTransform="matrix(.749 0 0 .749 313.255 108.058)" xlink:href="#a"/>
        <radialGradient id="v" cx="1250.905" cy="562.714" r="1523.178" gradientTransform="matrix(.821 0 0 .821 200.177 100.825)" xlink:href="#a"/>
        <radialGradient id="w" cx="1250.323" cy="562.71" r="1870.313" gradientTransform="matrix(.668 0 0 .668 412.356 -22.076)" xlink:href="#a"/>
        <radialGradient id="x" cx="1442.317" cy="593.896" r="862.719" gradientTransform="translate(-191.762 -129.812) scale(1.219)" xlink:href="#a"/>
        <radialGradient id="y" cx="1280.127" cy="455.729" r="1622.656" gradientTransform="matrix(.755 0 0 .755 308.631 111.529)" xlink:href="#a"/>
        <radialGradient id="z" cx="1289.05" cy="536.51" r="1458.95" gradientTransform="matrix(.823 0 0 .823 203.874 94.961)" xlink:href="#a"/>
        <radialGradient id="aa" cx="1405.612" cy="482.206" r="1019.677" gradientTransform="translate(-120.223 -63.824) scale(1.132)" xlink:href="#a"/>
        <radialGradient id="ab" cx="1405.559" cy="482.21" r="1305.077" gradientTransform="matrix(.885 0 0 .885 5.966 -59.11)" xlink:href="#a"/>
        <radialGradient id="ac" cx="1307.829" cy="509.917" r="1631.704" gradientTransform="matrix(.766 0 0 .766 296.249 119.122)" xlink:href="#a"/>
        <radialGradient id="ad" cx="1215.08" cy="624.003" r="221.946" gradientTransform="translate(866.498 -2287.993) scale(4.667)" xlink:href="#a"/>
        <radialGradient id="ae" cx="1263.087" cy="623.816" r="1249.784" gradientTransform="matrix(.828 0 0 .828 191.63 107.002)" xlink:href="#a"/>
        <radialGradient id="af" cx="1586.62" cy="509.036" r="2046.357" gradientTransform="matrix(.553 0 0 .553 130.872 185.878)" xlink:href="#a"/>
        <radialGradient id="ag" cx="1587.825" cy="509.039" r="897.603" gradientTransform="translate(-259.322 -132.986) scale(1.261)" xlink:href="#a"/>
        <radialGradient id="ah" cx="1587.745" cy="509.028" r="1104.686" gradientTransform="translate(-4.789 12.762) scale(1.025)" xlink:href="#a"/>
        <radialGradient id="ai" cx="1054.861" cy="482.219" r="1412.849" gradientTransform="matrix(.782 0 0 .782 215.572 105.283)" xlink:href="#a"/>
        <radialGradient id="aj" cx="1352.136" cy="598.713" r="312.396" gradientTransform="translate(156.179 -1478.024) scale(3.469)" xlink:href="#a"/>
        <radialGradient id="ak" cx="1353.608" cy="598.708" r="1114.655" gradientTransform="matrix(.972 0 0 .972 28.266 16.686)" xlink:href="#a"/>
        <radialGradient id="al" cx="1368.218" cy="535.002" r="272.37" gradientTransform="translate(-2732.072 579.98) scale(4.611)" xlink:href="#a"/>
        <radialGradient id="am" cx="1361.503" cy="535" r="1566.795" gradientTransform="matrix(.802 0 0 .802 249.796 106.115)" xlink:href="#a"/>
        <radialGradient id="an" cx="1358.077" cy="535.041" r="531.579" gradientTransform="translate(112.614 -729.259) scale(2.363)" xlink:href="#a"/>
        <radialGradient id="ao" cx="1360.964" cy="534.904" r="1061.762" gradientTransform="translate(13.579 96.344) scale(1.183)" xlink:href="#a"/>
        <radialGradient id="ap" cx="1211.157" cy="456.255" r="1296.477" gradientTransform="matrix(.854 0 0 .854 150.451 66.836)" xlink:href="#a"/>
        <radialGradient id="aq" cx="1326.749" cy="562.473" r="629.973" gradientTransform="translate(70.322 -531.28) scale(1.945)" xlink:href="#a"/>
        <radialGradient id="ar" cx="1327.603" cy="562.441" r="1369.815" gradientTransform="matrix(.894 0 0 .894 114.795 59.485)" xlink:href="#a"/>
        <radialGradient id="as" cx="1386.614" cy="430.706" r="1425.929" gradientTransform="matrix(.839 0 0 .839 197.713 69.52)" xlink:href="#a"/>
        <radialGradient id="at" cx="1125.42" cy="546.769" r="485.418" gradientTransform="translate(255.99 -648.057) scale(2.185)" xlink:href="#a"/>
        <radialGradient id="au" cx="1126.666" cy="546.764" r="1214.18" gradientTransform="matrix(.874 0 0 .874 115.365 69.083)" xlink:href="#a"/>
        <radialGradient id="av" cx="1361.455" cy="588.662" r="1545.996" gradientTransform="matrix(.819 0 0 .819 223.094 106.67)" xlink:href="#a"/>
        <radialGradient id="aw" cx="1411.859" cy="406.05" r="1292.317" gradientTransform="matrix(.9 0 0 .9 115.673 40.443)" xlink:href="#a"/>
        <radialGradient id="ax" cx="1274.549" cy="521.67" r="645.538" gradientTransform="translate(23.844 -426.695) scale(1.818)" xlink:href="#a"/>
        <radialGradient id="ay" cx="1274.75" cy="521.662" r="1521.957" gradientTransform="matrix(.771 0 0 .771 280.767 119.422)" xlink:href="#a"/>
        <radialGradient id="az" cx="1439.512" cy="614.625" r="1192.621" gradientTransform="translate(-26.203 -15.45) scale(1.025)" xlink:href="#a"/>
        <radialGradient id="ba" cx="1300.305" cy="381.814" r="1102.473" gradientTransform="matrix(.936 0 0 .936 64.453 24.504)" xlink:href="#a"/>
        <radialGradient id="bb" cx="1248.773" cy="751.488" r="1567.59" gradientTransform="matrix(.753 0 0 .753 304.168 185.328)" xlink:href="#a"/>
        <radialGradient id="bc" cx="1462.874" cy="372.04" r="1058.092" gradientTransform="translate(-30.115 -10.544) scale(1.028)" xlink:href="#a"/>
    </defs>
    <g class="a">
        <g class="b">
            <path class="c" d="M.1 108.4l76.3 52-76.3 153v3.7l77.7-155.8L579 502.9 246.3 791.7.2 738.6v1.7l244.6 52.8L.2 1005.4v2.2l246.6-214.1 332.4 71.7-31.1 219.7h1.7l31-219.3 241.2 52 .4-1.6L581 863.9l46.5-329.4.1-.5-45.9-31.3L1158.4 2.1l.8-.7L1157 0h-3l2.4 1.6-576.2 500.1L78.6 159.9 158.3.1h-1.9L77.1 159 0 106.5v1.9zm580.3 395.5l45.4 30.9-46.4 328.8-331.1-71.4z"/>
        </g>
        <g class="b">
            <path class="d" d="M.1 158.4v1.7l321.5-45.3 6.1 162.7L.1 374v1.7l327.7-96.5L353.6 974 .1 950.2v1.7l353.6 23.8 4.1 109.2h1.7l-4.1-109.1 1011.7 68.1 1.6.1-331.6-526.1L1315 0h-1.9l-277 516.3-237.5-376.8-.3-.5-468.9 138.1-6-162.5L1136.9.1H1125L323.3 112.9 319.1 0h-1.7l4.2 113.1zM797.6 141l237.6 377-213.8 398.4 1.5.8 213.3-397.6 329.4 522.5-1010.3-68-25.9-695.4z"/>
        </g>
        <g class="b">
            <path class="e" d="M519.9 521.6L.1 133.9v2.1l518.6 386.7-415 418.1L.1 766.8v3.2l102.4 172-61.5 62-40.9 32.5v2.1L31 1014 .1 1045.2v2.4l42-42.3 66.6-52.9 78.9 132.5h1.9L110 951.4l476.3-378.3 611.6 456.1-74.1 55.7h2.8l73.3-55 .9-.7L587.7 572l38.2-30.4-22.2-102.2L1039.9 0h-2.3L603.3 437.5 508.4 0h-1.7l95.2 438.9zM52.1 995.3l51.4-51.7 4.4 7.4zm57.1-45.4l-4.5-7.6 415.4-418.5 64.8 48.3zM624 541l-37.8 30-65-48.5 81-81.6z"/>
        </g>
        <g class="b">
            <path class="f" d="M.1 140.5l22.5 13-22.5 4.8v1.7l24.6-5.3 21 12.2L.1 278.2v4.4l47-114.8 580.3 336L605 831.4 0 747.5v1.7l604.9 83.9-17.1 251.8h1.7l17.2-251.7 234.4 32.5.6.1L1230.3.1h-1.8L840.7 864l-233.9-32.4 22.4-328.2v-.5L47.8 166.3l7.4-18L740.7.2h-7.9L55.9 146.4 115.8.2H114L53.9 146.9l-29 6.3L0 138.8v1.7zm53.1 8.1l-6.9 16.8-19.2-11.1z"/>
        </g>
        <g class="b">
            <path class="g" d="M.1 380v1.8L307.4 266l54 481.8L136 956.1l-135.9 1v1.7l134.1-1L.1 1081.7v2.3l136.5-126.2 248.1-1.8 14.6 128.9h1.7L386.5 956l1013.5-7.2h1.6l-629-859.4-.4-.5L524 182.5 470.3.1h-1.7L522.5 183l-213.8 80.6L279.1 0h-1.7L307 264.2zm138.4 576.1l223.2-206.2 23 204.5zM771.7 90.8l626.7 856.3-1012.1 7.3-23.1-205.9 257.1-237.7.4-.4-96.1-326.5zM523 184.6l95.8 325.3-255.9 236.5-54-481.1z"/>
        </g>
        <g class="b">
            <path class="h" d="M.1 163.4l16.7 10.5L.1 225.1v5.4l18.1-55.6 497.6 316.8-383.2 448L.1 750.8v2.9L131.5 941 8.4 1084.9h2.2l121.9-142.5 99.9 142.5h2L133.6 941.1l383.6-448.5L1232.5 948l-157.6 136.9h2.5l157.1-136.3.8-.8-717-456.5L938.5.1h-2.2L516.9 490.4 18.7 173.2 75 .1h-1.8L17.3 172.3.1 161.4z"/>
        </g>
        <g class="b">
            <path class="i" d="M.1 157.6v1.7l253.5-74.4 42.2 224.5L.1 166.3v1.8l296.1 143.2 88.2 468.8L.1 755.6v1.7l384.6 24.5 57.1 303.1h1.7l-57-302.8 241 15.4 1.5 287.4h1.7l-1.5-287.3 227.5 14.5h.6L1156.6.1h-1.8L856.1 810.4l-227-14.5-1.7-325.5v-.5L297.6 310.4 255.1 84.5 542.7.1h-5.9l-282 82.8L239.2.1h-1.7l15.7 83.2zM625.8 471l1.7 324.8-241.4-15.4-88-468z"/>
        </g>
        <g class="b">
            <path class="j" d="M1042.6 1084.9h2.4l220.6-217.7-1.1-1.2z"/>
            <path class="k" d="M.1 385.3v1.8l491.3-228.7 120.5 320.5L172 950.5.2 740.4v2.6l169.9 207.7L.2 964.3v1.7l170.1-13.6-123.7 132.5h2.3l123-131.9 107.8 131.9h2.1L173.2 952.1l1251.1-100.2 1.6-.1L741.5 40.9l-.4-.5-248.7 115.8L433.7.1h-1.8l58.9 156.8zM740.6 42.4l681.9 808-1248.2 100 439.1-470.7.4-.4-120.9-321.6z"/>
        </g>
        <g class="b">
            <path class="l" d="M.1 138.6L34 .1h-1.7L.1 131.7z"/>
            <path class="m" d="M.1 186.3v1.9l19.5 10.5L.1 191v1.8l32.2 12.7 477.8 256.6-457.2 622.8H55l456.6-622 119.2 64 42.8 558h1.7l-42.7-557 632.1 339.4.7-1.4-633-340-6.6-86.7v-.5l-74.7-29.6L851.4.1h-2.1L549.5 408.5 33.1 204zM550 410.5l74.1 29.4 6.5 85.1-118.1-63.4zm-1.6-.6l-37.3 50.9-465.4-250z"/>
        </g>
        <g class="b">
            <path class="n" d="M.1 155.3v1.8l217.7-81.8L401.1 762l-401 4.5v1.7l401.4-4.5 38.3 143.4L4.2 974.7l-4.1-5.6v2.8l3.3 4.6 436.8-67.8 47.1 176.2h1.7l-47.1-176.5 999.8-155.1 1.6-.2-440.8-452.2L1089.9.1h-1.7l-87 299.4L709.3.1H707l293.6 301.3-132.4 455.4-465.4 5.2L219.4 74.7 418.1.1h-4.7L219 73.1 199.5.1h-1.7l19.6 73.6zm868.8 603.2h.6L1002 302.7l437.8 449.2-998.3 155-38.2-143.2z"/>
        </g>
        <g class="b">
            <path class="o" d="M.1 207.9v1.8l178.7 79.5L.1 389v1.9L180.6 290l405.7 180.6-382.8 476.5L.2 733.6v2.4l202.2 212.4-109.6 136.5h2.1l108.6-135.2 128.8 135.2h2.3l-130-136.5 383.2-477 698.4 310.7-267.9 302.8h2.2l267.7-302.5.8-.8L589 470l16.2-20.2L460.1 134 699.7.1h-3.4L459.4 132.5 398.5.1h-1.8l61.2 133.2-277.2 155zm458.4-73.1l144.7 314.8-15.9 19.7-404.8-180.2z"/>
        </g>
        <g class="b">
            <path class="p" d="M.1 150.1L326 .1h-4L.1 148.3z"/>
            <path class="q" d="M.1 213.4l533.4 166.9-232 370.8-301.4 26v1.7l300.3-26-207.7 332.1h2l207.9-332.2 363.6-31.3 54.3 363.5h1.7l-54.5-363.7 209.9-18.1.6-.1L1029.3 0h-1.7L876.8 701.4l-209.4 18.1-46.9-313.2-.1-.5-84.5-26.4L773.2.1h-2l-237 378.8L0 211.7v1.7zm535 167.4l83.9 26.3 46.8 312.6-362.3 31.2z"/>
        </g>
        <g class="b">
            <path class="r" d="M.1 392.3v2l239.7-158.4 161.4 464.4-158.6 230.6-212.5 48.9L.2 944.6v2.6l29 34.1.3.4L241.2 933l-104.5 151.9h2l104.9-152.5 220.6-50.8 70.7 203.3h1.8l-70.8-203.6 984.5-226.7 1.6-.4L720.3 0h-2.5l730.6 653.4-983.1 226.3-62.2-179.1 191.4-278.1-1.4-.9-190.7 277.1L241.3 235 596.9.1h-3L240.7 233.4 159.6.1h-1.8l81.4 234.3zm463.6 487.8L245 930.4l156.9-228.1z"/>
        </g>
        <g class="b">
            <path class="s" d="M491.2 401.9L.1 225.4v1.7l490.3 176.3-274.1 520.7L.1 728.2v2.2l215.4 195.2-83.9 159.3h1.9l83.3-158.2 174.5 158.2h2.4L217.6 925.2 492 404l811.5 291.7-299.9 389.2h2.1l299.8-389.1.7-.9-813.4-292.4 43.6-82.8 56.7 102.7 1.4-.8-57.2-103.7L704.6.1h-1.8L536.3 316.2 361.9.1H360l175.4 317.8z"/>
        </g>
        <g class="b">
            <path class="t" d="M.1 139.4v1.9l143.1-79.2 98.2 225.8L.1 231.6v1.7l242.1 56.5 187.5 431.1L.1 790.4v1.7l430.3-69.7L588 1084.9h1.8L432.1 722.1l248.8-40.2 90.7 403h1.7l-90.7-403.3 198.6-32.1.6-.1L974.3.1h-1.7l-92.4 647.8-198 32.1-68.6-304.9-.1-.5-370-86.3-98.8-227.1L255.1.1h-3.4L144.1 59.7 118.2.1h-1.8l26.3 60.4zm612 236.6l68.4 304.3-249.1 40.3-187.1-430.4z"/>
        </g>
        <g class="b">
            <path class="u" d="M.1 394.5v2.1l387-299.7 193.6 297.4-305.6 523.2-22.7 7L.2 728v2.1l250.3 195L56.1 985 .3 928.3v2.4l55 55.8.4.4 196.5-60.6 12.3 9.6-87 149h1.9L265.8 937l189.7 147.9h2.7L266.5 935.5l9.7-16.6L1453.9 556l1.5-.5L740.2 0h-2.7l714.4 554.9L277.4 916.8l305-522.1.3-.4L388.5 95.8 512.1 0h-2.7L387.6 94.4 326.2 0h-2l62.1 95.4zm265 540l-11.2-8.7 19.9-6.1z"/>
        </g>
        <g class="b">
            <path class="v" d="M.1 243.3l32.3 8.9-32.3-5.1v1.8l46.2 7.2 432 119.6-308.7 709.2h1.8l308.5-708.7L624 416.1l203.1 668.8h1.7l-203-668.3 689.8 191L996 1084.9h2l319.6-477.3.6-1-693-191.9-22.2-73-101.3-15.9L643.5.1h-1.8L500.1 325.6l-453.4-71L.1 241.7zm501 84.1l100.7 15.8 21.6 71-142.8-39.6zm-1.7-.3l-20.5 47.1L60.7 258.4z"/>
        </g>
        <g class="b">
            <path class="w" d="M.1 127.1v2l106.2-69.4 335.8 639L.1 804v1.8l442.8-105.6 64.1 122L81.9 988.5.1 916.9v2.3l81.4 71.2 426.3-166.7L645 1084.9h1.9L509.3 823.1l939.4-367.5-.6-1.5-939.6 367.5-63.9-121.7 437.2-104.2L924.2.1h-1.7l-42.3 594.2-436.4 104L107.7 58.8 197.6.1h-3.1l-87.6 57.3L76.8.1h-1.9l30.6 58.2z"/>
        </g>
        <g class="b">
            <path class="x" d="M.1 255.4v1.7L125.4 282 .1 394.9v2.2l127.3-114.7 439.7 87.5-271.3 554L.1 726.7v2L295 925.4l-78 159.5h1.9l77.6-158.5 237.6 158.5h3l-239.9-160 271.5-554.7 750.4 149.3-325.6 565.4h1.9l325.7-565.6.6-1-752.2-149.6 1-2.1L352.4 79.8 440.8.1h-2.5l-86.9 78.3L291.8.1h-2.1l60.4 79.4-223.2 201.1zM351.2 80.8l217.4 285.9-.8 1.6L129 281z"/>
            <path class="y" d="M767.5.1L1448 455.6l.9-1.4L770.5.1z"/>
        </g>
        <g class="b">
            <path class="z" d="M.1 263.7l479.3 39.2-143 409.8L.2 820v1.7l335.6-107.1-129.4 370.3h1.8L337.7 714l363.7-116.1 187.2 487h1.8L702.9 597.4 876 542.2l.6-.2L878.3.1h-1.7l-1.7 540.7-172.5 55-109.5-284.9-.2-.5-110.9-9.1L587 0h-1.8L480 301.2.1 261.9zM481.2 303l110.3 9 109.3 284.3L338.4 712z"/>
        </g>
        <g class="b">
            <path class="aa" d="M.1 109.2v2l66.8-50.8 99.8 159.9L.1 394.1v2.4l167.5-174.8 356.3 570.6-416.2 199.6L.1 910.7v2.1l107 80.8.4.3 417.3-200.2 181.8 291.2h2L526.3 793 1435 357l1.4-.7L815.7.1h-3.4l620.5 356.1-907.4 435.4-356.6-571.1L380 .1h-2.3L167.9 219 68.2 59.4l78-59.3h-2.8L67.4 58 31.2.1h-2L66 59z"/>
        </g>
        <g class="b">
            <path class="ab" d="M446.6 320.9L.1 265.9v1.7l446 54.9-153 571.6L.1 728.8v1.9l292.6 165.1-50.6 189.1h1.7l50.4-188.3 29.8 16.8-68.8 171.5h1.8l68.5-170.7 302.4 170.7h3.4L326.1 912.7l228.7-570 .2-.5-6.2-7.1 767 94.4-320.1 655.4h1.8l320.7-656.7-771.1-94.9-78.2-88.9L534.3.1h-1.7l-65 242.8L253.9.1h-2.2L467 244.8zM553 342.6L324.6 911.9l-30-16.9 153.2-572.2 98.4 12.1zm-84.7-96.3l76.3 86.7-96.3-11.9z"/>
        </g>
        <g class="b">
            <path class="ac" d="M.1 276.6l577.6 4.4 128.6 273.1L.1 838.9v1.8L707 555.6l249.2 529.3h1.9L708.6 555l160.6-64.8.5-.2L835.9.1h-1.7L868 488.9l-160.1 64.6L579 279.8l-.3-.5L.1 275z"/>
            <path class="ad" d="M.1 89.9L101.6.1h-2.5L.1 87.7z"/>
        </g>
        <g class="b">
            <path class="ae" d="M.1 21.6v2.8l142 193.7L.1 390.5v2.6l143-173.6 296.5 404.4-75 235.6-231 132.4L.1 905.8v2l133.5 86.1 230.4-132-71 223h1.7l71.4-224.3 174-99.7 237.5 324h2.1L541.6 760.1l872.7-500 1.4-.8L880.4.1h-3.8l535.5 259.3-871.5 499.3-99-135.1 97.7-306.9.2-.5L276.1 58.3l48-58.3h-2.2l-47.1 57.1L216.5 0h-2.4l59.6 58.4-130.5 158.4zm539 738l-172.3 98.7 74.1-232.7zm-264.2-700l262.6 257.1L440.3 622 144.2 218.2z"/>
        </g>
        <g class="b">
            <path class="af" d="M.1 1074.8l2.2 10.1H4l-3.9-18.2z"/>
            <path class="ag" d="M.1 277.4l426.7 20.9-110.4 580.9L.1 730.3v1.8l316 148.8-38.8 204h1.7l38.7-203.3 431.9 203.3h3.8l-435.5-205 110.5-581.5 165.5 8.1 421.4 750.4-11.4 28h1.8l10.7-26.1 14.6 26.1h1.9l-15.8-28.1 292-715.8.4-1.1-714.5-35-31.6-56.3-1.4.8 31.1 55.4-164.2-8L485.3.1h-1.7l-56.4 296.6-427-20.9v1.6zm1307 64.1l-291 713.5-420.2-748.4z"/>
        </g>
        <g class="b">
            <path class="ah" d="M.1 904.4l160.8 87.5.8-1.4-161.6-88z"/>
            <path class="ai" d="M.1 81l165.7 193.9L.1 286.1v1.7l167.1-11.3 300.7 351.9L.1 859.1v1.9L469 629.7l389 455.2h2.2L470.6 629l386.5-190.7.6-.3L797 .1h-1.7l60.6 437-386.5 190.6-300.2-351.3 393.5-26.6-.1-1.6-394.7 26.6L.1 78.5z"/>
            <path class="aj" d="M.1 62L60.5.1h-2.3L.1 59.6z"/>
        </g>
        <g class="b">
            <path class="ak" d="M.1 284.7v1.7l71.7-1.8L.1 386.1v2.8l73.8-104.4 421.9-10.8 24.4 20.6-128.9 540.9-45.9 30.9L.1 733.9v1.8l343.6 131.6-182.9 123.2.9 1.4L345.6 868l34.7 13.3-48.5 203.6h1.7l48.4-203 530 203h4.6L382.2 880.3l10.5-44 863.9-582 34.9-.9-277.1 831.5h1.7l277.8-833.3-34.7.9 128.7-86.7L977.1.1h-4.4l411.7 166-128.3 86.4L496.4 272 237.5 53.1 275 .1h-2L236.3 52 174.9.1h-2.6l63 53.3L73.1 282.9zm380.6 594.9l-33.4-12.8 43.4-29.3zm872.9-625.3L393.4 833.9l128.5-539.7.1-.5-23.7-20.1zM236.6 54.4l257.3 217.7-418.8 10.7z"/>
        </g>
        <g class="b">
            <path class="al" d="M.1 952.5l38.1 132.4H40L.1 946.5z"/>
            <path class="am" d="M.1 297.8l410.7-58.5-49.1 431.6L.1 883.5v1.9L361.5 673l-46.8 411.9h1.7L363.3 672l344.4-202.4 406.3 615.3h2L709.1 468.7l134.2-78.9-.8-1.4-134.3 78.9-163.9-248.2-.3-.4-131.3 18.7L439.7.1H438l-27 237.5L.1 296.1v1.7zm412.4-58.7l130.7-18.6 163.6 247.7-343.2 201.7z"/>
        </g>
        <g class="b">
            <path class="an" d="M842.1 389.3l1.6-.4L761 .1h-1.7z"/>
            <path class="ao" d="M.1 127.4l93.5 94.2L.1 377.3v3.2l94.7-157.7L562 693.3 187.1 988.5.1 903.7v1.9l186.8 84.6.4.2 375.9-295.9L923.1 1057l-22.8 27.9h2.2l22.4-27.4.5-.6-360.9-363.5 787.6-620.2 1.2-1L1130.6.1h-5.4l224.6 72.7-786.5 619.4L95.7 221.3 228.5.1h-1.9l-132.1 220-94.4-95z"/>
            <path class="ap" d="M.1 1054.7l12.9 30.2h1.7L.1 1050.4z"/>
            <path class="aq" d="M.1 24L20.3.1h-2.1L.1 21.4z"/>
        </g>
        <g class="b">
            <path class="ar" d="M383.9 253.6L.2 291.9v1.7l383.7-38.3-23.2 590.9L.3 738.5v1.7l360.4 107.7-9.5 237h1.7l9.3-236.6 44.1 13.2-36 223.4h1.7L407.9 862l632 188.8.8.2L1271 166.2l.3-1.2-803.9 80.2-79.3-57.7L395.5 0h-1.7l-7.3 186.3L130.4 0h-2.8l258.9 188.3zm885.2-86.7L1039.6 1049 408.1 860.4l94.8-588.7.1-.5-33.6-24.4zM501.2 271.8l-94.7 588-44.3-13.2L385.5 255l81.5-8.1zm-113.1-82.2l76.9 55.9-79.4 7.9z"/>
        </g>
        <g class="b">
            <path class="as" d="M.1 983.3l52.2 101.6h1.9L.1 979.7z"/>
            <path class="at" d="M.1 306l524.2-114.9 178.5 232.4L8.9 903.8.1 880v4.8l7.4 20-7.4 5.1v2l8-5.5 66.1 178.5H76L9.5 905.4l694.3-480.6 507.3 660.1h2.1l-508-661.1L824.9 341 727.1.1h-1.7l97.5 340.2-118.7 82.2-179-232.8-.3-.5L.1 304.3z"/>
        </g>
        <g class="b">
            <path class="au" d="M.1 162.3v2.2L68.5 224 .1 360v3.7l69.7-138.6 385.8 335.3-19 220.4L213 985 .2 906.7v1.8l212.7 78.3.5.1 223-203.7-26 301.7h1.7l26.1-303.3 132.5-121.1L961.2 1000l-60.1 84.9h2l59.8-84.6.4-.6-391.4-340.3L1293.7.1h-2.5L570.5 658.3l-113.4-98.6 26.7-309.4L158.7 48.1l24.1-48h-1.9l-23.7 47.1L81.5.1h-3.1l78.1 48.6-87.4 173.8zm569.4 497.1L438.4 779.2l18.7-217.4zM158.1 49.5l324.1 201.7-26.5 307.2L70.6 223.6z"/>
        </g>
        <g class="b">
            <path class="av" d="M.1 839.9l112 245h1.9L.1 836z"/>
            <path class="aw" d="M.1 296.8v1.7L360 235.2l20.2 592.9L0 744.3v1.7l380.4 83.8 8.7 255.1h1.7l-8.7-254.8 687.3 151.5.8.2 171.4-902.2.2-1.2-880.2 154.8-8-233.2h-1.7l8 233.5zM1239.8 80.5l-170.9 899.3L382 828.4l-20.3-593.5z"/>
        </g>
        <g class="b">
            <path class="ax" d="M.1 196.2l110.1 82L.1 310.9v1.7l111.7-33.2 368.6 274.7L3.8 939.7l-3.6-6v3.2l2.3 3.8-2.3 1.9v2.1l3.2-2.6 87.2 142.8h1.9L4.7 941.1l477.1-386 515.7 384.4-88.9 145.4h1.9l88.8-145.2.4-.6L483.1 554l213.1-172.4 626.7 703.3h2.2L697.4 380.5l106.2-85.9.5-.4L696.6 0h-1.8l107.3 293.7-105.7 85.6-193.7-217.4-.3-.4-390.2 116.1-112-83.5v2.1zm501.7-32.8l193.3 216.9L481.7 553 113.9 278.8z"/>
        </g>
        <g class="b">
            <path class="ay" d="M.1 337.9v4.3L119.7 52.7l341.8 179.5-6.4 519-53.6 56.6L.1 750.3v1.7l400 57.3-161.2 170.6L.2 911.4v1.7L239 981.6l.5.1 162.8-172.1 52.1 7.5-3.4 267.8h1.7l3.3-267.6 639.4 91.7.8.1L1204.9.1h-1.7l-108.4 907.1L456 815.7l.8-63.8L1167.8.1h-2.3L456.8 749.5l6.4-517.8v-.5l-342.8-180L141.5.1h-1.8l-20.8 50.4L23 .1h-3.6L118.3 52zm454.2 477.5l-50.8-7.3 51.5-54.5z"/>
        </g>
        <g class="b">
            <path class="az" d="M.1 812.7l149.7 272.2h1.9L.1 809.3z"/>
            <path class="ba" d="M.1 300.3v1.7l118.3-29.9L.1 317v1.8l132.3-50.2 202-51.1 94.7 867.4h1.7L336.2 217l177.2-44.9 889.9 863.4-480.7 49.4h16.2l466.5-47.9 1.8-.2-891.8-865.2L1193.4 0h-6.8L513.9 170.2l-35.8-34.7-144.8 55L312.5 0h-1.7l20.8 191.1-199.7 75.8zm477.6-162.8l34.3 33.3-176.1 44.5-2.5-23.1zm-145.9 55.4l2.5 22.9L146 263.5z"/>
        </g>
        <g class="b">
            <path class="bb" d="M.1 222.2v2l478.2 304.1L51.9 928.5l-34.7-7.2L.1 897.4v2.8l14.7 20.5-14.7-3.1v1.7l16.1 3.4L33 946.2.1 977.1v2.3L34 947.6l98.5 137.3h2L35.2 946.4l17.2-16.1 213 44.5 311.9-383.5 449.6 286-108.2 207.6h1.9l108.2-207.5.3-.7L578.4 590 1058.3.1h-2.1L577 589.1l-96-61 296.7-278.5.4-.4L667 .1h-1.8l111 248.7-296.6 278.4zm34.2 722.9l-15.6-21.8 31.8 6.6zm541.6-354.7L264.7 972.9l-210.8-44 425.9-399.6z"/>
        </g>
        <g class="b">
            <path class="bc" d="M.1 23.4L80 58.3.1 302.1v5.3l.6-1.9 366-122.1 72.3 31.5 35.6 576.2L.2 758.8v1.7l474.5 32.3 18 292.1h1.7l-18-292 638.1 43.4.8.1L1159.4.1h-1.7l-44 834.5-637.5-43.4-35.6-576.9v-.5l-71.5-31.2L916.1.1h-5.2l-544 181.5L82.2 57.3 101 0h-1.7L80.7 56.6.3 21.5v1.9zM81.6 59l282.9 123.5L1.4 303.6z"/>
        </g>
        <g class="b">
            <path class="bd" d="M.1 322.5v1.8l303.4-141.7L382 608.3 88.4 928 .2 792.6v3l87.1 133.7-87.1 94.8v2.4l88-95.8 100.4 154.2h2L89.3 929.4l293.1-319.1 87.6 474.6h1.7l-87.8-476.2 286.6-312.1 765.7 642.2-834.9 146.1h9.6l827.3-144.8 1.8-.3-768.4-644.4 80.3-87.4.4-.4L641.2.1h-1.9l111 207.3-79.9 87-217.8-182.7-.4-.3-147.3 68.8L271.7.1H270l33.2 180.8zm451.7-209.2l217.4 182.3-285.8 311.1L305 181.8z"/>
        </g>
        <g class="b">
            <path class="be" d="M.1 248.1l.2-.7L456.6 492l26.5 195-194.2 277.4-237.4-31.7L.2 871.3v2.6l48.9 58.5-48.9-6.5v1.7l50.5 6.7 125.9 150.6h2.2L53.1 934.6l236.1 31.5.5.1 193.7-276.8 53.7 395.5h1.7l-54-397.5 91.8-131.1 476.3 255.3-119.2 273.3h1.8l119.3-273.3.3-.7-477.5-256L966 0h-2L576.2 554.1l-118-63.2L418.3 197l-1.6.2 39.6 292.7L.7 245.7 61.7 0H60L.1 241.2v6.9zm575 307.4L484.5 685l-26.1-192.1z"/>
        </g>
    </g>
</svg>
